<?xml version="1.0" encoding="utf-8"?>
<!-- Generator: Adobe Illustrator 18.0.0, SVG Export Plug-In . SVG Version: 6.00 Build 0)  -->
<!DOCTYPE svg PUBLIC "-//W3C//DTD SVG 1.1//EN" "http://www.w3.org/Graphics/SVG/1.1/DTD/svg11.dtd">
<svg version="1.1" xmlns="http://www.w3.org/2000/svg" xmlns:xlink="http://www.w3.org/1999/xlink" x="0px" y="0px"
	 viewBox="0 0 2272 1872" enable-background="new 0 0 2272 1872" xml:space="preserve">
<g id="Background">
	<rect fill="#A8D7DE" width="2272" height="1872"/>
</g>
<g id="Object">
	<circle fill="#CCE6F7" cx="348.6" cy="975.4" r="187.1"/>
	<circle fill="#CCE6F7" cx="516.6" cy="480.4" r="187.1"/>
	<circle fill="#CCE6F7" cx="1119.7" cy="249.4" r="187.1"/>
	<circle fill="#CCE6F7" cx="1788.8" cy="501.4" r="187.1"/>
	<circle fill="#CCE6F7" cx="1908.8" cy="1080.5" r="187.1"/>
	<ellipse fill="#91C0C8" cx="1153.8" cy="1663.9" rx="504.1" ry="120"/>
	<g>
		<path fill="#FFDC5D" d="M880.5,1521.2c-7.3-47.6-18.8-93.9-30-140.7c-2.5,2.4-5.1,4.6-7.8,6.8c-2.3,1.8-5.3,0.7-5.6-2.3
			c-3.4-36-11.1-75.6-3.4-111.6c-3,2.9-6.5,4.9-10.9,6.6c-2.2,0.8-4.3-1.3-4.4-3.4c-0.1-3.7-0.3-7.4-0.4-11.2
			c-22.8,14.6-45.8,31.1-58.8,55.5c-14.9,28-17,62-19.7,93c-2.8,33-0.9,65.2,10.5,96.5c10.3,28.6,27.3,52.4,40.5,79.3
			c0.5,1,0.2,2.1-0.3,2.9c3,11.6-0.3,25.7-11.7,30.1c-0.8,0.3-1.5,0.2-2.1-0.1c-3.1,1.6-6.7,1.5-10.1,2.5c-3.5,1-7.2,2.2-10.2,4.3
			c-2.6,1.8-6.9,4.9-6.7,8.6c0.2,2.8,1.8,5.6,4.3,6.6c1.8-5,5.7-8.9,11.8-9.4c1.7-0.1,2.1,2.2,0.8,3c-7.5,4.7-10.7,14.5-3.3,21.3
			c3.8,3.5,8.6,5,13.6,5c-3.1-10.1,0.9-21.9,13.5-26c2.6-0.9,4.2,3.1,1.9,4.4c-14.3,7.9-10.8,26.2,4.6,30.1
			c11.6,2.9,24.1,3.2,35.9,1c19.4-3.5,40.5-14.6,59.6-18.1c0.2,0,0.4,0,0.6,0c-1.4-19.9-1.7-40-3.4-59.8
			C887.3,1571.1,884.4,1546,880.5,1521.2z"/>
		<path fill="#FFDC5D" d="M1576.3,1506.4c9.8-30.3,12.1-60.8,9.1-92.5c-3-31.7-4.2-68.5-21.6-96.3c-14.1-22.6-34.8-38.1-56.9-52.3
			c-0.1,3.7-0.3,7.4-0.4,11.1c-0.1,2.1-2.2,4.2-4.4,3.4c-4.4-1.7-7.9-3.7-10.9-6.6c7.7,36,0.1,75.6-3.4,111.6
			c-0.3,3-3.3,4.1-5.6,2.3c-2.7-2.2-5.3-4.4-7.8-6.8c-11.2,46.8-22.9,93.1-30,140.7c-4,26.5-7.2,53-9.3,79.7
			c-1.4,18-1.7,36.3-2.9,54.3c0.4-0.1,0.8-0.1,1.2,0c21.9,4,43.9,18.3,66.7,19.8c10.5,0.7,24.5,1.6,33.8-4.2
			c11.4-7.1,10.6-21.5-1-27.9c-2.4-1.3-0.8-5.2,1.9-4.4c13.3,4.3,16.7,16,13.2,26.1c6,0,12.6-2,15.7-7.4c4.4-7.6,2-14.5-5.2-19
			c-1.3-0.8-0.9-3.1,0.8-3c6.1,0.4,10,4.3,11.8,9.3c3.4-1.4,5.6-5.9,3.5-9.3c-1.8-2.9-4.3-5.2-7.4-6.8c-3.4-1.7-7.1-3.2-10.9-3.9
			c-2.8-0.5-5.4-0.7-7.9-2c-0.6,0.3-1.3,0.4-2.1,0.1c-11.5-4.3-14.7-18.5-11.7-30.1c-0.6-0.8-0.8-1.9-0.3-2.9
			C1548.3,1561.5,1566.5,1536.7,1576.3,1506.4z"/>
		<path fill="#FBB038" d="M1241.7,1521.8c-7.4,5.3-15.5,9.7-23.9,13.2c-3.4,1.4-5.4-2.9-4.2-5.5c2.7-5.8,3.1-11.4,1.6-17.5
			c-8.8,20.7-33.5,36.1-53.4,44.2c-7.1,2.9-24.2-12.3-29.2-16.6c-9-7.7-16.8-16.5-22.7-26.7c-1.3,5.7-0.8,11,1.8,16.6
			c1.2,2.6-0.8,6.9-4.2,5.5c-8.4-3.5-16.5-7.9-23.9-13.2c2.4,35.2,0.9,71.3,0.7,106.5c-0.1,20.7-1.4,41.6-8,60.9
			c28,7.5,55.6,13.5,84.8,13c15.9-0.3,31.8-1.5,47.4-4.7c13-2.7,25.5-7.4,38.5-10.2c0.6-0.1,1.1-0.1,1.5,0.1
			c-6.6-20.2-7.5-42.1-7.4-63.7C1241.1,1589.9,1239.4,1555.5,1241.7,1521.8z"/>
		<path fill="#FFDC5D" d="M1421.6,1673.5c1.1-0.2,2.2-0.4,3.4-0.5c0-0.2-0.1-0.3-0.1-0.5c-2-25.2,0.6-51.3,2.9-76.4
			c2.2-24.1,5-48.3,9-72.2c8.1-49,18.5-98.9,35.6-145.6c-0.2-0.2-0.4-0.3-0.5-0.5c-1.8-1.9,0.5-4.9,2.8-3.6c2.7,1.5,5.1,3.1,7.5,4.8
			c4-37.1,8.4-73.7,5-111.1c-0.3-0.5-0.6-1-0.9-1.6c-1.2-2.3,1.9-5,3.8-2.9c3.1,3.4,6.1,6,9.9,8c1.3-29.1,0.9-58.5,3.4-87.4
			c-0.7-0.8-1.4-1.6-2.1-2.5c-1.4-1.9,1.3-4.5,3.2-3.2c3.1,2.2,6.2,4.6,9.2,7c1-30.2-2-59.8-2.7-89.9c-0.6-0.4-1.1-0.8-1.7-1.3
			c-2.2-1.9,0.6-4.8,2.9-3.7l0,0c0.4,0,0.6,0.2,0.9,0.5c1.8,0.9,3.6,1.8,5.3,2.8c-3.7-9.2-8-18.1-13.5-26.5
			c-6.1-9.4-13.5-17.4-20.7-25.8c-1,7.9-2.4,15.7-5.1,23.3c-4.5,13-15,24.4-25.6,32.8c-25.4,20.2-55.5,35-85.8,46.3
			c-9.9,3.7-20,6.9-30.1,9.9c6.9,18.7,11.2,38.8,13.9,58.6c2.4,17.9,5.3,37.2,1.3,55c-0.4,1.6-2.6,2.6-4,1.6
			c-3.3-2.4-6.5-4.9-9.6-7.4c6.8,19.2,8.7,40.3,7.9,60.4c-0.1,3-3.3,4-5.5,2.3c-3.1-2.4-6.3-4.8-9.3-7.2c6.3,18.2,8.1,38.4,7.5,57.3
			c-0.1,3-3.3,4-5.5,2.3c-2.2-1.8-4.5-3.6-6.7-5.4c5.8,21.1,1.1,44.9-9.7,63.5c-1,1.7-3.5,2.1-5,0.6c-2.8-3-5.2-5.9-7.2-9.1
			c-0.6,12.2-5.6,26.1-9.3,36.7c-5.1,14.6-11.7,28.1-21.5,40.1c-1.4,1.8-4.4,1.1-5.4-0.7c-1.6-2.6-2.8-5.1-3.7-7.6
			c-4.6,8.8-11,16.4-18.5,22.7c1.9,25.7,0.8,52,0.9,77.8c0.1,25.7-1.9,52.9,3.9,78.1c5.4,23.5,18.3,50.5,43.5,57.9
			c11.9,3.5,26,4.5,37-2.5c11.9-7.5,19.4-21.3,12.7-35c-1-2,1.6-3.4,2.9-1.7c7.1,9.5,5.8,20.6,0.2,29.7c0.1,0.1,0.2,0.1,0.3,0.2
			c10.8,10.6,35.7,17.6,49.3,8.8c18.9-12.2,8.1-27.3-1.6-40.9c-1.1-1.5,1.1-3.8,2.6-2.6c10.1,7.5,17.9,20,16.5,31.5
			c12.7,2.5,29.7-0.8,32.8-15.3c1.4-6.4,0.8-14.7-4.1-19.6c-6.3-6.2-14.1-6.5-22.5-7C1420.3,1676.6,1419.7,1673.8,1421.6,1673.5z"/>
		<path fill="#FFDC5D" d="M1077.6,1517.3c-7.5-6.3-13.8-13.9-18.5-22.7c-0.9,2.6-2.1,5-3.7,7.6c-1.1,1.8-4,2.5-5.4,0.7
			c-9.7-11.9-16.8-25.5-21.5-40.1c-3.5-10.9-8.7-24.4-9.3-36.7c-2,3.2-4.4,6.1-7.2,9.1c-1.4,1.5-3.9,1.1-5-0.6
			c-10.8-18.6-15.4-42.4-9.7-63.5c-2.2,1.8-4.4,3.6-6.7,5.4c-2.1,1.7-5.4,0.7-5.5-2.3c-0.5-18.9,1.2-39.1,7.5-57.3
			c-3.1,2.4-6.3,4.7-9.3,7.2c-2.2,1.7-5.4,0.7-5.5-2.3c-0.8-20.1,1.2-41.3,7.9-60.4c-3.1,2.5-6.3,5-9.6,7.4c-1.4,1-3.6,0-4-1.6
			c-4-17.9-1.2-37.7,1.4-55.6c2.8-19.1,6.7-38.4,13.3-56.5c-11.7-3.5-23.2-7.5-34.4-12.2c-47-19.9-90.6-54.1-112.2-100.8
			c-7.1,8.1-14.4,15.9-20.1,25.2c-5.3,8.5-9.7,17.3-13.4,26.4c1.7-1,3.5-1.9,5.3-2.8c0.2-0.3,0.5-0.5,0.9-0.5l0,0
			c2.3-1.1,5.1,1.9,2.9,3.7c-0.5,0.5-1.1,0.8-1.7,1.3c-0.7,30.1-3.7,59.7-2.7,89.9c3.1-2.3,6.1-4.7,9.2-7c1.9-1.3,4.5,1.3,3.2,3.2
			c-0.7,0.9-1.4,1.7-2.1,2.5c2.5,28.9,2.1,58.4,3.4,87.4c3.8-1.9,6.8-4.6,9.9-8c1.9-2.1,5,0.6,3.8,2.9c-0.3,0.6-0.6,1.1-0.9,1.6
			c-3.4,37.4,1.1,74,5,111.1c2.4-1.7,4.8-3.3,7.5-4.8c2.3-1.3,4.5,1.7,2.8,3.6c-0.2,0.2-0.4,0.3-0.5,0.5
			c17.1,46.7,27.8,96.7,35.6,145.6c3.8,23.9,6.9,48,9,72.2c2.2,25.1,4.8,51.2,2.9,76.4c0,0.2-0.1,0.3-0.1,0.5
			c1.1,0.1,2.3,0.3,3.4,0.5c1.9,0.3,1.3,3.1-0.4,3.2c-7.7,0.5-17.1,0.4-22.5,7c-4.2,5.3-6.2,13-4.1,19.6c4.5,14.4,20,18.1,33.3,15.2
			c-2-11.4,4.9-23.1,16.1-31.4c1.5-1.1,3.7,1.1,2.6,2.6c-4,5.6-9.9,11-11.7,17.8c-2.9,11.7,4.3,23.1,16.3,25.5
			c14.4,2.9,32.4-0.7,43.1-11.2c0.1-0.1,0.2-0.1,0.3-0.2c-5.5-9.2-6.8-20.4,0.2-29.7c1.3-1.7,3.9-0.3,2.9,1.7
			c-7.6,15.2,3.1,32.9,18.6,37.7c12.1,3.7,25.9,3.3,37.2-2.7c20.9-11.1,33-32.8,37.4-55.5
			C1082.7,1622.2,1073.8,1568.8,1077.6,1517.3z"/>
		<path fill="#FBB038" d="M1334.5,1253c0.4,0.2,0.8,0.5,1.2,0.7c0.1,0,0.2,0.1,0.3,0.2c4.1,2.6,8.2,5.2,12.2,7.9
			c3.3-18.7,0-40.1-3-58.3c-2.7-16.6-7-32.7-11.1-48.9c-55.7,15.8-114.2,21.3-172,20.6c-56.5-0.6-116.3-3.5-171.5-19.2
			c-4.4,17.3-8.9,34.4-11.4,52.1c-2.4,17.1-5.4,36.3-2.3,53.7c4-2.7,8.1-5.4,12.2-7.9c0.1-0.1,0.2-0.2,0.3-0.2
			c0.4-0.2,0.8-0.5,1.2-0.7c1.7-1,3.7,1.5,2.1,2.8c-0.6,0.5-1.1,0.9-1.7,1.4c-4,19.6-6.9,38.4-6.7,58.3c4.5-3.5,9-6.9,14-9.8
			c2.5-1.5,5.2,2,3.1,4c-0.9,0.9-1.9,1.7-2.9,2.6c-3.7,18.6-6.9,36.6-6.9,55.6c3-2.3,6.1-4.6,9.3-6.6c0.1-0.3,0.2-0.5,0.4-0.8
			c0.4-0.9,1.4-0.7,1.9-0.1c1.8,0.1,3.1,2.5,1.6,4c-0.6,0.6-1.3,1.2-2,1.8c-3.5,21.7-2.3,41.4,7.7,61.2c3.4-3.8,6.6-7.8,9.5-12.1
			c1.3-1.9,4.8-0.7,3.9,1.6c-0.5,1.4-1.1,2.7-1.7,3.9c5.7,10.8,6.7,25.1,10.7,36.6c4.7,13.4,10.7,25.8,19.2,37
			c1.5-2.6,2.9-5.2,4.4-7.9c1-1.9,4.4-1.1,4.2,1.1c-0.1,1-0.3,2-0.5,3c6,7.7,12.4,14.8,19.6,20.8c1.3-0.3,2.9,0.4,3.1,2.3
			c0,0.1,0,0.1,0,0.2c6,4.6,12.4,8.5,19.7,11.4c-0.9-5.6,0.1-11,3.1-16.7c0.4-0.7,1-1.1,1.6-1.2c0.4-0.9,1.7-1.2,2.5-0.2
			c10.9,14.6,38.2,50.2,59.2,37.6c16.8-10,33.6-19.7,43.6-37.2c0.8-1.4,2.8-1.1,3.5,0c1.1-0.6,2.7-0.5,3.4,0.9
			c3,5.7,4,11.1,3.1,16.7c7.2-2.9,13.7-6.8,19.7-11.4c0-0.1,0-0.1,0-0.2c0.2-1.9,1.8-2.6,3.1-2.3c7.2-6,13.6-13.1,19.6-20.8
			c-0.2-1-0.4-1.9-0.5-3c-0.2-2.3,3.1-3,4.2-1.1c1.5,2.6,2.9,5.3,4.4,7.9c9.4-12.2,15.9-26.1,20.5-40.9c3.2-10.3,4.4-23,9.5-32.7
			c-0.6-1.3-1.2-2.5-1.7-3.9c-0.9-2.4,2.6-3.5,3.9-1.6c2.9,4.3,6.1,8.3,9.5,12.1c10.1-19.8,11.2-39.5,7.7-61.2
			c-0.6-0.6-1.4-1.2-2-1.8c-1.5-1.6-0.2-4,1.6-4c0.5-0.6,1.5-0.8,1.9,0.1c0.1,0.3,0.2,0.5,0.4,0.8c3.3,2,6.3,4.3,9.3,6.6
			c0-19-3.2-36.9-6.9-55.6c-1-0.9-1.9-1.7-2.9-2.6c-2.1-2,0.6-5.4,3.1-4c4.9,2.9,9.4,6.3,14,9.8c0.2-19.9-2.7-38.7-6.7-58.3
			c-0.6-0.5-1.1-0.9-1.7-1.4C1330.9,1254.5,1332.9,1252,1334.5,1253z"/>
		<path fill="#854101" d="M1162.5,857.5c9.1-0.6,18-3.4,24.5-10.3c8.2-6.8,7.4-15.2-2.3-25.3c-3-0.9-6-1.4-9.2-1.6
			c-5.5-0.4-11.1-0.8-16.6-0.8c-10.7-0.1-45.5,0.4-37.6,21.6c3.9,10.5,12.5,14.6,22.1,16.9c0.3-0.7,1-1.3,1.9-1.2
			c5.1,0.7,10.5,1.1,15.8,0.9C1161.5,857.3,1162,857.4,1162.5,857.5z"/>
		<path fill="#FFDC5D" d="M844.8,1036.7c53,114.3,204.5,130.3,317.2,130.8c64.6,0.3,130.2-6,191.5-27.4c30.7-10.8,62-24.6,88.2-44.2
			c13.9-10.4,27.3-23.3,31.5-40.8c3.3-14.2,4.1-28.7,7.8-42.9c0.8-3,5.7-2.4,5.5,0.7c0.1,0.1,0.3,0.1,0.4,0.2
			c3.6,3.4,6.9,7,10.1,10.7c11.2-31.1,15-62,18.9-94.8c-0.8-1.1-1.6-2.1-2.4-3.2c-1.3-2,1.3-4.5,3.2-3.2c3.7,2.4,6.9,5.2,10,8.2
			c-5.6-32.4-15.2-63.1-26.8-94c-24.4-60.4-31-127.2-66-183.5c-20.9-33.6-50.5-60.3-81.9-83.9c-32.6-24.4-69.6-42.9-111.3-39.3
			c-1.3,0.1-1.9-1.6-1.3-2.5c-0.5-1-0.6-2.2,0.3-3.2c4.7-5.1,10-9.5,15.3-14c-34.3,0.4-68,5.7-101,15.6c-3.3,1-5.9-3.4-3.3-5.8
			c4.8-4.4,9.4-9,14.1-13.5c-39.8,12.5-80.4,21.7-119.2,37.8c-32.7,13.5-64.6,30.4-92.5,52.4c0.5,0.3,0.9,0.6,1.4,1
			c0.3,0.2,0,0.7-0.3,0.5c-0.6-0.3-1.2-0.6-1.8-0.9c-8.2,6.4-16,13.3-23.4,20.6c-64.5,64.4-87.5,154.2-133.9,230.3
			c7.4-3,14.2-7,21-11.4c0.3-0.6,0.6-1.2,0.9-1.8c0.5-0.9,1.7-0.9,2.4-0.3c0.5-0.3,0.9-0.6,1.4-0.9c2.3-1.4,4.4,1.7,2.7,3.6
			c-1.9,2.1-4.1,4-6.3,5.8c-10.5,28.8-19.2,57.3-24.4,87.5c3.1-3,6.4-5.8,10-8.2c2-1.3,4.5,1.3,3.2,3.2c-0.7,1.1-1.6,2.2-2.4,3.2
			c3.9,32.9,7.7,63.7,18.9,94.8c3.2-3.7,6.5-7.4,10.1-10.7c2.2-2,5.9,0.6,4.2,3.2c-0.1,0.1-0.1,0.1-0.2,0.2c2,6.2,4.4,12,6.9,17.7
			C844.8,1034.2,845.5,1035.7,844.8,1036.7z M1394,1013.6c-19.1-38.9-53-61.7-95.8-66.4c-2-0.2-2.1-3.1,0-3.2
			c42.8-2.5,86.2,27.8,100.5,67.7C1399.6,1014.4,1395.2,1016.2,1394,1013.6z M1413.6,938.4c-30.7-28.6-71.4-41.2-112.9-36.4
			c-1.8,0.2-2.2-2.8-0.4-3.2c42.2-8.8,86.7,5.4,116.5,36.3C1418.9,937.3,1415.7,940.4,1413.6,938.4z M1286.2,861.4
			c38.9-23.2,89-25.4,130.3-7.7c2.3,1,0.7,4.9-1.7,4.1c-42.8-14.8-85.9-12.1-127,6.4C1286,865,1284.4,862.5,1286.2,861.4z
			 M919.4,935.1c29.9-30.9,74.3-45.1,116.6-36.3c1.8,0.4,1.4,3.4-0.4,3.2c-41.5-4.8-82.2,7.8-112.9,36.4
			C920.4,940.4,917.3,937.3,919.4,935.1z M1038,947.3c-42.8,4.7-76.7,27.5-95.8,66.4c-1.3,2.6-5.7,0.8-4.7-2
			c14.3-39.8,57.7-70.2,100.5-67.7C1040.2,944.1,1040.1,947,1038,947.3z M1104.5,880.6c5.8,17.3,25,22.3,38.2,9.3
			c8.4-8.2,10.4-17.3,15.3-27.1c-0.6,0-1.3-0.1-1.9-0.2c-0.2,0.2-0.5,0.4-0.9,0.4c-17.8-0.6-46-8.2-38.1-32.1
			c6.4-19.7,39.1-16.2,54.2-15c8.7,0.6,16.8,1.3,23.2,7.7c4.9,4.9,4.2,15.1,0.6,20.5c-7.2,10.6-19.1,17.4-31.6,18.6
			c0.6,11.2,5.5,22.9,15.7,28.5c12.8,7.1,34.5,3.4,30.3-15.5c-0.6-2.7,3.3-4.6,4.6-1.9c8.4,16.5-9.8,31.4-25.9,27.5
			c-14.3-3.5-24.8-14.7-27.7-28.2c-2.6,14.6-16.5,28.8-29.4,32.3c-15.4,4.3-31-9.1-32.2-23.9C1098.7,878,1103.6,877.7,1104.5,880.6z
			 M919.6,853.7c41.3-17.7,91.5-15.5,130.3,7.7c1.8,1.1,0.2,3.6-1.6,2.8c-41.1-18.4-84.2-21.1-127-6.4
			C919,858.6,917.3,854.7,919.6,853.7z"/>
		<path fill="#F47E5C" d="M823.5,558c-9.4-0.7-11.1-1-13.7,8.4c-1.8,6.4-3.4,12.9-4.6,19.5c-9.9,56.1,1.1,114,31.4,162.2
			c24.2-51.7,50.2-102.4,92.3-141.3c5.1-4.7,10.4-9.2,15.8-13.5c-23.6-11.9-49.6-21.7-75-27.7C854.6,562,839.1,559.1,823.5,558z"/>
		<path fill="#FBB038" d="M578.4,1310c-10.4-11.4-20-23.5-29.2-35.9c-9.7-12.9-20.1-27.6-34.3-36.2c-14.1-8.5-34.2-14.4-49-3.9
			c-13,9.2-20,25.7-18.7,41.6c2.7,32.8,26.1,63.7,47.6,87.4c20.1,22.1,43.1,41.4,68.8,56.6c50.8,30.1,107.9,45.1,166.9,43.4
			c1.1,0,1.9,0.4,2.6,0.9c-2-19.6-1.5-39.4,0.7-59.6c1.1-10.2,2.1-20.8,3.5-31.4C677.2,1389,617.8,1353.2,578.4,1310z"/>
		<path fill="#FFDC5D" d="M1427.6,575.5c10.9-4.7,21.9-9.1,33.2-12.4c23.9-7,48.6-11.4,73.5-12.1c1.4,0,2.6,1,3,2.3
			c21.9,69.5-16.1,138.9-52.9,195.9c-0.8,1.2-1.9,1.5-3,1.4c2.5,8.3,5,16.5,7.5,24.8c0.1-0.1,0.1-0.3,0.2-0.4
			c13.1-12.8,24.4-27.6,34.3-43c9.7-15,19.8-31.4,23.6-49.1c10.3-48.4,15.4-94.8,4.7-143.6c-0.3-1.6,0.5-3.4,2.1-3.8
			c6-1.4,12-2.9,17.9-4.4c-7.9-4.1-15.9-8.2-23.9-12.2c-2.6-1.3-1.4-4.5,0.7-5.4c4.8-2,9.6-4,14.3-6.1c-34.2-10.1-73.3,0-106.5,9.5
			c-36.8,10.5-72.1,25.4-105.9,43.3c15,10.7,30,22.1,43.9,34.8C1405.1,587.6,1415.2,580.9,1427.6,575.5z"/>
		<path fill="#F47E5C" d="M1537.7,586.2c-0.6-7.9-1.6-15.7-3.8-23.3c-2.3-8.1-9.9-5.2-16.9-4.4c-15.5,1.6-31.1,4.2-46.2,8.2
			c-25.7,6.9-51.9,16.8-75.5,29.2c13.5,12.4,26,25.7,36.3,40.5c21.5,30.7,35.1,65.7,46,101.3c0.7,2.4,1.4,4.8,2.2,7.3
			C1509.5,698.7,1542.3,643.2,1537.7,586.2z"/>
		<path fill="#FFDC5D" d="M834.1,753.4c-0.9-0.1-1.8-0.4-2.4-1.4c-37.6-59.1-46.1-132.4-24.2-198.8c0.4-1.3,1.5-2.3,2.9-2.2
			c26.2,0.7,52.7,5.1,77.7,13.4c11.2,3.7,22.3,7.9,33.1,12.9c9.3,4.4,17.1,9.4,25.1,14.8c15.1-12,31.1-22.6,47.9-32
			c-33.7-17.7-69-33-105.7-43.2c-33.5-9.2-72.3-19.8-106.7-9.5c4.8,2.1,9.6,4.2,14.5,6.2c2.1,0.9,3.1,4,0.7,5.3
			c-7.9,4.2-15.9,8.3-23.9,12.3c6,1.5,12,2.9,18,4.3c1.7,0.4,2.5,2.2,2.2,3.8c-9.3,42.1-12.2,85.7-6.6,128.6
			c4.8,36.6,13.1,75.9,39.3,103.5C828.5,765.4,831.3,759.4,834.1,753.4z"/>
		<path fill="#854101" d="M1131.2,905.2c12.9-3.6,26.8-17.8,29.4-32.3c2.9,13.6,13.4,24.8,27.7,28.2c16.1,3.9,34.3-11.1,25.9-27.5
			c-1.4-2.6-5.2-0.7-4.6,1.9c4.2,18.9-17.5,22.6-30.3,15.5c-10.2-5.7-15.1-17.3-15.7-28.5c12.5-1.2,24.4-8,31.6-18.6
			c3.6-5.4,4.3-15.6-0.6-20.5c-6.4-6.4-14.5-7.1-23.2-7.7c-15.1-1.1-47.8-4.7-54.2,15c-7.8,23.9,20.4,31.6,38.1,32.1
			c0.4,0,0.7-0.1,0.9-0.4c0.6,0.1,1.3,0.1,1.9,0.2c-4.9,9.8-6.9,18.9-15.3,27.1c-13.2,13-32.4,8-38.2-9.3c-1-2.9-5.8-2.6-5.6,0.8
			C1100.2,896.2,1115.8,909.5,1131.2,905.2z M1145.3,856.7c-0.9-0.1-1.6,0.5-1.9,1.2c-9.5-2.3-18.2-6.4-22.1-16.9
			c-7.9-21.2,26.9-21.7,37.6-21.6c5.6,0,11.1,0.4,16.6,0.8c3.1,0.2,6.2,0.7,9.2,1.6c9.7,10.1,10.5,18.5,2.3,25.3
			c-6.6,6.9-15.4,9.7-24.5,10.3c-0.5-0.2-1-0.2-1.4,0.1C1155.7,857.8,1150.3,857.4,1145.3,856.7z"/>
		<path fill="#854101" d="M921.4,857.8c42.8-14.8,85.9-12.1,127,6.4c1.8,0.8,3.4-1.7,1.6-2.8c-38.9-23.2-89-25.4-130.3-7.7
			C917.3,854.7,919,858.6,921.4,857.8z"/>
		<path fill="#854101" d="M1035.5,902c1.8,0.2,2.2-2.8,0.4-3.2c-42.2-8.8-86.7,5.4-116.6,36.3c-2.1,2.1,1.1,5.2,3.2,3.2
			C953.3,909.8,994,897.2,1035.5,902z"/>
		<path fill="#854101" d="M1038,944c-42.8-2.5-86.2,27.8-100.5,67.7c-1,2.7,3.4,4.6,4.7,2c19.1-38.9,53-61.7,95.8-66.4
			C1040.1,947,1040.2,944.1,1038,944z"/>
		<path fill="#854101" d="M1287.8,864.2c41.1-18.4,84.2-21.1,127-6.4c2.4,0.8,4.1-3.1,1.7-4.1c-41.3-17.7-91.5-15.5-130.3,7.7
			C1284.4,862.5,1286,865,1287.8,864.2z"/>
		<path fill="#854101" d="M1300.3,898.8c-1.8,0.4-1.4,3.4,0.4,3.2c41.5-4.8,82.2,7.8,112.9,36.4c2.2,2,5.3-1.1,3.2-3.2
			C1386.9,904.2,1342.5,890,1300.3,898.8z"/>
		<path fill="#854101" d="M1298.1,944c-2.1,0.1-2,3,0,3.2c42.8,4.7,76.7,27.5,95.8,66.4c1.3,2.6,5.7,0.8,4.7-2
			C1384.3,971.9,1340.9,941.5,1298.1,944z"/>
		<path fill="#854101" d="M1581.4,1512.2c12.1-33.5,13.6-67.9,10.2-103.1c-3.1-32.1-5.5-66.4-22-94.8c-13.9-23.9-38-41.9-62.4-53.8
			c0.9-24.4,1.4-49.3-1.1-73.5c2.7,2.7,5.7,5,9,7.3c2.1,1.5,4.8-0.5,4.8-2.8c1.2-30.2,1.7-63.1-4.9-93c2.7,1.9,5.4,3.8,8.2,5.6
			c2.4,1.6,5.7-1,4.8-3.7c-7.8-23.5-22.7-49.2-43.2-64.1c0.5-5.2,0.8-10.4,1.2-15.6c3.2,4.3,6.5,8.5,9.9,12.7c1.9,2.3,5.2,0.7,6-1.6
			c11.5-30.2,20.3-65.4,17.8-98.3c3.1,3.5,6.5,6.7,9.8,10.1c2.8,2.8,6.5-0.2,6-3.5c-4.5-31.4-12.8-63.3-26.4-92.2
			c0.4-0.6,0.6-1.3,0.4-2c-6.1-21.6-12.4-43.3-18.8-64.9c1.2,0.5,2.6,0.4,3.7-0.7c25.4-24.4,49.5-58.7,59-92.9
			c13.1-47.4,15.8-98.6,5-146.6c7.7-1.9,15.4-3.7,23.1-5.6c2.5-0.6,3.2-4.5,0.7-5.7c-8.5-4.2-16.9-8.4-25.4-12.7
			c5.7-2.1,11.3-4.1,16.9-6.3c2.5-1,4-5.1,0.8-6.5c-35.2-15.9-75.9-6.5-111.7,2.8c-41.1,10.7-80.6,27.7-116.3,50.6
			c-29.4-20.4-64-35-100.1-31.3c7.4-5.2,14.1-11.2,21.1-16.9c2.6-2.1,0.3-6.1-2.5-6.2c-34.3-0.6-68.5,3.7-101.5,12.9
			c3.5-4,7-8,10.3-12.2c0.3-0.1,0.6-0.2,0.9-0.3c2.5-0.8,1.4-4.2-1.1-3.9c-45.3,6.3-91.5,21.2-133.8,38.6
			c-14.1,5.8-27.8,12.3-41.2,19.5c-34.7-22.4-72.6-38.5-112.4-49.7c-36.7-10.3-79.7-20.2-116-3.9c-3,1.4-1.7,5.5,0.8,6.4
			c5.7,2.1,11.3,4.2,17,6.3c-8.5,4.2-17,8.4-25.4,12.8c-2.3,1.2-1.8,5.1,0.7,5.6c7.7,1.6,15.4,3.6,23,5.6
			c-9.9,43.3-12,87.6-6.4,131.7c4.8,37.7,14.3,78.5,42.3,106c0,0,0.1,0,0.1,0.1c-11.9,25.5-24,50.7-38.1,74.3
			c-1.5,2.5,1,6.1,3.9,5.1c7.8-2.6,15.5-5.7,22.4-9.9c-13.5,28.9-21.8,60.7-26.3,92c-0.5,3.3,3.2,6.3,6,3.5
			c3.3-3.4,6.7-6.6,9.8-10.1c-2.5,32.9,6.3,68.1,17.8,98.3c0.9,2.2,4.2,3.9,6,1.6c3-3.8,6-7.5,8.9-11.3c1.6,5.4,3.5,10.6,5.6,15.7
			c-19.5,15.1-33.7,39.9-41.2,62.6c-0.9,2.7,2.5,5.3,4.8,3.7c2.8-1.9,5.5-3.7,8.2-5.6c-6.6,29.9-6.1,62.9-4.9,93
			c0.1,2.2,2.7,4.3,4.8,2.8c3.3-2.3,6.2-4.7,9-7.3c-2.5,24.2-2,49.1-1.1,73.5c-24,11.8-45.2,28.5-60.4,50.7
			c-11.7,17-16.6,37.4-19.6,58.1c-0.2,0-0.4-0.1-0.6,0c-39.7,5.6-77.7-5.5-110.8-27.4c-30.5-20.2-53.5-49.2-75.4-78
			c-17.3-22.7-39.3-44.2-70-42.4c-26.3,1.5-40.3,27.2-41.1,50.9c-1.1,30,20.2,59,37.7,81.6c18.7,24.1,41.5,44.7,66.4,62.1
			c49.9,35,110.6,54.4,171.5,55.4c5,0.1,10-0.1,15.1-0.3c1.5-0.1,2.5-0.8,3.1-1.7c1.6,13,4.4,26,8.6,38.9
			c9,27.9,23.2,58.5,41.7,81.6c0.9,4,1,8.1,0.1,12.3c-1.4,6.4-5.8,10.6-9,16c-0.2,0.3-0.3,0.7-0.3,1.1c-5.1-1.7-11.7,0-16.5,1.3
			c-6.1,1.6-11.4,5.4-14.8,10.7c-5.2,8.2,0.5,19.9,9.3,20.2c0,2.3,0.4,4.7,1.3,6.8c3.8,10.1,15.4,14.8,25.3,11.9
			c2.6,4.1,6.6,7.5,11.9,9.4c15.4,5.5,32.1,4.3,47.9,1.5c16.5-3,39.8-9.8,54.2-19.2c0.3,3.6,0.5,7.2,0.9,10.8c0,0.1,0,0.1,0.1,0.2
			c-6.6,0.1-12.9,1.8-18.1,6.6c-6,5.6-8.3,15.8-6.7,23.6c4,19.4,24.7,27.2,42.1,21.4c1.6,3.5,4.1,6.9,7.7,10.1
			c16.3,14.4,47.4,7.3,60.3-8.3c4.4,5.4,10.3,9.8,16.7,11.9c25,8.3,51.7-2.3,66.8-23.4c5.1-7.1,8.9-14.6,11.9-22.4
			c26.7,12.1,56.8,16.8,86,17.3c28.3,0.5,63-3,88.4-16.3c0.4-0.2,0.6-0.4,0.9-0.7c2.9,7.7,6.8,15.2,11.8,22.2
			c14.5,20.2,39,30.4,63.3,24.6c7.6-1.8,14.9-6.7,20.1-13.1c13.6,16.6,41.8,20.9,59.6,9c4.6-3.1,7.5-6.7,9.2-10.5
			c17.2,5.4,37.5-2.5,41.4-21.6c1.8-8.5-1.1-17.1-6.7-23.6c-4.5-5.2-11.3-6.7-18.1-6.7c0,0,0-0.1,0-0.1c0.4-3.9,0.7-7.9,1-11.8
			c13.4,9.1,34.2,15.5,49.7,19.4c15.9,3.9,33,4.8,48.9,0.7c6.6-1.7,11.7-5.8,15-10.7c10,3,21.7-1.7,25.6-11.9
			c0.8-2.2,1.2-4.5,1.3-6.8c8.2-0.2,13.9-10.4,10.1-18.6c-2.8-6-7.9-9.3-13.9-11.7c-4.8-1.9-12.7-3.6-18.2-1.8
			c0-0.4-0.1-0.7-0.3-1.1c-2.9-4.8-6.5-8.7-8.5-14.1c-1.7-4.6-1.6-9.4-0.6-14C1558.8,1567.6,1571.7,1538.8,1581.4,1512.2z
			 M734,1404.3c-2.2,20.3-2.7,40-0.7,59.6c-0.6-0.6-1.4-0.9-2.6-0.9c-59,1.7-116.1-13.3-166.9-43.4c-25.7-15.2-48.7-34.5-68.8-56.6
			c-21.5-23.6-44.9-54.6-47.6-87.4c-1.3-15.9,5.6-32.4,18.7-41.6c14.8-10.5,34.9-4.6,49,3.9c14.1,8.5,24.6,23.2,34.3,36.2
			c9.3,12.4,18.8,24.4,29.2,35.9c39.3,43.2,98.8,79,159,62.9C736,1383.5,735.1,1394.1,734,1404.3z M1456.4,516.9
			c33.2-9.5,72.3-19.7,106.5-9.5c-4.8,2.1-9.5,4.1-14.3,6.1c-2.1,0.9-3.3,4.1-0.7,5.4c8,4,15.9,8.1,23.9,12.2
			c-6,1.5-11.9,3-17.9,4.4c-1.7,0.4-2.5,2.2-2.1,3.8c10.7,48.8,5.7,95.3-4.7,143.6c-3.8,17.7-13.9,34.1-23.6,49.1
			c-9.9,15.4-21.3,30.2-34.3,43c-0.1,0.1-0.2,0.2-0.2,0.4c-2.5-8.3-4.9-16.6-7.5-24.8c1.1,0.1,2.2-0.2,3-1.4
			c36.8-56.9,74.8-126.4,52.9-195.9c-0.4-1.3-1.6-2.3-3-2.3c-25,0.7-49.6,5-73.5,12.1c-11.4,3.3-22.4,7.7-33.2,12.4
			c-12.4,5.4-22.5,12.1-33.2,19.5c-13.9-12.6-28.9-24.1-43.9-34.8C1384.3,542.4,1419.6,527.5,1456.4,516.9z M1479.8,744.9
			c-0.7-2.4-1.4-4.8-2.2-7.3c-10.9-35.6-24.5-70.6-46-101.3c-10.3-14.8-22.8-28.2-36.3-40.5c23.7-12.4,49.9-22.3,75.5-29.2
			c15.1-4,30.7-6.6,46.2-8.2c7-0.7,14.5-3.6,16.9,4.4c2.2,7.6,3.2,15.5,3.8,23.3C1542.3,643.2,1509.5,698.7,1479.8,744.9z
			 M786.5,667.9c-5.6-42.8-2.7-86.5,6.6-128.6c0.4-1.6-0.5-3.4-2.2-3.8c-6-1.4-12-2.8-18-4.3c8-4,16-8.1,23.9-12.3
			c2.4-1.3,1.4-4.4-0.7-5.3c-4.9-2-9.7-4.1-14.5-6.2c34.4-10.3,73.2,0.3,106.7,9.5c36.8,10.1,72,25.4,105.7,43.2
			c-16.8,9.4-32.8,20-47.9,32c-8-5.4-15.8-10.4-25.1-14.8c-10.7-5-21.8-9.2-33.1-12.9c-25-8.2-51.4-12.7-77.7-13.4
			c-1.4,0-2.5,1-2.9,2.2c-21.9,66.4-13.4,139.7,24.2,198.8c0.6,1,1.5,1.3,2.4,1.4c-2.8,6-5.6,12-8.3,17.9
			C799.6,743.8,791.3,704.5,786.5,667.9z M944.8,593.3c-5.4,4.3-10.7,8.8-15.8,13.5c-42.2,38.9-68.1,89.6-92.3,141.3
			c-30.3-48.2-41.3-106.1-31.4-162.2c1.2-6.6,2.8-13.1,4.6-19.5c2.6-9.4,4.3-9.1,13.7-8.4c15.6,1.2,31.1,4,46.3,7.6
			C895.2,571.6,921.2,581.4,944.8,593.3z M836.8,1016.5c0.1-0.1,0.1-0.1,0.2-0.2c1.7-2.6-2-5.2-4.2-3.2c-3.6,3.4-6.9,7-10.1,10.7
			c-11.2-31.1-15-62-18.9-94.8c0.8-1.1,1.6-2.1,2.4-3.2c1.3-2-1.3-4.5-3.2-3.2c-3.7,2.4-6.9,5.2-10,8.2
			c5.2-30.1,13.9-58.7,24.4-87.5c2.2-1.8,4.3-3.7,6.3-5.8c1.7-1.8-0.5-5-2.7-3.6c-0.5,0.3-0.9,0.6-1.4,0.9c-0.7-0.6-1.9-0.6-2.4,0.3
			c-0.3,0.6-0.6,1.2-0.9,1.8c-6.9,4.3-13.6,8.4-21,11.4c46.3-76.1,69.3-165.9,133.9-230.3c7.4-7.4,15.2-14.2,23.4-20.6
			c0.6,0.3,1.2,0.6,1.8,0.9c0.3,0.2,0.6-0.3,0.3-0.5c-0.5-0.3-0.9-0.6-1.4-1c27.9-21.9,59.9-38.8,92.5-52.4
			c38.8-16.1,79.4-25.2,119.2-37.8c-4.7,4.5-9.4,9.1-14.1,13.5c-2.5,2.4,0.1,6.7,3.3,5.8c33-9.9,66.6-15.1,101-15.6
			c-5.3,4.4-10.6,8.9-15.3,14c-0.9,1-0.8,2.2-0.3,3.2c-0.6,0.9,0,2.6,1.3,2.5c41.8-3.6,78.8,15,111.3,39.3
			c31.5,23.5,61.1,50.3,81.9,83.9c35,56.3,41.6,123.1,66,183.5c11.6,31,21.2,61.6,26.8,94c-3.1-3-6.4-5.8-10-8.2
			c-2-1.3-4.5,1.3-3.2,3.2c0.7,1.1,1.6,2.2,2.4,3.2c-3.9,32.9-7.7,63.7-18.9,94.8c-3.2-3.7-6.5-7.4-10.1-10.7
			c-0.1-0.1-0.3-0.2-0.4-0.2c0.2-3.1-4.7-3.6-5.5-0.7c-3.6,14.1-4.4,28.7-7.8,42.9c-4.1,17.5-17.6,30.4-31.5,40.8
			c-26.2,19.6-57.5,33.5-88.2,44.2c-61.3,21.5-126.9,27.8-191.5,27.4c-112.8-0.5-264.2-16.5-317.2-130.8c0.7-1,0-2.5-1.1-2.5
			C841.2,1028.5,838.8,1022.7,836.8,1016.5z M1332.4,1255.8c0.6,0.5,1.1,0.9,1.7,1.4c4,19.6,6.9,38.4,6.7,58.3
			c-4.5-3.5-9-6.9-14-9.8c-2.5-1.5-5.2,2-3.1,4c0.9,0.9,1.9,1.7,2.9,2.6c3.7,18.6,6.9,36.6,6.9,55.6c-3-2.3-6.1-4.6-9.3-6.6
			c-0.1-0.3-0.2-0.5-0.4-0.8c-0.4-0.9-1.4-0.7-1.9-0.1c-1.8,0.1-3.1,2.5-1.6,4c0.6,0.6,1.3,1.2,2,1.8c3.5,21.7,2.3,41.4-7.7,61.2
			c-3.4-3.8-6.6-7.8-9.5-12.1c-1.3-1.9-4.8-0.7-3.9,1.6c0.5,1.4,1.1,2.7,1.7,3.9c-5,9.7-6.3,22.4-9.5,32.7
			c-4.6,14.8-11.1,28.6-20.5,40.9c-1.5-2.6-2.9-5.2-4.4-7.9c-1-1.9-4.4-1.1-4.2,1.1c0.1,1,0.3,2,0.5,3c-6,7.7-12.4,14.8-19.6,20.8
			c-1.3-0.3-2.9,0.4-3.1,2.3c0,0.1,0,0.1,0,0.2c-6,4.6-12.4,8.5-19.7,11.4c0.9-5.6-0.1-11-3.1-16.7c-0.7-1.4-2.2-1.5-3.4-0.9
			c-0.7-1.1-2.7-1.4-3.5,0c-10,17.5-26.8,27.1-43.6,37.2c-21,12.5-48.3-23.1-59.2-37.6c-0.8-1-2.1-0.7-2.5,0.2
			c-0.6,0.1-1.2,0.5-1.6,1.2c-3,5.7-4,11.1-3.1,16.7c-7.2-2.9-13.7-6.8-19.7-11.4c0-0.1,0-0.1,0-0.2c-0.2-1.9-1.8-2.6-3.1-2.3
			c-7.2-6-13.6-13.1-19.6-20.8c0.2-1,0.4-1.9,0.5-3c0.2-2.3-3.1-3-4.2-1.1c-1.5,2.6-2.9,5.3-4.4,7.9c-8.6-11.2-14.5-23.6-19.2-37
			c-4-11.4-5.1-25.8-10.7-36.6c0.6-1.3,1.2-2.5,1.7-3.9c0.9-2.4-2.6-3.5-3.9-1.6c-2.9,4.3-6.1,8.3-9.5,12.1
			c-10.1-19.8-11.2-39.5-7.7-61.2c0.6-0.6,1.4-1.2,2-1.8c1.5-1.6,0.2-4-1.6-4c-0.5-0.6-1.5-0.8-1.9,0.1c-0.1,0.3-0.2,0.5-0.4,0.8
			c-3.3,2-6.3,4.3-9.3,6.6c0-19,3.2-36.9,6.9-55.6c1-0.9,1.9-1.7,2.9-2.6c2.1-2-0.6-5.4-3.1-4c-4.9,2.9-9.4,6.3-14,9.8
			c-0.2-19.9,2.7-38.7,6.7-58.3c0.6-0.5,1.1-0.9,1.7-1.4c1.5-1.3-0.5-3.8-2.1-2.8c-0.4,0.2-0.8,0.5-1.2,0.7c-0.1,0-0.2,0.1-0.3,0.2
			c-4.1,2.6-8.2,5.2-12.2,7.9c-3-17.4,0-36.6,2.3-53.7c2.5-17.7,7-34.8,11.4-52.1c55.2,15.7,115,18.6,171.5,19.2
			c57.8,0.6,116.3-4.8,172-20.6c4.1,16.3,8.4,32.3,11.1,48.9c3,18.3,6.3,39.7,3,58.3c-4-2.7-8.1-5.4-12.2-7.9
			c-0.1-0.1-0.2-0.2-0.3-0.2c-0.4-0.2-0.8-0.5-1.2-0.7C1332.9,1252,1330.9,1254.5,1332.4,1255.8z M892.2,1656
			c-19.1,3.5-40.1,14.6-59.6,18.1c-11.8,2.1-24.3,1.9-35.9-1c-15.5-3.9-18.9-22.2-4.6-30.1c2.4-1.3,0.8-5.2-1.9-4.4
			c-12.6,4.1-16.6,15.9-13.5,26c-5,0-9.8-1.5-13.6-5c-7.4-6.8-4.2-16.7,3.3-21.3c1.3-0.8,0.9-3.1-0.8-3c-6.1,0.4-10.1,4.4-11.8,9.4
			c-2.5-1-4.1-3.8-4.3-6.6c-0.2-3.7,4.1-6.8,6.7-8.6c3.1-2.1,6.7-3.2,10.2-4.3c3.4-1,6.9-1,10.1-2.5c0.6,0.3,1.3,0.4,2.1,0.1
			c11.5-4.3,14.7-18.5,11.7-30.1c0.6-0.8,0.8-1.9,0.3-2.9c-13.2-26.9-30.1-50.7-40.5-79.3c-11.4-31.4-13.3-63.5-10.5-96.5
			c2.6-31,4.8-65,19.7-93c13-24.4,36-41,58.8-55.5c0.1,3.7,0.3,7.5,0.4,11.2c0.1,2.1,2.2,4.2,4.4,3.4c4.4-1.7,7.9-3.7,10.9-6.6
			c-7.7,36-0.1,75.6,3.4,111.6c0.3,3,3.3,4.1,5.6,2.3c2.7-2.2,5.3-4.4,7.8-6.8c11.1,46.8,22.7,93.1,30,140.7
			c3.8,24.9,6.7,49.9,8.9,75c1.7,19.9,2,39.9,3.4,59.8C892.6,1655.9,892.4,1655.9,892.2,1656z M1072.7,1673.1
			c-4.4,22.7-16.5,44.4-37.4,55.5c-11.4,6.1-25.2,6.5-37.2,2.7c-15.5-4.8-26.1-22.5-18.6-37.7c1-2-1.6-3.4-2.9-1.7
			c-7,9.3-5.7,20.5-0.2,29.7c-0.1,0.1-0.2,0.1-0.3,0.2c-10.7,10.5-28.8,14.1-43.1,11.2c-12-2.4-19.2-13.8-16.3-25.5
			c1.7-6.8,7.7-12.2,11.7-17.8c1.1-1.5-1.1-3.8-2.6-2.6c-11.2,8.3-18.1,20-16.1,31.4c-13.3,2.9-28.8-0.8-33.3-15.2
			c-2.1-6.6-0.1-14.3,4.1-19.6c5.3-6.6,14.8-6.5,22.5-7c1.7-0.1,2.4-2.9,0.4-3.2c-1.1-0.2-2.3-0.4-3.4-0.5c0-0.2,0.1-0.3,0.1-0.5
			c2-25.2-0.7-51.3-2.9-76.4c-2.1-24.2-5.1-48.2-9-72.2c-7.8-49-18.5-98.9-35.6-145.6c0.2-0.2,0.4-0.3,0.5-0.5
			c1.8-1.9-0.5-4.9-2.8-3.6c-2.7,1.5-5.1,3.1-7.5,4.8c-4-37.1-8.4-73.7-5-111.1c0.3-0.5,0.6-1,0.9-1.6c1.2-2.3-1.9-5-3.8-2.9
			c-3.1,3.4-6.1,6-9.9,8c-1.3-29.1-0.9-58.5-3.4-87.4c0.7-0.8,1.4-1.6,2.1-2.5c1.4-1.9-1.3-4.5-3.2-3.2c-3.1,2.2-6.2,4.6-9.2,7
			c-1-30.2,2-59.8,2.7-89.9c0.6-0.4,1.1-0.8,1.7-1.3c2.2-1.9-0.6-4.8-2.9-3.7l0,0c-0.4,0-0.6,0.2-0.9,0.5c-1.8,0.9-3.5,1.8-5.3,2.8
			c3.8-9.2,8.2-17.9,13.4-26.4c5.7-9.3,13-17.1,20.1-25.2c21.6,46.7,65.3,80.9,112.2,100.8c11.2,4.7,22.7,8.8,34.4,12.2
			c-6.6,18.2-10.5,37.5-13.3,56.5c-2.6,18-5.4,37.7-1.4,55.6c0.4,1.6,2.6,2.6,4,1.6c3.3-2.4,6.5-4.9,9.6-7.4
			c-6.8,19.2-8.7,40.3-7.9,60.4c0.1,3,3.3,4,5.5,2.3c3.1-2.4,6.3-4.8,9.3-7.2c-6.3,18.2-8.1,38.4-7.5,57.3c0.1,3,3.3,4,5.5,2.3
			c2.2-1.8,4.5-3.6,6.7-5.4c-5.8,21.1-1.1,44.9,9.7,63.5c1,1.7,3.5,2.1,5,0.6c2.9-3,5.2-5.9,7.2-9.1c0.6,12.3,5.8,25.8,9.3,36.7
			c4.7,14.6,11.8,28.2,21.5,40.1c1.4,1.8,4.4,1.1,5.4-0.7c1.6-2.6,2.8-5.1,3.7-7.6c4.6,8.8,11,16.4,18.5,22.7
			C1073.8,1568.8,1082.7,1622.2,1072.7,1673.1z M1246.8,1687.2c-13,2.8-25.4,7.5-38.5,10.2c-15.6,3.2-31.5,4.5-47.4,4.7
			c-29.2,0.5-56.9-5.5-84.8-13c6.6-19.3,7.9-40.2,8-60.9c0.2-35.2,1.7-71.3-0.7-106.5c7.4,5.3,15.5,9.7,23.9,13.2
			c3.4,1.4,5.4-2.9,4.2-5.5c-2.6-5.5-3.1-10.9-1.8-16.6c5.9,10.2,13.8,19,22.7,26.7c5,4.3,22.1,19.5,29.2,16.6
			c19.9-8.1,44.6-23.5,53.4-44.2c1.6,6,1.1,11.6-1.6,17.5c-1.2,2.6,0.8,6.9,4.2,5.5c8.4-3.5,16.5-7.9,23.9-13.2
			c-2.2,33.7-0.6,68.1-0.7,101.8c-0.1,21.6,0.8,43.5,7.4,63.7C1247.9,1687.2,1247.4,1687.1,1246.8,1687.2z M1444.5,1683.7
			c5,4.9,5.5,13.2,4.1,19.6c-3.2,14.5-20.2,17.8-32.8,15.3c1.4-11.5-6.4-24-16.5-31.5c-1.5-1.1-3.7,1.1-2.6,2.6
			c9.7,13.6,20.5,28.6,1.6,40.9c-13.6,8.8-38.5,1.8-49.3-8.8c-0.1-0.1-0.2-0.1-0.3-0.2c5.6-9.1,7-20.2-0.2-29.7
			c-1.3-1.7-3.9-0.3-2.9,1.7c6.8,13.6-0.7,27.5-12.7,35c-11,6.9-25.1,6-37,2.5c-25.2-7.4-38.1-34.5-43.5-57.9
			c-5.8-25.2-3.8-52.4-3.9-78.1c-0.1-25.8,1-52-0.9-77.8c7.5-6.3,13.8-13.9,18.5-22.7c0.9,2.6,2.1,5,3.7,7.6c1.1,1.8,4,2.5,5.4,0.7
			c9.8-12,16.5-25.5,21.5-40.1c3.7-10.6,8.7-24.5,9.3-36.7c2,3.2,4.3,6.1,7.2,9.1c1.4,1.5,3.9,1.1,5-0.6
			c10.8-18.6,15.4-42.4,9.7-63.5c2.2,1.8,4.4,3.6,6.7,5.4c2.1,1.7,5.4,0.7,5.5-2.3c0.5-18.9-1.2-39.1-7.5-57.3
			c3.1,2.4,6.3,4.7,9.3,7.2c2.2,1.7,5.4,0.7,5.5-2.3c0.8-20.1-1.2-41.3-7.9-60.4c3.1,2.5,6.3,5,9.6,7.4c1.4,1,3.6,0,4-1.6
			c4-17.8,1-37.1-1.3-55c-2.6-19.7-6.9-39.9-13.9-58.6c10.1-3,20.2-6.2,30.1-9.9c30.3-11.2,60.4-26.1,85.8-46.3
			c10.6-8.4,21.1-19.8,25.6-32.8c2.7-7.6,4.1-15.4,5.1-23.3c7.2,8.4,14.5,16.4,20.7,25.8c5.5,8.4,9.8,17.3,13.5,26.5
			c-1.7-1-3.5-1.9-5.3-2.8c-0.2-0.3-0.5-0.5-0.9-0.5l0,0c-2.3-1.1-5.1,1.9-2.9,3.7c0.5,0.5,1.1,0.8,1.7,1.3
			c0.7,30.1,3.7,59.7,2.7,89.9c-3.1-2.3-6.1-4.7-9.2-7c-1.9-1.3-4.5,1.3-3.2,3.2c0.7,0.9,1.4,1.7,2.1,2.5
			c-2.5,28.9-2.1,58.4-3.4,87.4c-3.8-1.9-6.8-4.6-9.9-8c-1.9-2.1-5,0.6-3.8,2.9c0.3,0.6,0.6,1.1,0.9,1.6c3.4,37.4-1.1,74-5,111.1
			c-2.4-1.7-4.8-3.3-7.5-4.8c-2.3-1.3-4.5,1.7-2.8,3.6c0.2,0.2,0.4,0.3,0.5,0.5c-17.1,46.8-27.5,96.6-35.6,145.6
			c-3.9,23.9-6.8,48-9,72.2c-2.3,25.1-4.8,51.2-2.9,76.4c0,0.2,0.1,0.3,0.1,0.5c-1.2,0.1-2.3,0.3-3.4,0.5c-1.9,0.3-1.3,3.1,0.4,3.2
			C1430.3,1677.3,1438.2,1677.5,1444.5,1683.7z M1534.8,1592.6c-3,11.6,0.3,25.7,11.7,30.1c0.7,0.3,1.4,0.2,2.1-0.1
			c2.5,1.3,5.1,1.5,7.9,2c3.8,0.7,7.5,2.1,10.9,3.9c3.1,1.6,5.6,3.8,7.4,6.8c2.1,3.4-0.1,7.9-3.5,9.3c-1.8-5-5.7-8.9-11.8-9.3
			c-1.7-0.1-2.1,2.2-0.8,3c7.2,4.5,9.6,11.4,5.2,19c-3.1,5.4-9.8,7.5-15.7,7.4c3.5-10.1,0.1-21.7-13.2-26.1
			c-2.6-0.9-4.2,3.1-1.9,4.4c11.6,6.4,12.4,20.7,1,27.9c-9.3,5.8-23.3,4.9-33.8,4.2c-22.9-1.5-44.8-15.7-66.7-19.8
			c-0.4-0.1-0.8-0.1-1.2,0c1.2-18.1,1.5-36.3,2.9-54.3c2.1-26.7,5.3-53.3,9.3-79.7c7.1-47.7,18.8-94,30-140.7
			c2.5,2.4,5.1,4.6,7.8,6.8c2.3,1.8,5.3,0.7,5.6-2.3c3.4-36,11.1-75.6,3.4-111.6c3,2.9,6.5,4.9,10.9,6.6c2.2,0.8,4.3-1.3,4.4-3.4
			c0.1-3.7,0.3-7.4,0.4-11.1c22.1,14.1,42.8,29.7,56.9,52.3c17.4,27.8,18.5,64.6,21.6,96.3c3,31.6,0.7,62.2-9.1,92.5
			c-9.8,30.4-28,55.1-41.9,83.3C1533.9,1590.7,1534.2,1591.8,1534.8,1592.6z"/>
		<g>
			<path fill="#FBB038" d="M1255,510.3c-7.1,0.1-14.2,0.4-21.2,0.9c14.8,58.3,33,115.6,54.7,171.7c19.7-39.4,37.7-79.6,54-120.5
				c-30.2-20.9-64-35.7-101.8-32.5c-1.3,0.1-1.9-1.6-1.3-2.5c-0.5-1-0.6-2.2,0.3-3.2C1244.4,519.2,1249.7,514.7,1255,510.3z"/>
			<path fill="#FBB038" d="M1164.8,506.6c-25.9,8.2-52.1,14.9-78,23c28.1,57.8,30.3,128.8,69.1,180.6
				c24.6-66.3,49.2-132.5,73.7-198.8c-25.6,2.1-50.8,6.9-75.6,14.4c-3.3,1-5.9-3.4-3.3-5.8C1155.5,515.7,1160.1,511.1,1164.8,506.6z
				"/>
			<path fill="#FBB038" d="M1049.8,669.2c15.1-43.6,23.4-89.4,24.7-135.5c-9.7,3.3-19.4,6.8-28.9,10.7c-18.1,7.5-35.9,16.1-53,25.9
				C1006.8,605.8,1026.1,639.2,1049.8,669.2z"/>
		</g>
		<path fill="#FBB038" d="M869.9,1076c-9.8-11.6-18.2-24.6-25-39.3c0.7-1,0-2.5-1.1-2.5c-2.5-5.7-4.9-11.5-6.9-17.7
			c0.1-0.1,0.1-0.1,0.2-0.2c1.7-2.6-2-5.2-4.2-3.2c-3.6,3.4-6.9,7-10.1,10.7c-3.5-9.7-6.2-19.4-8.5-29.1
			c49.7-22,103.8-34.1,158.2-35.2C928.7,988.3,898,1031.1,869.9,1076z M806.2,925.7c-0.7,1.1-1.6,2.2-2.4,3.2
			c2.2,18.7,4.4,36.7,7.9,54.4c22.8-26.9,45.6-53.9,68.4-80.8c-27.7-2.8-55.7-0.7-82.7,5.9c-1.7,7.3-3.2,14.8-4.5,22.3
			c3.1-3,6.4-5.8,10-8.2C805,921.2,807.5,923.8,806.2,925.7z"/>
		<g>
			<path fill="#FBB038" d="M1453.2,902.6c19,22.5,38.1,45,57.1,67.5c2.2-13.5,3.9-27.1,5.5-41.1c-0.8-1.1-1.6-2.1-2.4-3.2
				c-1.3-2,1.3-4.5,3.2-3.2c3.7,2.4,6.9,5.2,10,8.2c-1.5-8.6-3.2-17-5.2-25.3C1499,901.3,1475.9,900.3,1453.2,902.6z"/>
			<path fill="#FBB038" d="M1361,959.5c43.6,28.7,74.2,71.3,102.2,116c4.6-6.1,8.3-12.8,10.1-20.4c3.3-14.2,4.1-28.7,7.8-42.9
				c0.8-3,5.7-2.4,5.5,0.7c0.1,0.1,0.3,0.1,0.4,0.2c3.6,3.4,6.9,7,10.1,10.7c4.1-11.5,7.2-22.9,9.7-34.4
				C1460.5,970.7,1410.8,960.5,1361,959.5z"/>
		</g>
		<path fill="#FFC543" d="M1199.4,1129.4c-84.6-3.4-175.8-26.4-227.4-93.5c-1.6,7-3.2,14.1-4.8,21.1c-9.6-13.5-18.3-27.6-25.9-42.3
			c-1.7,0.9-4.5-0.7-3.7-2.9c0.3-0.8,0.7-1.6,1-2.4c-23.4-46.9-36.4-99-37.3-151.4c-7.9,1.5-14.9,7.3-17.7,14.9
			c5.4-58.7,19.4-116.7,41.3-171.5c-14.7,9.8-26.7,23.5-34.5,39.4c14.7-57.5,42.7-111.4,80.8-156.9c-6.2,4.2-12.2,8.5-18,13.1
			c0.5,0.3,0.9,0.6,1.4,1c0.3,0.2,0,0.7-0.3,0.5c-0.6-0.3-1.2-0.6-1.8-0.9c-8.2,6.4-16,13.3-23.4,20.6
			c-64.5,64.4-87.5,154.2-133.9,230.3c7.4-3,14.2-7,21-11.4c0.3-0.6,0.6-1.2,0.9-1.8c0.5-0.9,1.7-0.9,2.4-0.3
			c0.5-0.3,0.9-0.6,1.4-0.9c2.3-1.4,4.4,1.7,2.7,3.6c-1.9,2.1-4.1,4-6.3,5.8c-10.5,28.8-19.2,57.3-24.4,87.5c3.1-3,6.4-5.8,10-8.2
			c2-1.3,4.5,1.3,3.2,3.2c-0.7,1.1-1.6,2.2-2.4,3.2c3.9,32.9,7.7,63.7,18.9,94.8c3.2-3.7,6.5-7.4,10.1-10.7c2.2-2,5.9,0.6,4.2,3.2
			c-0.1,0.1-0.1,0.1-0.2,0.2c2,6.2,4.4,12,6.9,17.7c1.1,0,1.8,1.5,1.1,2.5c53,114.3,204.5,130.3,317.2,130.8
			c64.6,0.3,130.2-6,191.5-27.4c29.6-10.4,59.7-23.7,85.3-42.2C1361.6,1121.7,1280.2,1132.6,1199.4,1129.4z"/>
		<g>
			<path fill="#F79237" d="M869.9,1076c18.4-29.4,37.9-57.9,61.5-82.1c-4.3-9.8-8.2-19.7-11.6-29.8c-36.3,5.5-72,15.7-105.6,30.6
				c2.3,9.7,5,19.4,8.5,29.1c3.2-3.7,6.5-7.4,10.1-10.7c2.2-2,5.9,0.6,4.2,3.2c-0.1,0.1-0.1,0.1-0.2,0.2c2,6.2,4.4,12,6.9,17.7
				c1.1,0,1.8,1.5,1.1,2.5C851.7,1051.4,860.1,1064.4,869.9,1076z"/>
			<path fill="#F79237" d="M806.2,925.7c-0.7,1.1-1.6,2.2-2.4,3.2c2.2,18.7,4.4,36.7,7.9,54.4c22.8-26.9,45.6-53.9,68.4-80.8
				c-27.7-2.8-55.7-0.7-82.7,5.9c-1.7,7.3-3.2,14.8-4.5,22.3c3.1-3,6.4-5.8,10-8.2C805,921.2,807.5,923.8,806.2,925.7z"/>
		</g>
		<g>
			<path fill="#FFC543" d="M1460.4,544.9c-12,1.5-23.6,5.5-33.9,11.7c9.1-14.7,20-28.2,32.4-40.2c-0.8,0.2-1.6,0.4-2.4,0.7
				c-36.8,10.5-72.1,25.4-105.9,43.3c15,10.7,30,22.1,43.9,34.8c10.7-7.4,20.8-14.1,33.2-19.5c10.3-4.4,20.7-8.6,31.4-11.8
				C1459.1,557.4,1459.6,551.1,1460.4,544.9z"/>
			<path fill="#FFC543" d="M1534.5,713.9c-7-4.9-13.6-10.3-19.8-16.1c-9.3,17.9-19.8,35.1-30.3,51.3c-0.8,1.2-1.9,1.5-3,1.4
				c2.5,8.3,5,16.5,7.5,24.8c0.1-0.1,0.1-0.3,0.2-0.4c13.1-12.8,24.4-27.6,34.3-43C1527.2,726.2,1531,720.2,1534.5,713.9z"/>
		</g>
		<g>
			<path fill="#FFC543" d="M834.1,753.4c-0.9-0.1-1.8-0.4-2.4-1.4c-8.2-12.9-14.9-26.5-20.3-40.5c-3.2,1.1-6.4,2.1-9.6,3.1
				c-1.9,0.6-3.8,1.2-5.7,1.8c6,20.3,15,39.4,29.7,54.9C828.5,765.4,831.3,759.4,834.1,753.4z"/>
			<path fill="#FFC543" d="M946.3,592.1c15.1-12,31.1-22.6,47.9-32c-26.1-13.8-53.2-26-81.1-35.5c4.6,7.3,9.1,14.6,13.7,21.9
				c-14.8,0.2-29.6-0.5-44.3-2.2c3.7,6.5,6.3,13.6,8,20.9c10.5,3.5,20.8,7.5,30.8,12.1C930.5,581.7,938.3,586.7,946.3,592.1z"/>
		</g>
		<path fill="#F2663B" d="M1478.1,662.8c-9.3-17.7-9.4-38.6-9.2-58.6c-7.4,3.4-13.4,9.7-16.4,17.3c1.3-18.3,5.6-36.3,12.7-53.3
			c-23.9,6.8-48,16.1-69.9,27.6c13.5,12.4,26,25.7,36.3,40.5c21.5,30.7,35.1,65.7,46,101.3c0.7,2.4,1.4,4.8,2.2,7.3
			c10.3-15.9,20.9-33,30.2-50.8C1496.8,686.1,1485.2,676.3,1478.1,662.8z"/>
		<path fill="#F2663B" d="M928.9,606.8c5.1-4.7,10.4-9.2,15.8-13.5c-17.6-8.9-36.6-16.7-55.7-22.5c-2.8,22.5-8.8,44.7-17.8,65.5
			c-1.3-6.1-3.7-12-7.2-17.3c-8,32.8-24.7,63.4-47.7,88.1c5.3,14.2,12.1,27.9,20.2,40.9C860.8,696.4,886.8,645.7,928.9,606.8z"/>
		<path fill="#F79237" d="M665.9,1412.6c-41.7-3.4-83.9-17.4-113.8-46.6c3.3,11.3,4.2,23.4,2.4,35c-26.2-30.5-48.8-64.1-67.2-99.8
			c-2.9,5.8-5.9,11.6-8.8,17.3c-14.1-23.1-21-50.4-20-77.5c-8.1,9.4-12.2,22.2-11.1,34.6c2.7,32.8,26.1,63.7,47.6,87.4
			c20.1,22.1,43.1,41.4,68.8,56.6c50.8,30.1,107.9,45.1,166.9,43.4c1.1,0,1.9,0.4,2.6,0.9c-1.8-17.4-1.5-34.9,0.1-52.7
			C710.9,1413.4,688.4,1414.4,665.9,1412.6z"/>
		<path fill="#F79237" d="M1163.4,1547c-2.3-2.8-4.6-5.7-6.7-8.6c-13.7-19.2-22.7-41.3-30.8-63.4c-6.8-18.9-13.2-38.7-10.6-58.6
			c-8.4,7-17.3,16.2-15.8,27c-8.9-44.1-11-89.5-6.2-134.3c-9.2,7.4-18.3,14.7-27.5,22.1c3.2-26.9,11.1-53.1,23.3-77.3
			c-8.5,5.1-17,10.2-25.5,15.3c14.2-38.8,41.8-72.4,76.9-94.2c-50-1.2-101.7-5.1-149.9-18.8c-4.4,17.3-8.9,34.4-11.4,52.1
			c-2.4,17.1-5.4,36.3-2.3,53.7c4-2.7,8.1-5.4,12.2-7.9c0.1-0.1,0.2-0.2,0.3-0.2c0.4-0.2,0.8-0.5,1.2-0.7c1.7-1,3.7,1.5,2.1,2.8
			c-0.6,0.5-1.1,0.9-1.7,1.4c-4,19.6-6.9,38.4-6.7,58.3c4.5-3.5,9-6.9,14-9.8c2.5-1.5,5.2,2,3.1,4c-0.9,0.9-1.9,1.7-2.9,2.6
			c-3.7,18.6-6.9,36.6-6.9,55.6c3-2.3,6.1-4.6,9.3-6.6c0.1-0.3,0.2-0.5,0.4-0.8c0.4-0.9,1.4-0.7,1.9-0.1c1.8,0.1,3.1,2.5,1.6,4
			c-0.6,0.6-1.3,1.2-2,1.8c-3.5,21.7-2.3,41.4,7.7,61.2c3.4-3.8,6.6-7.8,9.5-12.1c1.3-1.9,4.8-0.7,3.9,1.6c-0.5,1.4-1.1,2.7-1.7,3.9
			c5.7,10.8,6.7,25.1,10.7,36.6c4.7,13.4,10.7,25.8,19.2,37c1.5-2.6,2.9-5.2,4.4-7.9c1-1.9,4.4-1.1,4.2,1.1c-0.1,1-0.3,2-0.5,3
			c6,7.7,12.4,14.8,19.6,20.8c1.3-0.3,2.9,0.4,3.1,2.3c0,0.1,0,0.1,0,0.2c6,4.6,12.4,8.5,19.7,11.4c-0.9-5.6,0.1-11,3.1-16.7
			c0.4-0.7,1-1.1,1.6-1.2c0.4-0.9,1.7-1.2,2.5-0.2C1119.7,1520.6,1143.3,1551.4,1163.4,1547z"/>
		<g>
			<path fill="#FFC543" d="M911.5,1356.3c-0.3-1.9-0.6-3.9-0.9-5.8C910.5,1352.4,910.7,1354.4,911.5,1356.3z"/>
			<path fill="#FFC543" d="M1077.6,1517.3c-7.5-6.3-13.8-13.9-18.5-22.7c-0.9,2.6-2.1,5-3.7,7.6c-1.1,1.8-4,2.5-5.4,0.7
				c-9.7-11.9-16.8-25.5-21.5-40.1c-3.5-10.9-8.7-24.4-9.3-36.7c-2,3.2-4.4,6.1-7.2,9.1c-1.4,1.5-3.9,1.1-5-0.6
				c-10.8-18.6-15.4-42.4-9.7-63.5c-2.2,1.8-4.4,3.6-6.7,5.4c-2.1,1.7-5.4,0.7-5.5-2.3c-0.5-18.9,1.2-39.1,7.5-57.3
				c-3.1,2.4-6.3,4.7-9.3,7.2c-2.2,1.7-5.4,0.7-5.5-2.3c-0.8-20.1,1.2-41.3,7.9-60.4c-3.1,2.5-6.3,5-9.6,7.4c-1.4,1-3.6,0-4-1.6
				c-4-17.9-1.2-37.7,1.4-55.6c2.8-19.1,6.7-38.4,13.3-56.5c-11.7-3.5-23.2-7.5-34.4-12.2c-23.5-10-46.2-23.5-65.7-40.4
				c-5.4,34-6.6,68.6-3.6,102.9c4.2-4.2,8.5-8.4,12.7-12.6c1.1,52.8,6,105.6,14.6,157.7c0.3-5.5,3.6-10.9,8.6-13
				c6.8,60.9,21.7,121,44.1,178.1c3.2-10.3,6.4-20.7,9.5-31c23.8,54.8,38.5,113.5,43.5,173.1c3.8-7.7,10.3-14.1,18.1-17.7
				c12,18.6,11.9,43.1,4.9,64.1c-3.3,9.9-7.9,19.2-13.2,28.2c3.2-0.8,6.3-2,9.3-3.6c20.9-11.1,33-32.8,37.4-55.5
				C1082.7,1622.2,1073.8,1568.8,1077.6,1517.3z"/>
		</g>
		<path fill="#FFC543" d="M1440.8,1363.5c2.2-53-0.8-106.1-8.8-158.5c7,6.7,14,13.4,21,20.1c-3.5-37.5-12-74.6-25.3-109.9
			c-19,11.5-39.5,20.9-60.1,28.6c-9.9,3.7-20,6.9-30.1,9.9c6.9,18.7,11.2,38.8,13.9,58.6c2.4,17.9,5.3,37.2,1.3,55
			c-0.4,1.6-2.6,2.6-4,1.6c-3.3-2.4-6.5-4.9-9.6-7.4c6.8,19.2,8.7,40.3,7.9,60.4c-0.1,3-3.3,4-5.5,2.3c-3.1-2.4-6.3-4.8-9.3-7.2
			c6.3,18.2,8.1,38.4,7.5,57.3c-0.1,3-3.3,4-5.5,2.3c-2.2-1.8-4.5-3.6-6.7-5.4c5.8,21.1,1.1,44.9-9.7,63.5c-1,1.7-3.5,2.1-5,0.6
			c-2.8-3-5.2-5.9-7.2-9.1c-0.6,12.2-5.6,26.1-9.3,36.7c-5.1,14.6-11.7,28.1-21.5,40.1c-1.4,1.8-4.4,1.1-5.4-0.7
			c-1.6-2.6-2.8-5.1-3.7-7.6c-4.6,8.8-11,16.4-18.5,22.7c1.9,25.7,0.8,52,0.9,77.8c0.1,25.7-1.9,52.9,3.9,78.1
			c5.4,23.5,18.3,50.5,43.5,57.9c7.2,2.1,15.1,3.2,22.6,2.4c-15.7-44.4-18.3-93.5-6.8-139.2c8.1,2.5,14.8,9,17.5,17
			c0.4-53.5,8.7-107,24.5-158.1c3.5,10.8,6.9,21.5,10.4,32.3c28.4-43,45.4-93.5,48.8-145C1422.2,1348.2,1431.5,1355.9,1440.8,1363.5
			z"/>
		<path fill="#FFC543" d="M880.5,1521.2c-7.3-47.6-18.8-93.9-30-140.7c-2.5,2.4-5.1,4.6-7.8,6.8c-2.3,1.8-5.3,0.7-5.6-2.3
			c-3.4-36-11.1-75.6-3.4-111.6c-3,2.9-6.5,4.9-10.9,6.6c-2.2,0.8-4.3-1.3-4.4-3.4c-0.1-3.7-0.3-7.4-0.4-11.2
			c-17.4,11.1-35,23.5-48.1,39.6c34,30,60.1,69,74.4,112c-8.7-3.5-17.5-7.1-26.2-10.6c19.8,43.3,30.3,90.9,30.6,138.5
			c-9.5-6-19.1-12.1-28.6-18.1c23.2,45.6,23.9,101.2,4.6,148.4c2.6-0.2,5.2-0.5,7.8-1c19.4-3.5,40.5-14.6,59.6-18.1
			c0.2,0,0.4,0,0.6,0c-1.4-19.9-1.7-40-3.4-59.8C887.3,1571.1,884.4,1546,880.5,1521.2z"/>
		<path fill="#FFC543" d="M1477.3,1648.8c-5.4-25.4-2.9-51.8,2.3-77.2c-6.8,1.4-12.5,6.8-14.6,13.3c8.4-36.3,20.8-71.6,37-105.2
			c-9.1,0.3-18,3.6-25.1,9.3c12-41.1,28-81.1,47.8-119.1c-8.1,1.4-16.2,2.8-24.3,4.2c15.6-25.8,31.1-51.7,46.7-77.5
			c-11.8-12.1-25.7-22-40.2-31.3c-0.1,3.7-0.3,7.4-0.4,11.1c-0.1,2.1-2.2,4.2-4.4,3.4c-4.4-1.7-7.9-3.7-10.9-6.6
			c7.7,36,0.1,75.6-3.4,111.6c-0.3,3-3.3,4.1-5.6,2.3c-2.7-2.2-5.3-4.4-7.8-6.8c-11.2,46.8-22.9,93.1-30,140.7
			c-4,26.5-7.2,53-9.3,79.7c-1.4,18-1.7,36.3-2.9,54.3c0.4-0.1,0.8-0.1,1.2,0c17,3.2,34.1,12.5,51.6,17.1
			C1481.7,1664.8,1479,1656.9,1477.3,1648.8z"/>
		<path fill="#F79237" d="M1076.1,1689.1c28,7.5,55.6,13.5,84.8,13c8.6-0.1,17.2-0.6,25.8-1.5c-6.9-3.6-13.5-7.9-19.2-13.3
			c-19.8-18.6-27.6-52-10.9-73.3c-12-1.5-24.6,4.8-30.5,15.4c15.2-25.4,34.3-53.4,63.6-57.3c-1.8,5.7-3.5,11.4-5.3,17
			c14.9-17.3,34.6-30.4,56.2-37.8c0.1-9.9,0.4-19.7,1.1-29.5c-7.4,5.3-15.5,9.7-23.9,13.2c-3.4,1.4-5.4-2.9-4.2-5.5
			c2.7-5.8,3.1-11.4,1.6-17.5c-8.8,20.7-33.5,36.1-53.4,44.2c-7.1,2.9-24.2-12.3-29.2-16.6c-9-7.7-16.8-16.5-22.7-26.7
			c-1.3,5.7-0.8,11,1.8,16.6c1.2,2.6-0.8,6.9-4.2,5.5c-8.4-3.5-16.5-7.9-23.9-13.2c2.4,35.2,0.9,71.3,0.7,106.5
			C1084,1649,1082.7,1669.9,1076.1,1689.1z"/>
		<path fill="#A55411" d="M1184,829.2c-2-5.8-5.8-7.7-11.8-8.1c-5.5-0.4-12-0.6-17,1.9c-1.6,0.8-1.7,3.6,0,4.4
			c4,1.9,8.7,1.5,12.9,2.5c4,0.9,7.2,2.7,11.1,4.1C1182,834.9,1184.9,831.9,1184,829.2z"/>
		<path fill="#A55411" d="M1147.2,821.7c-2.6-0.8-4.9-0.5-7.5,0c-2.3,0.4-2.3,4.2,0,4.6c2.7,0.5,4.9,0.8,7.5,0
			C1149.5,825.6,1149.5,822.3,1147.2,821.7z"/>
		<path fill="#854101" d="M1053.1,793.4c-10.3-42.5-94.3-39.7-92.8,8c0.1,4.7,7.1,7.3,9.4,2.5c7.2-15.4,20.3-24.2,37.4-24.3
			c6.4,0,15.5,4.1,21.2,7.1c6.4,3.3,8.5,10.6,14.9,14.2C1048.4,804,1054.5,799.2,1053.1,793.4z"/>
		<path fill="#854101" d="M1350.1,803.6c-3.7-22.8-30.7-38-52-38.6c-14.5-0.4-39.1,15-37.6,31.5c0.2,2.5,2.9,4.7,5.4,3.1
			c11.1-7.2,17.6-17.5,32.3-19.2c12-1.4,25.1,8.9,31.7,17.7c4.2,5.6,4.7,9.3,11.1,12.5C1346.1,813.3,1351,809,1350.1,803.6z"/>
		<path fill="#F47E5C" d="M1420.5,821.2c-1.8-10.7-13.3-14-22.7-14.1c-6.6,0-20.2,3.2-23.2,10.8c-3.5,2.3-5.7,5.5-5.9,9.8
			c-0.3,10,10.7,11.8,20.4,11.5c5.9,1.3,12.5,0.9,17.6-0.3c6.1-1.4,12.3-6.3,13.2-11.7C1420.6,825.5,1420.9,823.5,1420.5,821.2z"/>
		<path fill="#F47E5C" d="M963,821.2c-1.8-10.7-13.3-14-22.7-14.1c-6.6,0-20.2,3.2-23.2,10.8c-3.5,2.3-5.7,5.5-5.9,9.8
			c-0.3,10,10.7,11.8,20.4,11.5c5.9,1.3,12.5,0.9,17.6-0.3c6.1-1.4,12.3-6.3,13.2-11.7C963.1,825.5,963.4,823.5,963,821.2z"/>
		<path fill="#FFF78F" d="M1417,658.2c-1.1-5.9-5.1-10.9-10.2-14.7c-0.9-8.9-8.4-15.1-15.2-20.2c-8.4-6.5-20.3-17.1-31.4-17.6
			c-3.7-0.1-4.5,5.8-0.9,6.4c8.8,1.6,18.1,11.6,24.8,16.8c3.1,2.5,5.6,5.3,7.9,8.2c-1.4-0.2-2.9-0.4-4.3-0.4c-2.3,0-3,3.8-0.6,4.1
			c4.9,0.7,8.8,2.7,12.2,5.4c0.1,0.2,0.3,0.3,0.4,0.5c0.3,0.4,0.7,0.6,1.1,0.8c4,3.6,7.2,8.2,10.4,12.8
			C1413.4,663.5,1417.7,661.7,1417,658.2z"/>
		<path fill="#FFF78F" d="M1435.5,690.7c-2.2-5.9-8.7-8.7-13.9-11.6c-3.1-1.8-5.7,2.8-2.8,4.8c2.1,1.4,4.3,2.8,6.3,4.4
			c2,1.6,3.6,3.6,5.6,5.2C1432.7,695.1,1436.6,693.7,1435.5,690.7z"/>
		<path fill="#FFF78F" d="M1448.2,730.7c-1.6-7.4-5.8-13.3-10.4-19.1c-2.4-3.1-7.7,1-5.4,4.2c3.9,5.5,7.2,11.3,10.4,17.3
			C1444.4,736.1,1448.8,733.9,1448.2,730.7z"/>
		<path fill="#FFF78F" d="M1522.8,520.1c-1.7-0.1-3.2,0-4.8,0.2c0.4-0.8,0.5-1.8,0-2.9c-2.1-4.3-6.8-4.2-10.8-2.8
			c-5,1.8-10.1,4.1-14.8,6.5c-3.3,1.7-1,7.5,2.6,6.1c3.6-1.4,7.2-2.3,10.8-3.5c1.7-0.5,5.4-2.6,7.4-2.2c-3.7,1.4-7.2,3.6-10.6,6.2
			c-2.9,2.2-0.2,7.1,2.9,5c5.7-3.9,11.2-6.3,18-7.4C1526.6,524.8,1525.5,520.3,1522.8,520.1z"/>
		<path fill="#FFF78F" d="M834.4,511.3c-7.5-4-20-2.2-24.6,5.4c-1.4,2.2,1.5,3.9,3.3,2.6c5.8-4.6,14-1.2,20.6-2.2
			C836.3,516.6,836.6,512.5,834.4,511.3z"/>
		<path fill="#FFF78F" d="M844.1,521.9c-4.6-2-8.8-2.1-13.7-1.8c-3.4,0.2-3.4,5.1,0,5.3c3.9,0.2,7.9,0.4,11.8,1
			C844.7,526.7,846.9,523.1,844.1,521.9z"/>
		<path fill="#FFF78F" d="M774,1355c-7.4,9.8-17.7,21.6-13.6,35c1.1,3.6,6.3,3.7,7.3,0c1.5-5.3,1.5-10.9,3-16.3
			c1.7-5.8,5.4-10.5,8.3-15.8C781,1354.5,776.3,1352,774,1355z"/>
		<path fill="#FFF78F" d="M771.1,1388.5c-9.5,7-14.4,19-14.3,30.4c0,3.4,4.9,5,6.6,1.8c2.1-4.2,3.4-8.6,4.9-13
			c1.7-5.2,4.9-9.8,7.5-14.5C777.3,1390.4,774,1386.4,771.1,1388.5z"/>
		<path fill="#FFF78F" d="M760.5,1434.2c-1.5,7.3-3.1,14.6-0.9,21.9c1.1,3.7,6.7,3,6.7-0.9c0-6.4,0.4-12.7,1.5-19
			C768.5,1431.5,761.4,1429.4,760.5,1434.2z"/>
		<path fill="#FFF78F" d="M1566.6,1397.9c-1.2-3.3-7-4.3-7.7,0c-0.8,5.1,1.8,9.2,3.6,13.8c1.8,4.8,2.5,10.2,5.9,14.2
			c1.7,2,5.9,1.6,7-0.9C1579.5,1415.8,1569.6,1406.1,1566.6,1397.9z"/>
		<path fill="#FFF78F" d="M1564.7,1423.2c-3.5-2.4-7.7,3.1-4.5,5.9c1.9,1.7,2.2,3.6,2.2,6.1c0,2.8,0.4,5.7,0.9,8.4
			c0.6,3.4,6,3.2,6.7,0C1571.5,1436.1,1571.8,1428,1564.7,1423.2z"/>
		<path fill="#FFF78F" d="M1568.5,1456.8c-1.2-4.2-7.3-2.4-6.4,1.8c1,4.5,1.1,9.3,2.7,13.7c1.3,3.4,5.6,2.6,6.1-0.8
			C1571.5,1466.5,1569.8,1461.5,1568.5,1456.8z"/>
		<path fill="#FFF78F" d="M1489.8,1132.7c-0.2-2.2-3.3-2.8-3.9-0.5c-1.8,6.3,1.1,12.8,3,18.8c1,3.1,5.3,2.4,5.5-0.7
			C1494.9,1143.8,1490.4,1138.9,1489.8,1132.7z"/>
		<path fill="#FFF78F" d="M1486.1,1165.2c-0.1,2,0,3.7,0.4,5.7c0.5,2.5,4.4,2.5,5,0c0.4-2,0.5-3.7,0.4-5.7
			C1491.8,1161.4,1486.2,1161.4,1486.1,1165.2z"/>
		<path fill="#FFF78F" d="M848,1196.5c0.3-3.1-4.4-3.5-5.2-0.7c-1.2,4.2-2.3,8.5-3.8,12.6c-1.3,3.6-2.5,7.2,0.4,10.3
			c0.7,0.8,2.2,1.2,3.2,0.8c0.3-0.1,0.6-0.2,0.9-0.3c1.8-0.6,2.4-2.5,1.7-4C846.4,1209,847.4,1202.8,848,1196.5z"/>
		<path fill="#FFF78F" d="M849.7,1213.4c-5.4,6.3-5.9,14.7-4.6,22.6c0.6,3.4,5.2,2.1,5.5-0.7c0.7-6.3-0.3-13.1,3.2-18.7
			C855.3,1214,851.7,1211.1,849.7,1213.4z"/>
		<path fill="#FFF78F" d="M926.5,1596.4c-2.4-10.5-5.9-20.5-7.2-31.2c-0.4-3.3-5.3-3.5-5.3,0c0.2,15,4.8,29.8,4,44.8
			c-0.6-1.4-1.2-2.7-2-4.1c-2.4-4.2-8.1-0.5-6.3,3.7c3.2,7.2,2.4,15.5,3.4,23.2c0.5,3.5,6.2,5.2,6.9,0.9c1-6.6,1.1-13-0.5-19.1
			c1.6,0.9,4.2,0.6,5.3-1.2C928.3,1607.9,927.8,1602.5,926.5,1596.4z"/>
		<path fill="#FFF78F" d="M1410.6,1553.2c-7.5,10.3-18,23.2-15.5,36.8c0.6,3.2,6,4.2,7.4,1c2.2-5.3,3.6-10.9,5.7-16.3
			c2.3-6.1,5.9-11.9,9.3-17.5C1420.1,1552.7,1413.5,1549.1,1410.6,1553.2z"/>
		<path fill="#FFF78F" d="M1411.9,1584c-6.5,5-7.8,12.5-8.9,20.2c-0.5,3.2,3.6,6.9,6.2,3.6c2-2.5,3.7-5.1,4.5-8.2
			c0.8-2.9,1.5-6.5,3.4-8.9C1419.8,1587.2,1416,1580.8,1411.9,1584z"/>
		<path fill="#FFDC5D" d="M1326.9,1200.4c-2.9-5.2-6-10.4-9-15.6c0-0.5-0.3-1.1-0.8-1.5c0,0-0.1,0-0.1,0c-0.1-0.3-0.3-0.5-0.4-0.8
			c0,0-0.1,0.1-0.1,0.1c-1.7-2.4-5.8-2-5.8,1.5c0,5,2.4,9.8,4.5,14.3c2.8,5.9,4.9,11.8,7.3,17.8c1.4,3.5,7.2,4.5,8.1,0
			C1331.8,1210.4,1329.8,1205.6,1326.9,1200.4z"/>
		<path fill="#FFDC5D" d="M1323.1,1225.4c-0.5-2.5-2-4.9-3.3-7.1c-2.6-4.2-8.3-0.5-6.5,3.8c0.9,2.1,1.4,4.3,2.5,6.4
			c1.2,2.3,2.2,4.6,3.2,6.9c1.5,3.3,5.8,0.7,5.4-2.3C1324,1230.6,1323.6,1228,1323.1,1225.4z"/>
		<path fill="#FFDC5D" d="M1304.5,1324c-0.8-4.9-8.9-3.7-8.6,1.2c0.2,4.1,0.7,8.1,1.2,12.1c0.6,4.3,0.8,8.8,3.2,12.6
			c2,3.1,7,2.7,7.9-1C1310.2,1341.1,1305.8,1331.7,1304.5,1324z"/>
		<path fill="#FFDC5D" d="M1297.4,1349.5c-2-3.9-8.6-1.1-7.1,3c2.1,5.6,2.3,11.7,6.1,16.6c2,2.6,6.6,0.4,6.4-2.7
			C1302.4,1360.6,1300,1354.7,1297.4,1349.5z"/>
		<path fill="#FFDC5D" d="M1286.4,1410.4c-1.2-3.5-6.1-3.6-7.2,0c-0.8,2.6-0.6,5.4-0.8,8.1c-0.2,3.1-1,6.1-0.8,9.2
			c0.2,3.2,4.3,5.6,6.8,2.8c2.5-2.8,3.3-5.9,3.3-9.7C1287.6,1417.5,1287.5,1413.6,1286.4,1410.4z"/>
		<path fill="#FFDC5D" d="M1279,1432.7c-0.1-4.8-7.4-4.8-7.5,0c-0.1,3.6-0.6,7.4,0.7,10.8c1.1,3,5,3,6.1,0
			C1279.6,1440.1,1279.1,1436.3,1279,1432.7z"/>
		<path fill="#FFDC5D" d="M525.9,1275.9c-2.5-2.6-5.1-5.2-8-7.5c1.7-0.8,2.7-3.1,1.7-4.9c-2.3-4.1-6.9-6.7-10.6-9.4
			c-4.4-3.1-8.9-6.2-14.1-8c-2.7-0.9-5.2,3.1-2.9,4.9c4,3.2,8.2,6,12.2,9.2c1.5,1.3,3,2.7,4.6,4c-1.3,1.1-1.7,3.3,0.2,4.6
			c5,3.3,8.5,8.3,13.9,11C525.4,1281.2,527.9,1278,525.9,1275.9z"/>
		<path fill="#FFDC5D" d="M613.1,1347.6c-2.9-1.3-5.8-2.4-8.7-3.9c-0.8-0.4-1.6-0.5-2.3-0.3c-0.3-1.1-1-2.1-2.2-2.5
			c-2.7-1-5.6-4.3-7.9-6.1c-4.4-3.5-8.9-6.9-13.2-10.5c-3.1-2.6-7.4,1.5-4.5,4.5c4.4,4.5,9.1,8.6,13.4,13c3.5,3.6,6.7,6.5,12,5.4
			c0.1,0.8,0.6,1.6,1.5,2.1c3.6,2.4,6.6,4.7,11.2,3.9C614.9,1352.7,615.5,1348.6,613.1,1347.6z"/>
		<path fill="#FFDC5D" d="M1167.3,538.7c0.9-3-2.4-5.1-5-3.8c-2.1,1-4,3.1-5.7,4.8c-2.2,2.2-3.8,4.7-3.2,7.9
			c0.3,1.9,2.5,3.3,4.3,3.3c2,0,3.7-0.5,5.5-1.4c2.1-1,2.1-4,0.6-5.4c0.2-0.3,0.3-0.5,0.5-0.8
			C1165.5,541.7,1166.8,540.5,1167.3,538.7z"/>
	</g>
	<g>
		<path fill="#A7C7CA" d="M190.1,867.6c21.8,53.9,84.6,69.4,133.6,91c-4-10.7-8.1-21.4-12.3-32C272.3,904.2,233.3,881.2,190.1,867.6
			z"/>
		<path fill="#A7C7CA" d="M348.5,945.8c-4.1-14.8-8.4-29.5-13.4-44.1c-6.6-19.2-13.9-38.3-23-56.5c-8-16-16.8-38.9-35.3-44.7
			c6.7,18.1,8.8,38.4,14.8,56.9c5.8,17.9,12.5,35.4,19.4,52.9c13.3,33.7,27.4,67.8,34.1,103.6c4.3-2.4,9.5-3.9,12.5-4.8
			c2.7-0.9,4.9-1.5,6.8-1.8c-5.2-20.4-10.2-40.8-15.8-61.2C348.5,946,348.5,945.9,348.5,945.8z"/>
		<path fill="#F04942" d="M500.5,955.6c-22.6-5.5-52.8-1.1-66.5,19.6c0.6,1.3-0.3,3.2-2,2.5c0,0-0.1,0-0.1,0
			c-0.6,0.2-1.3-0.1-1.7-0.7c-9.1-3.8-17.9-8.8-27.3-11.7c-7.2-2.2-12.5,8.3-15,13c-1.2,2.3-1.9,4.1-2.2,5.7
			c1.7,0.9,1.7,3.3,0.5,4.3c1.1,2.3,3.6,4.2,7.3,6.6c8.2,5.2,17,8,25.6,12.3c0.5,0.2,1,0.5,1.4,0.7c0.4-0.1,0.8-0.1,1.3,0
			c12.2,3.9,23.3,10.4,34.1,17.2c10.2,6.4,20.7,15.4,32.3,19.1c24.5,7.7,52.8-10.3,52.6-37.3C540.8,983.1,524.1,961.3,500.5,955.6z
			 M512.7,1014.9c-13.5,13.7-35.9,13.9-51.4,2.6c-12.3-9-17.2-26-4.6-37.5c0.4-0.4,0.9-0.5,1.3-0.5c12.6-11.9,31-12.5,45.2-2.4
			C513.7,984.5,523.5,1004,512.7,1014.9z"/>
		<path fill="#A7C7CA" d="M355.9,950.4c2.1,8.3,4.1,16.7,6,25.1c0.5-0.2,1.1-0.3,1.7,0c5.5,2.1,10.9,4.2,16.4,6.3
			c0.4-1,0.8-2,1.3-3.1c2.2-4.4,4.5-9.6,7.6-13.7C377.7,960.6,366.7,955.7,355.9,950.4z"/>
		<path fill="#F04942" d="M345.2,1030.5c2.2,8.6,4.8,17.1,7,25.7c0.4,0.3,0.5,0.9,0.4,1.5c0,0.1,0,0.1,0,0.2
			c0.4,1.7-1.7,2.9-2.9,1.9c-45.5,21.1-35.9,110.6,19.5,110.5c26-0.1,49.1-24,40.5-50.5c-7.3-22.8-21.5-43.1-25.5-67
			c-0.1-0.4,0-0.9,0.1-1.2c-0.3-0.8-0.6-1.7-0.8-2.6c-2.2-10.1-4.8-20.1-9.9-29.2c-1.5-2.8-3.2-4.5-4.9-5.4c-1,0.6-2.3,0.4-2.8-0.9
			c-3.8-0.5-8.1,1.6-12.8,4C347.1,1020.2,343.2,1022.9,345.2,1030.5z M375.4,1144.6c-13.1,7.3-30.6-7.8-35.1-19.2
			c-5.9-14.9-2.1-31,10.2-41c0-0.5,0.1-0.9,0.6-1.3C383.9,1055.9,409.7,1125.4,375.4,1144.6z"/>
		<path fill="#922721" d="M350.4,1084.4c-12.3,9.9-16.1,26.1-10.2,41c4.6,11.4,22.1,26.5,35.1,19.2c34.3-19.2,8.5-88.7-24.3-61.6
			C350.6,1083.4,350.4,1083.9,350.4,1084.4z M353,1086.3c4.6-0.9,8.8-2.3,13.4-2.7c11-1,16.1,9.3,19.2,17.8
			c5.1,14.3,0.8,38.2-17.4,40.3c-12.6,1.5-23.1-13.8-26.1-23.7c-3.5-11.6,2.1-23.4,10-31.7C352.3,1086.4,352.7,1086.4,353,1086.3z"
			/>
		<path fill="#922721" d="M547.2,1000.1c-2-26.3-24.2-46.1-48.7-51.7c-21-4.8-58.6,1.5-67.3,24.7c-4.8-3.2-9.8-5.9-15-8.5
			c-3.9-2-11.1-6.8-15.8-6.5c-3,0.2-5.5,1.3-7.6,3c-13.2-5-26-10.8-38.6-17.1c-5.4-20.5-11.6-40.8-19.2-60.7
			c-7.4-19.5-16.5-38.3-27.1-56.3c-7.3-12.4-16-26.6-31.2-29.1c-0.5-0.1-0.8,0.1-1,0.4c-1-0.9-2.6-0.5-2.7,1.1
			c-1.2,16.8,5.6,35.3,10.4,51.2c5.9,19.3,13.2,38.2,20.7,57c1.5,3.8,3,7.6,4.5,11.4c-38.8-22.2-77.6-44.6-120.6-57.5
			c-1.8-0.5-3,0.9-3,2.3c-0.7,0.5-1.1,1.4-0.7,2.5c22.2,59.7,89.9,74.8,141.9,98.7c6,16.6,11.6,33.3,16.4,50.4
			c-2.9,2-4.9,4.6-4.8,7.7c0.6,11,5.4,23.2,10.4,33.4c-23.4,5.3-33.3,38-34,58.8c-0.9,27.6,18,52,44,59.7
			c22.6,6.7,50.1-7.3,57.6-29.9c4.6-13.8,1.8-26.9-4-39.9c-6.9-15.4-12.7-31.2-19.4-46.6c1.6,0.1,2.6-2.2,1-3.1
			c-6-3.4-6.5-15.3-8.2-21c-1.8-6-4.4-11.8-7.2-17.4c-3.1-6.2-5.6-9.1-9.2-9.8c-1.8-8.9-3.6-17.8-5.6-26.7
			c5.4,2.1,10.8,4.2,16.2,6.2c0.3,2.9,2.2,5.2,6.1,8.2c5.9,4.4,12,8.2,18.6,11.5c6.3,3.1,17,4.3,20,11.4c0.7,1.7,2.8,0.7,3.1-0.8
			c13.3,8.1,27.2,15.3,40.3,23.9c11.4,7.4,25.1,14.6,39.2,12.1C532.1,1048.4,549.2,1025.8,547.2,1000.1z M190.1,867.6
			c43.2,13.6,82.2,36.6,121.3,58.9c4.2,10.7,8.3,21.3,12.3,32C274.7,937.1,211.9,921.5,190.1,867.6z M368.7,1014.1
			c1.8,0.9,3.4,2.6,4.9,5.4c5,9.2,7.7,19.1,9.9,29.2c0.2,0.9,0.5,1.8,0.8,2.6c-0.1,0.4-0.2,0.8-0.1,1.2c4.1,23.9,18.2,44.2,25.5,67
			c8.6,26.6-14.5,50.5-40.5,50.5c-55.4,0.2-65-89.3-19.5-110.5c1.2,1.1,3.3-0.2,2.9-1.9c0-0.1,0-0.1,0-0.2c0.2-0.6,0.1-1.1-0.4-1.5
			c-2.1-8.6-4.8-17.1-7-25.7c-2-7.7,1.9-10.3,7.9-13.3c4.7-2.4,9-4.5,12.8-4C366.4,1014.5,367.7,1014.7,368.7,1014.1z M364.4,1007.2
			c-1.9,0.3-4.1,0.9-6.8,1.8c-2.9,1-8.1,2.5-12.5,4.8c-6.7-35.8-20.9-69.9-34.1-103.6c-6.9-17.5-13.5-35-19.4-52.9
			c-6-18.5-8.2-38.8-14.8-56.9c18.5,5.8,27.4,28.7,35.3,44.7c9.1,18.2,16.4,37.3,23,56.5c5,14.5,9.4,29.2,13.4,44.1
			c0,0.1,0.1,0.2,0.1,0.3C354.1,966.4,359.1,986.9,364.4,1007.2z M381.4,978.7c-0.6,1.1-1,2.2-1.3,3.1c-5.5-2.1-11-4.2-16.4-6.3
			c-0.7-0.3-1.3-0.2-1.7,0c-1.9-8.4-3.9-16.7-6-25.1c10.8,5.3,21.9,10.2,33.1,14.6C385.8,969.1,383.6,974.3,381.4,978.7z
			 M488.3,1044.4c-11.6-3.7-22.1-12.7-32.3-19.1c-10.8-6.8-21.9-13.3-34.1-17.2c-0.5-0.1-0.9-0.1-1.3,0c-0.4-0.2-0.9-0.5-1.4-0.7
			c-8.6-4.3-17.4-7.1-25.6-12.3c-3.7-2.4-6.2-4.3-7.3-6.6c1.2-1,1.2-3.3-0.5-4.3c0.3-1.6,1-3.5,2.2-5.7c2.5-4.7,7.7-15.2,15-13
			c9.4,2.9,18.2,7.9,27.3,11.7c0.3,0.6,1,0.9,1.7,0.7c0,0,0.1,0,0.1,0c1.7,0.7,2.5-1.2,2-2.5c13.7-20.7,43.9-25.1,66.5-19.6
			c23.5,5.7,40.2,27.5,40.4,51.4C541.1,1034.1,512.8,1052.1,488.3,1044.4z"/>
		<path fill="#922721" d="M503.4,977.1c-14.2-10.1-32.6-9.5-45.2,2.4c-0.5,0-1,0.1-1.3,0.5c-12.6,11.5-7.8,28.5,4.6,37.5
			c15.4,11.3,37.8,11.1,51.4-2.6C523.5,1004,513.7,984.5,503.4,977.1z M509.5,1011.6c-9.2,11.9-26.7,10.3-38.9,5.1
			c-7.8-3.4-14.7-9.2-15.4-18.5c-0.5-5.6,3.2-11.1,5-16.3c0.1-0.3,0.1-0.5,0.1-0.8c10.7-7.5,23.1-9.8,35.5-4
			C506.5,982.2,518.7,999.8,509.5,1011.6z"/>
		<path fill="#677E81" d="M343.5,947c-0.4-0.5-0.8-0.9-1.1-1.4c-3.8-4.5-11.1-0.7-11.1,4.6s7.3,9.1,11.1,4.6
			c0.4-0.5,0.8-0.9,1.1-1.4C345.2,951.4,345.2,949,343.5,947z"/>
	</g>
	<g>
		<path fill="#F26D77" d="M1081.9,157.5c4.8,0,9.6,0,14.2-0.1c19.6-0.4,39.5-0.2,59.2,1c2.5-12.9,4.6-28.7,1.4-41.7
			c-3.4-13.8-25.2-10.7-36.5-10.4c-13.4,0.3-37.7-2.1-38.2,17.3C1081.7,134.9,1082.2,146.2,1081.9,157.5z"/>
		<path fill="#A22C2A" d="M1035.3,175.5c0.1,0.3,0.3,0.5,0.5,0.6c8,52.3,3.5,105.2,8.9,157.7c2.4,23.5,7.6,47,17.3,68.7
			c3.4,7.5,10.1,9.8,17.7,10.5c14.2,1.4,29.4,0,43.7-0.2c14.4-0.2,28.9,0,43.3-1.3c6.7-0.6,13.7-4,17.7-9.5
			c12-16.4,9.2-40.4,10-59.5c2.2-58.8,6.7-117.5,10.5-176.2c0.1-2-1.8-2.5-3.2-1.8c-0.2-0.9-0.8-1.6-1.8-1.8
			c-12.9-1.9-25.9-3.2-38.9-4.1c2.6-14.2,5.8-33.6,0-47c-5.8-13.4-23.9-10.6-35.9-10.7c-13.7-0.1-31.8-2-43,7.5
			c-11.2,9.4-4.3,36.3-2.4,49c-10.9,0.1-22.1,0.5-32.2,2.7C1039.5,162,1032.1,166.6,1035.3,175.5z M1082,123.6
			c0.5-19.5,24.8-17,38.2-17.3c11.3-0.3,33.1-3.4,36.5,10.4c3.2,13,1.1,28.8-1.4,41.7c-19.7-1.1-39.5-1.3-59.2-1
			c-4.6,0.1-9.4,0.1-14.2,0.1C1082.2,146.2,1081.7,134.9,1082,123.6z M1120.7,161.8c26.3,0.6,52.2,3.5,78.3,6.3c0.4,0,0.8,0,1.1-0.2
			c-5.3,48.2-8.1,96.8-10.4,145.2c-1.1,22.9,0.2,46.8-3.5,69.5c-2.2,13.5-9.7,21.6-23.8,23.1c-12.9,1.3-26.1,1-39,1.3
			c-11.6,0.3-23.2,0.5-34.8,0.6c-11.5,0.1-20.2-3.3-24.8-14.9c-2.2-5.5-3.9-11.1-5.5-16.7c-6.6-22.2-9-45.6-10.5-68.7
			c-2.8-44.5-0.6-89.9-10.3-133.7c0,0-0.1,0-0.1-0.1C1038.6,157.3,1111,161.6,1120.7,161.8z"/>
		<path fill="#A22C2A" d="M1055.1,187c0.1-0.1,0.2-0.1,0.4-0.2c-2,49.8,0.8,99.5,7.2,148.9c2.2,17,3,36.5,11.7,51.7
			c8.8,15.3,28.9,12.3,43.6,11.7c11.2-0.4,22.4-1.3,33.6-2.3c6.7-0.6,12-2,16.6-6.9c5.3-5.6,6.2-16.5,7.6-23.6
			c2.2-10.8,3-21.9,3.8-32.9c3.5-50.8,5.1-102,6.4-152.9c0.1-2.4-3.5-2.3-3.7,0c-2.5,41.4-3.9,82.9-5.7,124.3
			c-0.8,20.2-1.4,40.4-4.9,60.3c-2.2,12.5-5,25.9-20.3,27.6c-11.2,1.3-22.4,1.8-33.6,2.3c-9.5,0.4-19.4,1.4-28.7-1
			c-10.5-2.6-14.2-14.9-16.4-23.9c-5.1-20.6-7.3-42.5-9.7-63.6c-4.7-40.2-6.2-80.6-5.9-121.1c8.1-4.7,16.9-4.5,26.2-4.6
			c11.4,0,22.8-0.2,34.3-0.3c21.2-0.2,42.4-0.6,63.6-0.9c2.5,0,2.5-4,0-3.9c-24.5,0.2-49,0.5-73.4,0.8c-15.9,0.2-41.9-4.4-54,8.8
			C1053.2,186.3,1054.2,187.7,1055.1,187z"/>
		<path fill="none" d="M1183.3,179.1c0.5,0.5,1,1.1,1.2,2.1C1184.3,180.3,1183.8,179.6,1183.3,179.1c-0.4,0.3-0.8,0.7-0.8,1.4
			c-2.5,41.4-3.9,82.9-5.7,124.3c-0.8,20.2-1.4,40.4-4.9,60.3c-2.2,12.5-5,25.9-20.3,27.6c-11.2,1.3-22.4,1.8-33.6,2.3
			c-9.5,0.4-19.4,1.4-28.7-1c-10.5-2.6-14.2-14.9-16.4-23.9c-5.1-20.6-7.3-42.5-9.7-63.6c-4.7-40.2-6.2-80.6-5.9-121.1
			c8.1-4.7,16.9-4.5,26.2-4.6c11.4,0,22.8-0.2,34.3-0.3c21.2-0.2,42.4-0.6,63.6-0.9c0.8,0,1.3-0.4,1.6-1c-0.7-0.6-1.3-0.8-1.3-0.8
			s0.6,0.2,1.3,0.8c0.6-1.2,0.1-3-1.6-2.9c-24.5,0.2-49,0.5-73.4,0.8c-15.9,0.2-41.9-4.4-54,8.8c-0.7,0.8,0.2,2.2,1.2,1.5
			c0.1-0.1,0.2-0.1,0.4-0.2c-2,49.8,0.8,99.5,7.2,148.9c2.2,17,3,36.5,11.7,51.7c8.8,15.3,28.9,12.3,43.6,11.7
			c11.2-0.4,22.4-1.3,33.6-2.3c6.7-0.6,12-2,16.6-6.9c5.3-5.6,6.2-16.5,7.6-23.6c2.2-10.8,3-21.9,3.8-32.9
			c3.5-50.8,5.1-102,6.4-152.9C1186.2,178.9,1184.4,178.4,1183.3,179.1z"/>
		<path fill="#F26D77" d="M1181.4,179.9c-21.2,0.3-42.4,0.7-63.6,0.9c-11.4,0.1-22.8,0.3-34.3,0.3c-9.3,0-18.1-0.1-26.2,4.6
			c-0.3,40.4,1.2,80.9,5.9,121.1c2.5,21.1,4.6,42.9,9.7,63.6c2.2,9,5.9,21.3,16.4,23.9c9.3,2.3,19.2,1.4,28.7,1
			c11.2-0.5,22.5-1,33.6-2.3c15.3-1.8,18.1-15.1,20.3-27.6c3.4-20,4-40.1,4.9-60.3c1.7-41.4,3.2-82.9,5.7-124.3
			c0-0.7,0.4-1.1,0.8-1.4c-0.1-0.1-0.2-0.2-0.2-0.2C1182.8,179.5,1182.2,179.9,1181.4,179.9z"/>
		<path fill="#C7EAFB" d="M1199,168.1c-26.1-2.8-52-5.7-78.3-6.3c-9.7-0.2-82.1-4.5-83.3,11.8c0,0,0.1,0,0.1,0.1
			c9.6,43.8,7.4,89.2,10.3,133.7c1.5,23.1,3.9,46.4,10.5,68.7c1.7,5.6,3.4,11.2,5.5,16.7c4.6,11.5,13.2,15,24.8,14.9
			c11.6-0.1,23.2-0.3,34.8-0.6c12.9-0.3,26.2,0,39-1.3c14-1.5,21.5-9.6,23.8-23.1c3.8-22.6,2.5-46.6,3.5-69.5
			c2.3-48.5,5.1-97,10.4-145.2C1199.8,168.1,1199.4,168.2,1199,168.1z M1179.7,333.4c-0.8,11-1.6,22.1-3.8,32.9
			c-1.4,7.1-2.3,18-7.6,23.6c-4.6,4.9-10,6.3-16.6,6.9c-11.2,1-22.4,1.9-33.6,2.3c-14.7,0.6-34.9,3.6-43.6-11.7
			c-8.7-15.2-9.5-34.7-11.7-51.7c-6.4-49.4-9.2-99.1-7.2-148.9c-0.1,0.1-0.2,0.1-0.4,0.2c-0.9,0.7-1.9-0.8-1.2-1.5
			c12.1-13.1,38.1-8.5,54-8.8c24.5-0.3,49-0.6,73.4-0.8c1.7,0,2.2,1.8,1.6,2.9c0.1,0.1,0.2,0.2,0.2,0.2c1.1-0.7,2.9-0.3,2.9,1.4
			C1184.8,231.5,1183.2,282.6,1179.7,333.4z"/>
		<path fill="#F0515A" d="M1094,292.6c-20.6-32.7-28.9-72.8-23.2-111c-4.7,0.5-9.2,1.6-13.5,4.1c-0.3,40.4,1.2,80.9,5.9,121.1
			c2.5,21.1,4.6,42.9,9.7,63.6c2.2,9,5.9,21.3,16.4,23.9c9.3,2.3,19.2,1.4,28.7,1c11.2-0.5,22.5-1,33.6-2.3
			c15.3-1.8,18.1-15.1,20.3-27.6c0.4-2.6,0.7-5.2,1.1-7.9C1140.8,344.8,1112.5,321.9,1094,292.6z"/>
		<path fill="#F69CA1" d="M1138.7,191.8c-6,0-6,9.4,0,9.4C1144.7,201.2,1144.7,191.8,1138.7,191.8z"/>
		<path fill="#F69CA1" d="M1161.2,203.1c-4.5,0-8.3,3.8-8.3,8.3s3.8,8.3,8.3,8.3s8.3-3.8,8.3-8.3S1165.7,203.1,1161.2,203.1z"/>
		<path fill="#F69CA1" d="M1164,246.3c-4.8-0.9-8,5.5-3.4,8.1C1166.4,257.9,1170.2,247.5,1164,246.3z"/>
		<path fill="#F0515A" d="M1128.9,157.4c-2.4-1.4-4.7-2.9-7-4.5c-14.6-10.6-25.2-26.4-29.9-43.8c-5.7,2.3-9.8,6.6-10,14.4
			c-0.3,11.3,0.2,22.6-0.1,33.9c4.8,0,9.6,0,14.2-0.1C1107,157.2,1117.9,157.2,1128.9,157.4z"/>
		<path fill="#F69CA1" d="M1135.2,115.6c-6.9-4.4-17.3-0.8-24.6,1.3c-2.3,0.6-1.9,3.5,0,4.3c3,1.2,6,0.3,9.1,0c4.7-0.4,9.3,0.1,14,0
			C1136.7,121.1,1137.7,117.1,1135.2,115.6z"/>
		<path fill="#F69CA1" d="M1151.8,116.5c-2.6-1.5-5.2-1.8-8.1-1.9c-4.5,0-4.5,7.2,0,7c2.2-0.1,4.4,0.2,6.7,0.2
			C1153.2,121.8,1154.3,117.9,1151.8,116.5z"/>
		<path fill="#97CEE7" d="M1174,376.5c-1.1,5.1-2.6,10.1-5.7,13.4c-4.6,4.9-10,6.3-16.6,6.9c-11.2,1-22.4,1.9-33.6,2.3
			c-14.7,0.6-34.9,3.6-43.6-11.7c-8.7-15.2-9.5-34.7-11.7-51.7c-6.4-49.4-9.2-99.1-7.2-148.9c-0.1,0.1-0.2,0.1-0.4,0.2
			c-0.9,0.7-1.9-0.8-1.2-1.5c4.1-4.5,9.9-6.8,16.3-8.1c0.8-5.3,1.9-10.6,3.2-15.8c-18.5,1.1-35.5,4.2-36,12c0,0,0.1,0,0.1,0.1
			c9.6,43.8,7.4,89.2,10.3,133.7c1.5,23.1,3.9,46.4,10.5,68.7c1.7,5.6,3.4,11.2,5.5,16.7c4.6,11.5,13.2,15,24.8,14.9
			c11.6-0.1,23.2-0.3,34.8-0.6c12.9-0.3,26.2,0,39-1.3c14-1.5,21.5-9.6,23.8-23.1c0-0.2,0.1-0.5,0.1-0.7
			C1182.1,380.3,1178.1,378.5,1174,376.5z"/>
	</g>
	<g>
		<path fill="#93D4D3" d="M1690.8,660.4c4.8,3.8,10.1,7.1,15.4,10c10.9,5.9,22.4,11,34.5,14.1c13,3.4,27,6.3,40.5,5.6
			c19.5-0.9,22.5-16.7,26.2-32.5c6-26.4,10.4-53.2,15-79.8c9.5-54.3,18.3-108.7,27.5-163c0-0.1,0.1-0.2,0.1-0.3
			c-18-6-35-13.9-53.8-17.9c-20.6-4.4-41.1-5.9-62-6.6c-3.6,11.9-4.8,24.1-6.4,36.5c-1.6,12.5-5,24.7-7.8,37
			c-6.1,26.8-11.9,53.7-17.3,80.7c-5.8,28.9-11.3,57.8-16.4,86.9C1684.7,641.5,1681.1,652.8,1690.8,660.4z"/>
		<path fill="#5EAFA3" d="M1842.6,352.5c2.6-9.8,6.4-21.8-3.3-29.4c-8.5-6.6-19-8.1-29.4-8.4c-10.3-0.3-27-1.8-30.5,10.9
			c-1.8,6.5-3.2,13.2-4.7,19.9c-2.9,13-6,25.9-9.8,38.7c22.4,1.3,45.7,6.1,66,14.9C1832.4,383.5,1838.6,367.6,1842.6,352.5z"/>
		<path fill="#0A5D4F" d="M1698.2,675.8c12.5,7.7,26.2,13.1,40.2,17.2c19,5.6,49.7,12.8,65.7-2.4c7.5-7.2,9.5-21.1,11.9-30.5
			c4.1-16.8,6.9-34,10-51.1c11.6-64.2,22.4-128.5,30.8-193.2c0.2-1.4-0.6-2.4-1.7-2.9c0,0-0.1-0.1-0.1-0.1
			c-5.9-4.3-12.4-8.1-19.3-11.5c4.6-10.2,6.5-21.8,9.3-32.5c2.7-10.4,6.2-20.8,7.2-31.5c1.7-18-19.3-27.2-33.8-28.5
			c-14.1-1.3-38.5-5.2-44.8,12c-7.1,19.5-9.8,42.4-12.2,63.3c-8.7-0.3-17.3-0.1-25.3,0.6c0-1.8-3-2.3-3.8-0.3
			c-0.1,0.3-0.2,0.6-0.3,0.8c-1.6,0.6-2.1,2.4-1.4,3.7c-4.2,12-5.8,24.4-7.8,37c-2.4,15.3-7.1,30.3-10.9,45.3
			c-8.2,33.1-15.8,66.4-22.6,99.8c-3.3,16-6.3,32.1-9.3,48.2c-2.2,11.9-7.2,26.1-2.6,37.9C1680.7,665.8,1690.8,671.2,1698.2,675.8z
			 M1774.7,345.5c1.5-6.6,2.8-13.3,4.7-19.9c3.5-12.6,20.2-11.1,30.5-10.9c10.5,0.3,21,1.7,29.4,8.4c9.7,7.6,5.9,19.5,3.3,29.4
			c-4,15-10.2,31-11.7,46.6c-20.2-8.8-43.6-13.6-66-14.9C1768.7,371.5,1771.8,358.5,1774.7,345.5z M1686.5,631.1
			c5-29,10.6-58,16.4-86.9c5.4-27,11.2-53.9,17.3-80.7c2.8-12.3,6.2-24.5,7.8-37c1.6-12.4,2.8-24.6,6.4-36.5
			c20.9,0.6,41.4,2.2,62,6.6c18.7,4,35.8,11.9,53.8,17.9c0,0.1-0.1,0.2-0.1,0.3c-9.2,54.3-18,108.7-27.5,163
			c-4.7,26.6-9,53.5-15,79.8c-3.6,15.9-6.7,31.6-26.2,32.5c-13.6,0.7-27.5-2.2-40.5-5.6c-12.1-3.2-23.5-8.2-34.5-14.1
			c-5.4-2.9-10.6-6.2-15.4-10C1681.1,652.8,1684.7,641.5,1686.5,631.1z"/>
		<path fill="#73CAC1" d="M1748.1,599.7c-9.7-37.3-7.6-76.4-7.6-114.9c0-31.6-0.9-64.9,10.1-94c-5.4-0.3-10.9-0.6-16.3-0.7
			c-3.6,11.9-4.8,24.1-6.4,36.5c-1.6,12.5-5,24.7-7.8,37c-6.1,26.8-11.9,53.7-17.3,80.7c-5.8,28.9-11.3,57.8-16.4,86.9
			c-1.8,10.4-5.4,21.7,4.3,29.3c4.8,3.8,10.1,7.1,15.4,10c10.9,5.9,22.4,11,34.5,14.1c13,3.4,27,6.3,40.5,5.6
			c11-0.5,16.7-5.7,20.3-13C1774.5,661,1756.2,630.8,1748.1,599.7z"/>
		<path fill="#329884" d="M1832.2,390.7c-11.4-6.4-21.7-14.3-29.7-24.6c-10.9-13.9-16.6-32.6-13.9-49.8c-4.3,1.5-7.8,4.3-9.2,9.3
			c-1.8,6.5-3.2,13.2-4.7,19.9c-2.9,13-6,25.9-9.8,38.7c22.4,1.3,45.7,6.1,66,14.9C1831.2,396.3,1831.7,393.5,1832.2,390.7z"/>
		<path fill="#93D4D3" d="M1832.9,329.8c-2.4-2.9-5.7-4.3-9.1-5.7c-3.5-1.4-7.2-2.8-11-3c-2.4-0.1-2.9,3.7-0.6,4.1
			c6.2,1.2,12.1,5.5,17.6,8.5C1832.5,335.2,1834.7,332,1832.9,329.8z"/>
		<path fill="#D1EEFC" d="M1835.1,433.6c-0.5-2.7-4.7-1.8-4.7,0.5c-4.2,12.7-5.8,26.9-9,40c-3,12.2-4.4,23.3-4.7,35.9
			c-0.1,3.9,6,4.8,6.8,0.9C1828.7,487.2,1839.6,457.8,1835.1,433.6z"/>
		<path fill="#D1EEFC" d="M1818.6,529.1c-0.2-4.3-6.5-4.3-6.7,0c-0.3,6.9-2.9,14.9-0.5,21.7c1.1,3,4.9,2.9,6,0
			C1819.9,544.2,1819,535.9,1818.6,529.1z"/>
	</g>
	<g>
		<path fill="#BCD868" d="M385.4,601.2c17.4,9.7,34.8,19.4,52.2,29.1c12.6,7,24.8,15.3,37.7,21.7c3.3,1.6,6.6,3.5,10.2,4.1
			c4.3,0.8,8.5-1,4.4-5c-3.5-3.4-7.5-6.2-11.7-8.8c-20.4-12.4-44.3-17.5-61.7-34.7c-0.7-0.7-0.7-1.5-0.4-2.2c-2-4-1.6-10,3.3-10.9
			c5.3-1,8.1,1.1,13,3.3c9.4,4.4,18.3,9.5,26.8,15.4c10.1,7,20.8,17.3,33,20.3c7.6,3.9,11.1,1.2,10.5-8.3c-2.2-1.9-4.6-3.4-7.3-4.6
			c-4.1-1.8-8.3-3.7-12.3-5.6c-9.5-4.6-18.9-9.4-28-14.7c-7-4.1-15.5-7.7-20.7-14.1c-6.3-7.7,5.4-10.3,10.4-9.2
			c16.1,3.7,29.1,13.1,43.1,21.2c5.1,3,10.3,6,15.9,8.1c2.3,0.9,4.6,1.7,6.9,2.3c4.4-5.2,3.8-8.5-1.7-9.8
			c-9.5-5.1-19.1-10-28.9-14.6c-14.1-6.6-29.5-11.9-37.9-25.8c-0.6-1-0.3-2,0.4-2.8c14.9-18.7,42.7,3.5,57.2,11.4
			c6.5,3.6,13.2,7,19.6,10.8c4,3.6,6.9,1.5,8.7-6.2c-1.4-0.8-2.8-1.5-4.2-2.3c-2.8-1.5-5.6-3-8.4-4.5c-13.9-7.6-28-15-41.8-22.7
			c-7.3-4-13.1-8.3-12.7-17.2c0.2-5.2,6.6-8.9,11.1-9.2c11.1-0.7,21.8,5.7,31.3,10.7c6.8,3.6,13.5,7.3,20.2,11
			c4.5,2.5,9.9,6.1,14.9,7.3c6.1,3,10.3,1,12.6-6c-10.4-9.7-23.7-13.3-36.2-19.2c-10.9-5.2-21.4-11.6-30.2-19.9
			c-4.2-4-10.2-9.3-6.5-15.7c3.8-6.5,12.4-5.7,18.4-3.6c11.8,4.1,22.6,9.8,32.8,16.9c5.4,3.8,10.9,8,16.9,10.7
			c4.1,2.2,8.5,3.4,13.2,3.8c3.2-2.5,6.4-5,9.6-7.5c-2.7-2.1-5.5-4-8.5-5.7c-11.9-6.8-24.7-11.7-36.7-18.2
			c-8.1-4.3-21.7-10.7-25.7-19.8c-2.5-5.6-4-17.7,4.7-19.6c12.2-2.7,25,7.5,35,13.2c8.7,5,17.2,10.2,25.5,15.8
			c5.7,3.9,28.6,20.5,31.9,3.6c2.7-13.7-32.8-21.7-42.2-26.4c-5.7-2.8-50.4-29.3-33.3-39.5c10.8-6.4,22.3,0.4,32,5.7
			c14.9,8.1,32.2,21.6,49,24.8c4.1,1.1,8.1,1.1,12.1-0.1c4-6.7,2.8-11.3-3.5-13.9c-3.1-1.8-6.2-3.5-9.5-5c-7.5-3.4-15-6.9-22.3-10.9
			c-7.4-4.1-14.8-8.4-21.8-13.2c-3.8-2.6-11-4.8-13.9-8.4c-4.1-5.2-5.5-16,0.6-20.7c8.6-6.6,18.9-2.9,28.1,1
			c16.4,6.9,29.4,17.6,44.7,26.3c4.9,2.8,12.5,7,18.4,4.7c11.8-4.7-4.2-15.3-6.9-16.8c-6.7-3.6-13.8-6-20.8-9
			c-11.5-4.9-59.2-25.5-43-44.4c-0.2-0.8,0.2-1.8,1.4-1.8c16.3-0.7,30.4,10.2,44,17.9c9.5,5.4,31.3,22.4,43,17.8
			c12.5-5-8.9-16.2-11.6-17.6c-4.9-2.4-9.8-4.8-14.6-7.5c-14.1-7.7-28.7-14.3-42.8-22c-12.2-6.6-28-17.9-42.5-16.8
			c-16.9,1.3-31.7,26.5-40,39.1c-20.7,31.2-38.1,64.7-56.1,97.5c-19.5,35.6-39.1,71.3-57.6,107.5
			C377.4,559.5,362.2,588.2,385.4,601.2z"/>
		<path fill="#44601C" d="M377.5,602c14.4,11.1,33.1,18.7,49,27.5c14.7,8.2,29.3,16.3,43.8,24.7c6.8,4,17.1,10.5,24.8,5.2
			c5.5-3.8,0.2-10.2-3-13.3c-19.8-19-49.4-21.4-70-39.1c0.2-0.8,0-1.7-1-2.2c2.1-1.5,4.1-3,6.2-4.5c2.2,1.2,4.5,2.3,6.8,3.3
			c4,1.9,7.8,4.1,11.6,6.4c7.6,4.5,14.8,9.7,21.9,14.9c9.9,7.2,23.7,16.8,36.9,14.1c8-1.7,8.3-7.6,3.7-14.1
			c-7.2-10-24.7-14.2-35.1-19.6c-8-4.2-15.8-8.7-23.6-13.4c-1.3-0.8-2.6-1.6-3.8-2.4c-4.6-1.2-5.3-3.9-2.1-8.1
			c3.6,0.6,7,1.8,10.4,3.1c14.8,5.3,27.5,15.9,41.4,23.1c5.2,2.7,20.1,10.6,25.6,5.1c6-6-0.5-12.1-5.7-15.3
			c-15.1-9.4-31.9-16.3-47.9-23.9c-3.1-1.5-23.3-12.2-19.6-16.8c8.1-10.1,24.6,0.8,32.5,5.2c8.6,4.7,17.2,9.4,25.7,14.1
			c5.4,3,11.3,7.5,17.2,9.4c5.7,1.9,12.7,0.7,12.8-7c0-11.5-14-14.7-22.5-19.3c-8.4-4.5-16.7-9.1-25.1-13.6
			c-4.2-2.3-8.4-4.5-12.5-6.8c-8.3-4.6-6.2-20,4.7-16.9c18.4,5.2,35.1,17.7,52.3,25.9c9,4.3,18.9,4.1,25.8-3.4
			c0.6-0.7,0.9-1.9,0.3-2.7c-14.7-19.9-42.8-23.7-62.3-37.6c-3-2.3-5.9-4.7-8.7-7.2c-6-5.4,0.4-13.7,7.5-11.5
			c8.8,2.7,17.2,7.1,25.1,11.9c11.6,6.9,21.5,15.8,34.9,18.9c4.8,1.1,16.9,0.8,19-5.5c2.7-8.3-5.2-11.8-11.4-15.6
			c-12.8-7.8-27.1-13-40.3-20.1c-3.6-1.9-7-4.2-10.3-6.5c-1.9-1.5-3.8-3-5.7-4.6c-7.3-5.4-6.3-11.5,2.9-18.4c8.4,1.1,18.6,9,26,13.2
			c13.1,7.4,25.2,16.7,38.6,23.7c5.1,2.6,16.6,6.3,21.3,0.7c15.6-18.5-9-26.3-23-32c-15.2-6.2-29.7-12.4-41.9-23.8
			c-3.3-3.1-17.4-17.1-1-17.2c9.7-0.1,19.6,7.4,27.8,12c16.8,9.4,47.4,33.2,65.7,14.8c0.5-0.5,0.9-1.4,0.6-2.1
			c-4.1-9.9-12-14.5-21.4-18.9c-14-6.5-27.5-13.3-40.5-21.7c-4.9-3.2-9.5-6.2-14.7-8.9c-9.2-4.8-2.3-17.1,5.5-17.6
			c3.9-0.3,9,2.1,12.7,3.4c17.7,6.4,31.8,17.6,47.7,27.2c8,4.8,17.1,6.9,25.8,3.2c5.6-2.4,5.8-10.2,2.3-14.3
			c-7.7-9.1-18.7-13.1-29.5-17.2c-8.6-3.3-59.5-24.5-45.3-40.6c30.7,2.3,52.5,37.1,83.7,37.6c5.4,0.1,12.2-4.9,10.8-11
			c-2-9-13.1-13.7-20.5-17.4c-26.1-13-51.3-28.4-77.9-40.3c-8.7-3.9-18.1-6.8-27.7-4.8c-11.8,2.5-21.9,17.8-28.6,26.5
			c-23.2,30.6-40.8,65.5-59.4,99c-19.7,35.7-39,71.7-57.8,108C378.7,545.9,354.2,584,377.5,602z M386.5,541.8
			c18.5-36.2,38.1-71.8,57.6-107.5c18-32.8,35.4-66.3,56.1-97.5c8.3-12.5,23.1-37.8,40-39.1c14.5-1.1,30.4,10.2,42.5,16.8
			c14.1,7.7,28.7,14.2,42.8,22c4.8,2.6,9.7,5,14.6,7.5c2.7,1.3,24.1,12.6,11.6,17.6c-11.7,4.6-33.5-12.4-43-17.8
			c-13.6-7.7-27.7-18.6-44-17.9c-1.1,0-1.5,1-1.4,1.8c-16.3,18.9,31.5,39.5,43,44.4c7,3,14.1,5.5,20.8,9c2.7,1.4,18.7,12.1,6.9,16.8
			c-5.9,2.4-13.5-1.9-18.4-4.7c-15.3-8.7-28.3-19.4-44.7-26.3c-9.2-3.9-19.5-7.6-28.1-1c-6.1,4.7-4.7,15.5-0.6,20.7
			c2.9,3.6,10.1,5.8,13.9,8.4c7,4.8,14.3,9.1,21.8,13.2c7.2,4,14.7,7.5,22.3,10.9c3.3,1.5,6.4,3.2,9.5,5c6.3,2.6,7.5,7.2,3.5,13.9
			c-4,1.2-8.1,1.2-12.1,0.1c-16.8-3.1-34.1-16.7-49-24.8c-9.7-5.3-21.2-12.2-32-5.7c-17.1,10.2,27.6,36.6,33.3,39.5
			c9.4,4.7,44.9,12.8,42.2,26.4c-3.3,16.9-26.3,0.3-31.9-3.6c-8.3-5.7-16.8-10.8-25.5-15.8c-10-5.7-22.8-16-35-13.2
			c-8.7,2-7.2,14-4.7,19.6c4,9.2,17.6,15.5,25.7,19.8c12.1,6.5,24.8,11.4,36.7,18.2c3,1.7,5.8,3.6,8.5,5.7c-3.2,2.5-6.4,5-9.6,7.5
			c-4.7-0.3-9.1-1.6-13.2-3.8c-6-2.7-11.5-6.9-16.9-10.7c-10.2-7.1-21.1-12.8-32.8-16.9c-6-2.1-14.5-2.9-18.4,3.6
			c-3.8,6.4,2.3,11.7,6.5,15.7c8.8,8.3,19.3,14.7,30.2,19.9c12.5,5.9,25.8,9.5,36.2,19.2c-2.3,7-6.5,9-12.6,6
			c-5-1.2-10.4-4.8-14.9-7.3c-6.7-3.7-13.4-7.4-20.2-11c-9.5-5-20.2-11.4-31.3-10.7c-4.6,0.3-10.9,4-11.1,9.2
			c-0.4,8.9,5.4,13.2,12.7,17.2c13.9,7.7,27.9,15.1,41.8,22.7c2.8,1.5,5.6,3,8.4,4.5c1.4,0.8,2.8,1.5,4.2,2.3
			c-1.8,7.7-4.7,9.8-8.7,6.2c-6.4-3.8-13.1-7.2-19.6-10.8c-14.5-7.9-42.3-30.1-57.2-11.4c-0.7,0.8-0.9,1.8-0.4,2.8
			c8.4,14,23.7,19.3,37.9,25.8c9.8,4.6,19.4,9.5,28.9,14.6c5.5,1.3,6,4.5,1.7,9.8c-2.3-0.6-4.6-1.4-6.9-2.3
			c-5.6-2-10.8-5.1-15.9-8.1c-14.1-8.2-27-17.6-43.1-21.2c-5-1.1-16.6,1.5-10.4,9.2c5.2,6.4,13.7,10,20.7,14.1
			c9.1,5.3,18.5,10.1,28,14.7c4.1,2,8.2,3.8,12.3,5.6c2.6,1.2,5.1,2.7,7.3,4.6c0.6,9.5-2.9,12.2-10.5,8.3c-12.2-2.9-23-13.3-33-20.3
			c-8.5-5.9-17.4-11.1-26.8-15.4c-4.8-2.3-7.7-4.3-13-3.3c-4.9,0.9-5.3,6.9-3.3,10.9c-0.3,0.7-0.3,1.5,0.4,2.2
			c17.4,17.1,41.3,22.3,61.7,34.7c4.2,2.5,8.1,5.4,11.7,8.8c4.1,4,0,5.8-4.4,5c-3.6-0.7-7-2.5-10.2-4.1
			c-12.9-6.3-25.1-14.7-37.7-21.7c-17.4-9.7-34.8-19.4-52.2-29.1C362.2,588.2,377.4,559.5,386.5,541.8z"/>
		<path fill="#92BA45" d="M498.1,622.1c-0.9-0.5-1.7-1-2.6-1.4c-4.1-1.8-8.3-3.7-12.3-5.6c-9.5-4.6-18.9-9.4-28-14.7
			c-7-4.1-15.5-7.7-20.7-14.1c-6.3-7.7,5.4-10.3,10.4-9.2c16.1,3.7,29.1,13.1,43.1,21.2c2.3,1.3,4.7,2.7,7,4
			c-0.6-3.9-1.2-7.7-1.8-11.6c-4.3-2.2-8.6-4.3-13-6.3c-14.1-6.6-29.5-11.9-37.9-25.8c-0.6-1-0.3-2,0.4-2.8
			c11.7-14.7,31.3-4.1,46.2,4.9c-0.5-3.6-0.9-7.3-1.4-10.9c-4.6-2.5-9.2-5-13.8-7.5c-7.3-4-13.1-8.3-12.7-17.2
			c0.2-5.2,6.6-8.9,11.1-9.2c4.1-0.3,8.1,0.5,12.1,1.7c-0.5-6.5-1-13.1-1.3-19.6c-3.9-3.7-7.8-8.4-4.6-13.9c1-1.8,2.4-2.9,4-3.8
			c-0.4-19.5,0.4-38.9,2.7-58.3c5-41.3,17.7-82.4,40.1-117.1c-10.4,8.7-19.2,23.4-24.9,32c-20.7,31.2-38.1,64.7-56.1,97.5
			c-19.5,35.6-39.1,71.3-57.6,107.5c-9.1,17.8-24.3,46.4-1,59.4c17.4,9.7,34.8,19.4,52.2,29.1c12.6,7,24.8,15.3,37.7,21.7
			c3.3,1.6,6.6,3.5,10.2,4.1c4.3,0.8,8.5-1,4.4-5c-3.5-3.4-7.5-6.2-11.7-8.8c-20.4-12.4-44.3-17.5-61.7-34.7
			c-0.7-0.7-0.7-1.5-0.4-2.2c-2-4-1.6-10,3.3-10.9c5.3-1,8.1,1.1,13,3.3c9.4,4.4,18.3,9.5,26.8,15.4c10.1,7,20.8,17.3,33,20.3
			c3.6,1.9,6.3,2.2,8,1C499.5,630.5,498.8,626.3,498.1,622.1z"/>
	</g>
	<g>
		<path fill="#FEE0CF" d="M1965,1157c-7,7.5-14.2,14.9-22,21.6c-3.9,3.4-12.5,13.1-18.1,14.9c-0.9-0.3-1.9-0.2-2.5,0.6
			c-0.2,0.2-0.3,0.5-0.5,0.7c-0.3,0.5-0.5,1-0.5,1.5c-4.9-1.4-9.8-2.9-14.6-4.7c-72-26.8-119.5-86.1-164.1-145.7
			c-0.1-0.1-0.2-0.2-0.3-0.3c0.2-0.3,0.3-0.7,0.2-1c9.8-10.1,17.2-23.1,25-34.7c8.1-12.2,16.1-24.4,24-36.7
			c13.7-21.5,28.3-43.1,39.7-66c0.4,0.4,0.9,0.8,1.3,1.1c0.9,0.8,2,0.5,2.5-0.3c2.4,0.2,4.9,0.5,7.3,0.8
			c65.7,4,131.6,27.3,177.7,75.9c5.7,6,11.3,12.5,16.8,19.4c-7.7,37.3-17.1,72.7-37,105.9C1989.8,1126.7,1978.3,1142.6,1965,1157z"
			/>
		<path fill="#CE5AA1" d="M1929,1198.4c3.3-1.7,6.4-4.9,8.7-6.7c8.5-6.8,16.7-13.9,24.3-21.7c15-15.3,28.5-32.1,39.7-50.4
			c19.9-32.6,36.2-71.7,39.1-110.5c29,38.2,51.2,87.7,38.7,133.9c-9.4,34.9-43.3,52.5-77.1,58.2
			C1978,1205.3,1953,1204.1,1929,1198.4z"/>
		<path fill="#CE5AA1" d="M1738.4,1043c-0.1,0.1-0.1,0.2-0.1,0.4c-6.2,1.9-26.4-9.3-31.5-11.2c-8-3-16-5.7-24.1-8.3
			c26.9-57.1,60.6-110.1,102.2-157.6c14.8,12.5,29.1,25.8,43.7,38.6c-16.9,23.2-31.3,48.5-47.1,72.5
			C1767.4,998.7,1749.2,1019.9,1738.4,1043z"/>
		<path fill="#CE5AA1" d="M1833.6,1383c-18.4-5.8-57.3-22.3-51.6-46.8c4.7-20.5,17.1-39.6,24.6-59.3c14.2-37.4,25.9-76.6,30.9-116.4
			c39.7,29.8,89.3,51.1,139.4,49.5c-24.9,29.6-49.9,60.5-66.8,95.6c-8.3,17.2-14.2,34.7-18.2,53.4c-3.5,16-8.8,29.1-28,28.6
			C1853.6,1387.3,1843.3,1386.1,1833.6,1383z"/>
		<path fill="#712958" d="M1886.2,1387.6c14.6-13.9,14-39.1,20.5-57.1c16.1-44.6,45.1-82,73.3-119.5c0.2-0.3,0.3-0.7,0.3-1
			c7.5-0.4,15-1.3,22.5-2.8c25-5,55.9-15.4,71.3-37.3c14.1-20,16.9-47.9,13.1-71.6c-5.9-36.8-22.6-70.7-46.1-99.5
			c-0.1-0.5-0.4-0.9-0.9-1.1c-49.6-60.1-129.2-98.1-205.3-94.9c-0.8,0-1.4,0.5-1.8,1c-15.3-15.1-31.4-29.5-46.4-45
			c-1.3-1.4-3.7-0.8-4.8,0.4c-43.8,49.1-80.7,104.8-107.1,165.2c-1,2.2,0.4,4.2,2.5,4.8c14.8,4.5,28.9,10.6,43.5,15.6
			c5.9,2,13.1,6.2,18.6,3.3c24.7,40.1,55.1,78.5,92.3,107.9c-0.1,0.2-0.2,0.3-0.2,0.5c-10.4,51.4-23.3,101.5-44.9,149.6
			c-6.4,14.2-19.3,36.6-6.3,51.2c12.6,14.2,30.3,24.9,48.5,30.5C1843.9,1392.5,1872.7,1400.4,1886.2,1387.6z M1781.5,977.4
			c-14.1,21.3-32.3,42.5-43.1,65.7c-0.1,0.1-0.1,0.2-0.1,0.4c-6.2,1.9-26.4-9.3-31.5-11.2c-8-3-16-5.7-24.1-8.3
			c26.9-57.1,60.6-110.1,102.2-157.6c14.8,12.5,29.1,25.8,43.7,38.6C1811.8,928.2,1797.3,953.4,1781.5,977.4z M2036.8,1004.1
			c-7.7,37.3-17.1,72.7-37,105.9c-10,16.8-21.5,32.7-34.8,47c-7,7.5-14.2,14.9-22,21.6c-3.9,3.4-12.5,13.1-18.1,14.9
			c-0.9-0.3-1.9-0.2-2.5,0.6c-0.2,0.2-0.3,0.5-0.5,0.7c-0.3,0.5-0.5,1-0.5,1.5c-4.9-1.4-9.8-2.9-14.6-4.7
			c-72-26.8-119.5-86.1-164.1-145.7c-0.1-0.1-0.2-0.2-0.3-0.3c0.2-0.3,0.3-0.7,0.2-1c9.8-10.1,17.2-23.1,25-34.7
			c8.1-12.2,16.1-24.4,24-36.7c13.7-21.5,28.3-43.1,39.7-66c0.4,0.4,0.9,0.8,1.3,1.1c0.9,0.8,2,0.5,2.5-0.3c2.4,0.2,4.9,0.5,7.3,0.8
			c65.7,4,131.6,27.3,177.7,75.9C2025.7,990.7,2031.3,997.2,2036.8,1004.1z M1929,1198.4c3.3-1.7,6.4-4.9,8.7-6.7
			c8.5-6.8,16.7-13.9,24.3-21.7c15-15.3,28.5-32.1,39.7-50.4c19.9-32.6,36.2-71.7,39.1-110.5c29,38.2,51.2,87.7,38.7,133.9
			c-9.4,34.9-43.3,52.5-77.1,58.2C1978,1205.3,1953,1204.1,1929,1198.4z M1863.8,1387.6c-10.2-0.3-20.5-1.5-30.2-4.6
			c-18.4-5.8-57.3-22.3-51.6-46.8c4.7-20.5,17.1-39.6,24.6-59.3c14.2-37.4,25.9-76.6,30.9-116.4c39.7,29.8,89.3,51.1,139.4,49.5
			c-24.9,29.6-49.9,60.5-66.8,95.6c-8.3,17.2-14.2,34.7-18.2,53.4C1888.4,1375,1883,1388.1,1863.8,1387.6z"/>
		<path fill="#B44D8D" d="M1780,979.6c-13.8,20.6-31.2,41.1-41.6,63.5c-0.1,0.1-0.1,0.2-0.1,0.4c-6.2,1.9-26.4-9.3-31.5-11.2
			c-8-3-16-5.7-24.1-8.3c9.9-21.1,20.8-41.6,32.6-61.5C1735.5,972.4,1757.6,978.3,1780,979.6z"/>
		<path fill="#B44D8D" d="M2023.1,1144.9c18.9,0.9,37.8,0,56.5-2.6c-0.1,0.2-0.1,0.4-0.1,0.6c-9.4,34.9-43.3,52.5-77.1,58.2
			c-24.4,4.1-49.4,2.9-73.4-2.8c3.3-1.7,6.4-4.9,8.7-6.7c8.5-6.8,16.7-13.9,24.3-21.7c9.2-9.3,17.7-19.3,25.5-29.7
			C1999.1,1142.9,2011.2,1144.3,2023.1,1144.9z"/>
		<path fill="#B44D8D" d="M1976.8,1210c-16.7,19.9-33.3,40.3-47.6,62.2c-18.9-13.4-37.9-27-53.6-44c-16.2-17.6-28.5-38.2-39.4-59.6
			c0.4-2.7,0.8-5.4,1.2-8.1C1877.1,1190.3,1926.7,1211.6,1976.8,1210z"/>
		<path fill="#FBC4AD" d="M1864.8,1066.3c35.8,28.7,73.5,58.4,117.7,69.5c-5.5,7.3-11.3,14.4-17.5,21.2c-7,7.5-14.2,14.9-22,21.6
			c-3.9,3.4-12.5,13.1-18.1,14.9c-0.9-0.3-1.9-0.2-2.5,0.6c-0.2,0.2-0.3,0.5-0.5,0.7c-0.3,0.5-0.5,1-0.5,1.5
			c-4.9-1.4-9.8-2.9-14.6-4.7c-72-26.8-119.5-86.1-164.1-145.7c-0.1-0.1-0.2-0.2-0.3-0.3c0.2-0.3,0.3-0.7,0.2-1
			c9.8-10.1,17.2-23.1,25-34.7c4.4-6.7,8.9-13.4,13.2-20.1C1805.3,1018.4,1835.2,1042.6,1864.8,1066.3z"/>
		<path fill="#EB78AF" d="M1790.9,899c-3,7.3-7.9,13.7-12.4,20.1c-4.6,6.6-9.3,12.8-15.6,17.8c-4.5,3.5-9.8-2.1-8-6.7
			c3-7.4,8.2-13.5,13.4-19.6c5.1-5.9,9.9-12.1,15.7-17.3C1787.7,889.9,1792.5,895.1,1790.9,899z"/>
		<path fill="#EB78AF" d="M1745.9,946c3.3-1.4,5.7,3.6,2.8,5.5c-1.5,1-2.1,2.5-3,4.1c-1,2.1-2.3,3.4-4.6,4.1c-2.6,0.8-5.3-1.8-4-4.4
			C1739.1,951.5,1742,947.7,1745.9,946z"/>
		<path fill="#EB78AF" d="M2057.8,1069.8c5.9,6.4,8.9,13.4,10.4,22c0.7,4.2,0.5,8.5,0.2,12.7c-0.3,4.3-2.5,10.1-1.7,14.2
			c0.5,3-4.2,4.7-5.7,2c-2.6-4.8-2.1-11.3-2.7-16.7c-1.1-10.2-4.7-19.4-7.8-29.2C2049.3,1070.9,2054.6,1066.3,2057.8,1069.8z"/>
		<path fill="#EB78AF" d="M2049.3,1054c2.5,1.2,3.6,3.7,5.1,6c2.3,3.7-2.9,7.4-5.6,3.9c-1.6-2.1-3.6-4.1-3.8-6.8
			C2044.8,1054.8,2047.3,1053.1,2049.3,1054z"/>
		<path fill="#EB78AF" d="M1844.8,1223.7c-1.5,13.4-7.3,26.8-11.4,39.7c-4.4,14-9.3,27.1-16.1,40.2c-2.5,4.9-10.5,2.7-9.3-3
			c2.9-14.4,7-27.7,12.1-41.4c4.9-13.1,9.2-27.3,17.3-38.9C1840.2,1216.6,1845.3,1219.9,1844.8,1223.7z"/>
		<path fill="#FFFFFF" d="M1888.5,932.6c21.3-0.1,39,10.2,57.3,20.2c21.8,12,42.3,25.2,57.9,45c2.4,3-2.1,6.9-4.9,4.5
			c-32.4-28.9-73.6-40.7-112.5-57.7C1880.7,942.1,1882.1,932.7,1888.5,932.6z"/>
		<path fill="#FFFFFF" d="M1843,927.5c3.6-1.2,7-0.2,10.6,0.6c3.6,0.8,7.4,1.4,10.6,3.2c2.9,1.6,2,5.4-1.1,6
			c-3.3,0.6-6.7,0.6-10.1,0.7c-3.9,0.2-8.5,0-11.5-2.9C1839.3,932.8,1839.5,928.6,1843,927.5z"/>
	</g>
	<path fill="#CCE6F7" d="M701.6,1262.2c-0.9-3.3-3.7-6.3-7.1-7.1c-0.7-0.2-1.4-0.3-2.1-0.5c-2-0.5-4-0.5-6,0
		c-2.7,0.7-5.4,2.6-6.7,5.2c0,0.1-0.1,0.1-0.1,0.2c-1.4,2.7-2,5.7-1.1,8.7c1,3.8,4.1,6.8,7.9,7.9c2.9,0.8,6.1,0.4,8.7-1.1
		c1.1-0.7,2.2-1.6,3-2.6c0.3-0.3,0.6-0.5,1-0.8c1.3-1.3,2.1-2.8,2.6-4.5C702.1,1265.8,702.1,1264,701.6,1262.2z"/>
	<path fill="#CCE6F7" d="M658.9,1154.7c-5.6-5.6-13.2-8.7-21.1-8.7s-15.5,3.2-21.1,8.7c-5.6,5.6-8.7,13.2-8.7,21.1
		c0,7.9,3.2,15.5,8.7,21.1c5.6,5.6,13.2,8.7,21.1,8.7s15.5-3.2,21.1-8.7c5.6-5.6,8.7-13.2,8.7-21.1
		C667.6,1167.9,664.4,1160.3,658.9,1154.7z"/>
	<path fill="#CCE6F7" d="M696.3,841.1c-1.3-4.7-5.1-8.6-9.8-9.8c-1.2-0.3-2.4-0.6-3.6-0.9c-4.1-1.1-8.6,0-11.6,3.1
		c-3,3-4.1,7.5-3.1,11.6c0.3,1.2,0.6,2.4,0.9,3.6c1.2,4.7,5.1,8.5,9.8,9.8c4.8,1.3,10.1-0.1,13.7-3.6
		C696.3,851.2,697.7,845.9,696.3,841.1z"/>
	<path fill="#CCE6F7" d="M363.7,678.2c-4-4-9.4-6.2-15-6.2s-11.1,2.3-15,6.2c-4,4-6.2,9.4-6.2,15s2.3,11.1,6.2,15
		c4,4,9.4,6.2,15,6.2s11.1-2.3,15-6.2c4-4,6.2-9.4,6.2-15S367.6,682.2,363.7,678.2z"/>
	<path fill="#CCE6F7" d="M853.8,390.2c-9,0-16.6,7.6-16.6,16.6c0,9,7.6,16.6,16.6,16.6c9,0,16.6-7.6,16.6-16.6
		C870.4,397.7,862.8,390.2,853.8,390.2z"/>
	<path fill="#CCE6F7" d="M868.8,137.3c-17.7,0-32.4,14.7-32.4,32.4c0,17.7,14.7,32.4,32.4,32.4c17.7,0,32.4-14.7,32.4-32.4
		C901.2,152.1,886.5,137.3,868.8,137.3z"/>
	<path fill="#CCE6F7" d="M556.4,120.3c-1.8-1.8-4-3.1-6.5-3.8c-2.6-0.7-5.3-0.7-7.9,0c-1.5,0.6-3,1.1-4.4,2
		c-4.3,2.6-7.1,7.2-7.1,12.3c0,5.1,2.7,9.7,7.1,12.3c1.4,0.8,2.9,1.4,4.4,2c1.3,0.2,2.6,0.4,3.9,0.5c2.7,0,5.2-0.7,7.5-2
		c4.5-2.6,7.3-7.6,7.3-12.8C560.7,126.9,559.2,123.1,556.4,120.3z"/>
	<path fill="#CCE6F7" d="M223.7,180.6c-8.8,0-16.2,7.4-16.2,16.2c0,8.8,7.4,16.2,16.2,16.2c8.8,0,16.2-7.4,16.2-16.2
		C239.9,187.9,232.6,180.6,223.7,180.6z"/>
	<path fill="#CCE6F7" d="M1396.7,435.7c-1.1-4-3.7-7.1-7.1-9.2c-0.4-0.3-0.9-0.5-1.3-0.8c-3.8-2.4-9.2-2.4-13,0
		c-0.4,0.3-0.9,0.5-1.3,0.8c-2.3,1.4-4.2,3.2-5.5,5.5c-2.1,3.6-2.7,7.9-1.6,11.9c1.8,6.6,8,11.3,14.9,11.3c6.9,0,13.1-4.7,14.9-11.3
		C1397.5,441.2,1397.5,438.4,1396.7,435.7z"/>
	<path fill="#CCE6F7" d="M1537.9,310.9c-16.3,0-29.9,13.6-29.9,29.9c0,16.3,13.6,29.9,29.9,29.9c16.3,0,29.9-13.6,29.9-29.9
		C1567.7,324.5,1554.1,310.9,1537.9,310.9z"/>
	<path fill="#CCE6F7" d="M1466.1,100.9c-0.5-0.1-1-0.3-1.4-0.4c-1.9-1.6-4.1-2.9-6.5-3.5c-8.6-2.4-17.8,2.8-20.2,11.5
		c-2.4,8.6,2.8,17.8,11.5,20.2c4.2,1.2,8.9,0.6,12.6-1.7c0.9-0.5,1.7-1.1,2.6-1.9c0.5-0.1,1-0.3,1.4-0.4c5.3-1.6,9-6.3,9-11.9
		S1471.4,102.5,1466.1,100.9z"/>
	<path fill="#CCE6F7" d="M1935.8,129.1c-2.8-10.2-12.3-17.4-22.9-17.4c-10.6,0-20.1,7.2-22.9,17.4c-1.1,4.2-1.1,8.4,0,12.6
		c1.7,6.1,5.6,10.9,10.9,14.2c0.1,0,0.1,0.1,0.2,0.1c6.9,4.3,16.7,4.3,23.6,0c0.1,0,0.1-0.1,0.2-0.1c3.6-2.1,6.4-5,8.5-8.5
		C1936.6,141.9,1937.5,135.2,1935.8,129.1z"/>
	<path fill="#CCE6F7" d="M2047.9,636.6c-8.8,0-16.2,7.4-16.2,16.2s7.4,16.2,16.2,16.2c8.8,0,16.2-7.4,16.2-16.2
		S2056.7,636.6,2047.9,636.6z"/>
	<path fill="#CCE6F7" d="M1648.9,813.9c-15.2,0-27.9,12.7-27.9,27.9c0,15.2,12.7,27.9,27.9,27.9c15.2,0,27.9-12.7,27.9-27.9
		C1676.8,826.6,1664.1,813.9,1648.9,813.9z"/>
	<path fill="#CCE6F7" d="M1648.2,1244.1c-0.1-0.4-0.2-0.7-0.4-1.1c-0.7-2.4-1.9-4.6-3.7-6.4c-2.7-2.7-6.4-4.2-10.2-4.2
		c-2.6,0-5,0.7-7.3,2c-1,0.8-2,1.5-2.9,2.3c-1.8,1.8-3,3.9-3.7,6.4c-0.1,0.3-0.3,0.7-0.4,1.1c-1,3.9-0.5,7.9,1.5,11.4
		c2.6,4.5,7.6,7.3,12.8,7.3c3.9,0,7.7-1.6,10.5-4.3C1648.1,1254.7,1649.5,1249.2,1648.2,1244.1z"/>
	<path fill="#CCE6F7" d="M1854.8,1504.9c0-3.6-0.9-6.9-2.7-10.1c-3.3-5.7-10.4-10.4-17.2-9.9c-6.5,0.5-9.4,1.5-15.3,4.1
		c-3.3,1.5-6.4,4.1-8.8,6.8c-3.2,3.2-5.4,7-6.6,11.3c-1.2,4.5-1.2,9.1,0,13.6c2.4,8.6,9.3,15.5,17.9,17.9c8.8,2.4,18.4-0.1,24.9-6.6
		c5.5-5.5,8.8-14.5,7.3-22.4C1854.6,1508.1,1854.8,1506.5,1854.8,1504.9z"/>
	<path fill="#CCE6F7" d="M2204.1,1195.7c-3.2-3.2-7.6-5-12.2-5c-3.1,0-6,0.8-8.7,2.3c-2.6,1.5-4.6,3.6-6.2,6.2
		c-0.2,0.4-0.4,0.8-0.6,1.3c-1.3,2.8-2,4.2-2,7.4s0.7,4.6,2,7.4c0.1,0.2,0.2,0.5,0.3,0.7c0.7,1.6,1.2,2.3,2.9,4
		c3.2,3.2,7.6,5,12.2,5c4.5,0,8.9-1.8,12.2-5s5-7.6,5-12.2S2207.3,1198.9,2204.1,1195.7z"/>
	<path fill="#CCE6F7" d="M236.3,1277.2c-0.1-1.8-0.4-3.5-0.8-5.2c-0.6-2.4-1.8-4.6-3.3-6.5c-4.5-6.5-12-10.6-20-10.6
		c-8.5,0-16.6,4.6-20.9,12c-5.3,9.1-4.1,22,3.8,29.3c0.1,0.1,0.2,0.2,0.3,0.3c3,3,6.5,5,10.6,6.2c4.2,1.1,8.5,1.1,12.7,0
		c6.2-1.7,11.3-5.9,14.3-11.2c0,0.1,0,0.1,0,0.2l0.2-0.3c2.2-3.8,3.3-7.8,3.3-12.2C236.3,1278.5,236.3,1277.8,236.3,1277.2z"/>
	<path fill="#CCE6F7" d="M415.3,1451.3c-3.1-3.1-7.3-4.8-11.6-4.8c-3,0-5.7,0.8-8.3,2.2c-2.5,1.5-4.4,3.4-5.9,5.9
		c-0.2,0.4-0.4,0.8-0.6,1.3c-1.2,2.7-1.9,4-1.9,7s0.7,4.3,1.9,7c0.1,0.2,0.2,0.5,0.3,0.7c0.7,1.5,1.1,2.2,2.8,3.9
		c3.1,3.1,7.3,4.8,11.6,4.8c4.3,0,8.5-1.7,11.6-4.8c3.1-3.1,4.8-7.3,4.8-11.6S418.4,1454.4,415.3,1451.3z"/>
	<path fill="#CCE6F7" d="M374.9,1636.5c-4-6.8-13.4-11.5-21.2-8.6c-0.7,0.3-1.5,0.5-2.2,0.8c-6.2-1.2-12.7-0.1-18.3,3.2
		c-12.6,7.4-17,24-9.6,36.6c6.1,10.3,18.6,15.5,30.2,12.3c6.7-1.8,12.5-6.3,16-12.3c1.9-3.2,3.2-7.1,3.6-11.1c0.5-0.7,1-1.3,1.5-2
		C378.8,1650.2,378,1641.7,374.9,1636.5z"/>
	<path fill="#CCE6F7" d="M2116.9,1587.6c-15.4,0-28.3,12.9-28.3,28.3s12.9,28.3,28.3,28.3s28.3-12.9,28.3-28.3
		S2132.4,1587.6,2116.9,1587.6z"/>
</g>
</svg>
