<?xml version="1.0" encoding="utf-8"?>
<!-- Generator: Adobe Illustrator 18.0.0, SVG Export Plug-In . SVG Version: 6.00 Build 0)  -->
<!DOCTYPE svg PUBLIC "-//W3C//DTD SVG 1.1//EN" "http://www.w3.org/Graphics/SVG/1.1/DTD/svg11.dtd">
<svg version="1.1" xmlns="http://www.w3.org/2000/svg" xmlns:xlink="http://www.w3.org/1999/xlink" x="0px" y="0px"
	 viewBox="0 0 2272 1872" enable-background="new 0 0 2272 1872" xml:space="preserve">
<g id="Background">
	<rect fill="#D9EBC9" width="2272" height="1872"/>
</g>
<g id="Object">
	<circle fill="#F1F7E4" cx="1145" cy="227" r="184"/>
	<circle fill="#F1F7E4" cx="425" cy="547" r="184"/>
	<circle fill="#F1F7E4" cx="384.9" cy="1276.2" r="184"/>
	<circle fill="#F1F7E4" cx="1840.9" cy="680.2" r="184"/>
	<circle fill="#F1F7E4" cx="1872.9" cy="1284.2" r="184"/>
	<ellipse fill="#BAD7AA" cx="1153.8" cy="1650.4" rx="504.1" ry="120"/>
	<g>
		<path fill="#E2E3D1" d="M1373.1,1143.2c-2.4-12.7-8.9-27.2-9.4-40.3c-51.5,33-111.8,52.4-173.8,54.8
			c-69.9,2.7-148.6-13.6-212.9-50.1c-1.6,11.8-7,24.3-9,35.6c-2.6,14.6-4.1,29.1-4.8,43.8c3.7-3.1,7.6-5.8,12.2-7.8
			c0-0.2,0-0.3,0.1-0.5c0.1-1,1.4-1,2-0.4c2-0.2,3.5,2.8,1.8,4.2c-0.2,0.2-0.4,0.3-0.6,0.5c2.2,11,2.2,22.5,3,33.6
			c0.9,11.7,1.6,23.3,2.4,35c3.5-3.1,6.9-6.3,10.7-9c1.9-1.4,4.3,0.9,3.8,2.9c1.1,0.2,2.1,1,2.1,2.3c-1.1,22.9-1.9,44.4,1.6,66.8
			c4.5-4.5,9-9,14.1-12.8c2-1.5,4.7,0.9,4.3,3c0.2,0.2,0.4,0.5,0.4,0.9c0,0.2,0,0.4,0,0.6c-0.1,0.9-1,1.3-1.8,0.8c0,0,0,0,0,0
			c3.8,3.3,4.5,22.6,6,28c1.8,6.6,3.8,13.1,6.4,19.5c5.1,12.2,11.5,23.4,19.1,34.1c4.9-5,9.9-10,15.6-14.1c2.3-1.6,5.4,1.6,3.8,3.8
			c0,0-0.1,0.1-0.1,0.1c0.1,0.2,0.2,0.4,0.2,0.6c0,0.2,0,0.4,0.1,0.6c0.1,0.9-1.1,1.9-2,1.5c3.9,1.6,5.5,16.7,6.6,20.5
			c2.2,7.5,4,17.7,13.3,9.5c9-7.9,17-17.2,23.2-27.5c1.7-2.9,5.7-0.4,4.4,2.5c-0.9,2-1.9,3.9-2.9,5.9c5.9,12.4,13.4,24,22.4,34.4
			c6.3,7.3,26.5,36.1,38.3,26.1c20-16.9,34.4-37.5,46.4-60.6c0.8-1.6,2.6-1.8,4-1.1c0.7-0.2,1.6,0,2,0.8c4.1,7.1,7.6,14.4,11,21.8
			c11.7-14,23.1-29.3,36.4-41.6c1.4-1.3,3.7,0.4,2.7,2.1c-0.2,0.3-0.4,0.6-0.5,0.9c5.5,4,10.4,8.8,15.2,13.7
			c8.4-11.7,15.7-24.4,20.6-38c2.3-6.4,4.4-12.9,5.9-19.6c1.1-4.7,1.7-21.3,5-24.1c0,0,0,0,0,0c-0.7,0.6-1.7,0.2-1.8-0.8
			c0-0.2,0-0.4,0-0.6c0-0.3,0.1-0.6,0.4-0.9c-0.5-2.1,2.3-4.5,4.3-3c5.1,3.8,9.6,8.3,14.1,12.8c3.6-22.5,2.7-43.9,1.6-66.8
			c-0.1-1.4,0.9-2.2,2.1-2.3c-0.5-2,1.9-4.3,3.8-2.9c3.8,2.8,7.2,6,10.7,9c0.8-11.7,1.5-23.4,2.4-35c0.8-11.1,0.8-22.6,3-33.6
			c-0.2-0.2-0.4-0.3-0.6-0.5c-1.7-1.4-0.2-4.4,1.8-4.2c0.6-0.7,1.9-0.7,2,0.4c0,0.2,0,0.3,0.1,0.5c4.5,2,8.5,4.7,12.2,7.8
			C1377.2,1172.3,1375.9,1157.7,1373.1,1143.2z"/>
		<path fill="#C9B395" d="M818.8,888.2c0.7,37.9,5.6,73.9,19,109.3c6.1-9.9,13.2-19.1,21.9-27.1c2.7-2.5,6.1,1.2,3.9,3.9
			c-0.2,0.2-0.4,0.5-0.6,0.7c0.1,0.1,0.2,0.2,0.2,0.3c17,43.1,46.4,76.8,82.4,102.8c-4-6.6-7.7-13.4-11.6-19.8
			c-5.7-9.2-11-18.1-12.8-28.4c-1.2,1.8-2.6,3.6-4.1,5.4c-1.3,1.5-3.9,0.7-4.4-1.2c-7.1-30.8-10.8-67.1-1.9-98.1
			c-4.6,4.3-8.6,8.2-11.7,14c-1,1.9-3.7,0.9-3.9-1c-1.7-28,3.1-56.6,16.2-81.6c-4.6,2.3-9.4,4.2-14,6.3c-1.7,0.7-3.4-0.5-3-2.3
			c3.1-15.4,12.4-30.7,26.3-38.7c-4.6-0.1-9.3-0.2-14,0.1c-2.5,0.2-3.5-3.6-1.3-4.8c34.5-17.7,80.5-34,116.4-13
			c-2.8-3.5-5.2-7.4-7.2-11.7c-1-2.1,0.6-4.6,3-3.9c36.8,9.5,73.6,22.6,111.6,25.8c-8.7-7.3-12.9-17.2-5.1-29.6
			c6.5-10.3,20.2-12.8,31.2-14.3c14.8-2.1,30.5-3.4,45.3-0.7c11.8,2.1,21.8,5.5,26.2,17.4c3.3,8.8-6.2,20.3-12.7,26.2
			c37.4-3.4,73.5-15.7,109.8-24.6c2.4-0.6,4,1.8,3,3.9c-2,4.1-4.3,7.8-7.1,11.1c35.9-20.3,81.8-4.5,116.4,12.6
			c2.3,1.1,1.2,5-1.3,4.8c-4.6-0.3-9.1-0.2-13.7-0.1c13.5,7.6,22.9,22.2,26,37.2c0.4,1.9-1.4,3-3,2.3c-4.6-2-9.4-3.9-14-6.1
			c13,23.9,17.9,51.5,16.2,78.4c-0.1,2-2.8,2.9-3.9,1c-3.1-5.5-7.1-9.4-11.7-13.4c8.7,29.9,5.1,64.8-1.9,94.4
			c-0.4,1.8-3.1,2.6-4.4,1.2c-1.5-1.7-2.8-3.4-4.1-5.2c-1.8,10.1-7.3,18.7-13,27.7c-3.8,5.9-7.4,12.2-11.2,18.2
			c18.9-16.3,36.2-34.6,50.8-54.8c17-23.6,29.1-49,41.1-75.3c1.6-3.6,7.2-1,6.2,2.6c-0.1,0.3-0.2,0.7-0.3,1
			c9.2,7.7,15.8,18,21.5,28.6c3-21.1,0.2-42.4-2.8-63.6c-0.5-3.6,4.8-5.3,5.6-1.6c0.2,0.9,0.4,1.9,0.6,2.8
			c5.8,4.7,11.5,9.5,17.2,14.3c0.3-27.6-1.9-56.3-6.3-84.4c-11.5-40.1-16.8-81.7-31.5-121c-14.5-38.6-35.4-74.9-60.9-107.3
			c-24.7-31.3-53-59.4-83.7-84.8c-32.3-26.6-68.4-55.3-111.1-61c-1.3,0.8-2.5,1.7-3.8,2.5c-2.5,1.6-4.8-1.9-3-3.9
			c3.2-3.7,7.1-6.7,11.2-9.2c-31.8-4.7-62.3-1.6-93.7,6.5c-3.2,0.8-4.8-3.4-2.2-5.2c6.5-4.2,12.7-8.9,19-13.4
			c-53.2,13.1-105.2,32.1-153.1,58.9c-50.2,28-89.6,68-122.6,114.8c-59.9,85-94.7,185.8-99.4,289.6c5.7-7.5,12.2-14.1,20-19.8
			c0,0,0.1-0.1,0.1-0.1c0.8-0.5,1.5-1.1,2.3-1.6c2.5-1.7,5.4,2.2,3.2,4.2C820.1,886.9,819.5,887.6,818.8,888.2z"/>
		<path fill="#4C4033" d="M1191.2,786.3c-15.8-0.7-41.1-2-54.6,7.7c-24.2,17.4,6.7,32.6,23.1,39c13.1,1.7,26.2,1.3,38.3-5.6
			c7.1-4.1,14-9.2,18.4-16.2C1229,791.3,1202.9,786.8,1191.2,786.3z"/>
		<path fill="#E2E3D1" d="M1400.9,1050.8c7.2-11.3,15.9-22.6,15.8-36.6c0-2.3,3.1-3.1,4.3-1.2c1.3,2.1,2.7,4.1,4.1,6
			c3.3-14.7,5.5-29.6,5.7-44.6c0.2-15.5-2-30.6-2.8-46c-0.1-1.2,1.7-1.4,2.1-0.3c0,0.1,0,0.1,0.1,0.2c0.5-0.5,1.3-0.8,2-0.4
			c4.4,2.3,7.7,5.3,10.4,9c0.7-25.8-5.3-49.8-16-73.5c-0.1-0.1,0-0.2,0-0.3c-0.7-0.4-1.4-0.7-2-1.1c-1.6-0.9-0.5-3.6,1.3-3
			c5.7,1.7,11.1,4.2,16.5,6.7c-4.2-14.8-13.8-25.2-26.5-34.1c-0.2,0-0.3,0-0.5,0c-1.7,0-2.1-2.5-0.4-3c3.1-0.8,6.2-1.3,9.3-1.6
			c-17-7.7-34.5-15.2-53.3-16.9c-22.4-2-40.7,3.9-60.9,13c-0.2,0.1-0.3,0.1-0.5,0c-0.3,0.2-0.6,0.4-0.9,0.6c-1.8,1-3.9-1.5-2.3-2.9
			c5.3-4.6,9.7-9.2,13.2-14.9c-17.8,4.7-35.7,9.1-53.6,13.5c-18.3,4.5-37.1,9.3-56.1,8c-10.2,7.7-23.1,13.1-36,13.8
			c0.3,17.4,0.2,43.2,18.5,52.2c13.4,6.6,28.7,1.7,37.6-9.7c2.1-2.7,6.2,0.7,4.6,3.6c-3.7,6.8-9.9,11.9-17,14.8c0,0.1,0,0.2,0,0.2
			c-3.6,12.6,0.3,28.7-11.2,38.2c-9.1,7.5-21.2,13.9-33.3,14.2c-11.2,0.2-24.8-3.1-30.9-13.6c-6.1-10.5-10.8-25.5-9-38
			c-7.2-1.8-13.1-6.6-14.7-15.8c-0.7-4.1,4.8-5.7,6.2-1.7c3.8,11.1,16.8,11.2,25.9,7.7c9.4-3.6,11.6-10.8,13.1-19.9
			c1.7-10.7,2.8-21.4,4.2-32.1c-6.1-0.4-12.1-2-17.7-5c-0.2-0.1-0.3-0.2-0.4-0.3c-5.8-1.9-11.7-4.5-16.8-7.9
			c-0.2,0.3-0.6,0.5-1.1,0.5c-19.1,1.4-38-3.6-56.3-8.4c-17.9-4.7-35.9-9.3-53.8-14.1c3.4,6,8,10.8,13.4,15.7c1.6,1.5-0.5,4-2.3,2.9
			c-0.3-0.2-0.5-0.4-0.8-0.6c-0.2,0-0.4,0-0.6,0c-19.5-9.2-38.8-16.6-60.9-13.6c-19.1,2.6-36.3,9.7-53.5,17.7
			c3.2,0.3,6.3,0.8,9.5,1.6c1.7,0.5,1.3,3-0.4,3c-0.2,0-0.3,0-0.5,0c-12.9,9.3-22.4,20.3-26.5,35.5c5.4-2.5,10.9-5.1,16.5-7
			c1.8-0.6,2.8,2.1,1.3,3c-0.7,0.4-1.4,0.7-2,1.1c0,0.1,0,0.2,0,0.4c-10.8,24.7-16.8,49.6-16,76.3c2.7-3.8,6-7.1,10.4-9.3
			c0.7-0.4,1.5-0.1,2,0.4c0-0.1,0-0.2,0.1-0.2c0.3-1.1,2.1-0.9,2.1,0.3c-0.8,16.8-3.4,33.3-2.7,50.2c0.6,14.9,2.6,29.5,5.7,44.1
			c1.5-2,2.8-4,4.1-6.3c1.2-2,4.3-1.1,4.3,1.2c0,23.2,19.5,42.8,31.1,63c18.3,12.1,38,22.3,58.5,31c62.5,26.5,132.1,38.6,199.8,30.5
			c61.5-7.4,120.9-30.8,169.6-69.5C1389,1068.3,1395.3,1059.5,1400.9,1050.8z"/>
		<path fill="#F69080" d="M1498,555.8c7.9-26.8,12.1-54.2,12.4-82.1c-54.1,5.6-104.3,21.5-153.8,43.5c32.1,25,61.6,53.8,86.6,85.8
			c7,9,13.7,18.2,20.1,27.7c5-11.3,12.9-21.6,18.2-32.8C1488,584.4,1493.7,570.3,1498,555.8z"/>
		<path fill="#F69080" d="M1498,555.8c7.9-26.8,12.1-54.2,12.4-82.1c-54.1,5.6-104.3,21.5-153.8,43.5c32.1,25,61.6,53.8,86.6,85.8
			c7,9,13.7,18.2,20.1,27.7c5-11.3,12.9-21.6,18.2-32.8C1488,584.4,1493.7,570.3,1498,555.8z"/>
		<path fill="#C9B395" d="M1514.1,465.9c2-0.2,3.7,1.8,3.7,3.7c-0.1,31.2-4.4,62.5-14.1,92.1c-4.4,13.6-9.6,27.1-16,39.9
			c-5.7,11.5-11.6,25.3-20.8,34.5c6.7,10.2,13,20.6,18.7,31.3c6.7-12.7,16.7-24.3,23.4-37c8.3-15.5,15.6-31.6,21.3-48.2
			c11.6-34.2,16.4-68.8,19-104.6c0-0.5,0.2-0.9,0.5-1.3c-0.4-0.8-0.5-1.7,0-2.5c2.5-4.1,7.5-7.8,11.9-10.8c-2.7-2-5.6-3.7-8.6-5.3
			c-3.1-1.6-6.9-2.7-9.2-5.4c-2.5,0-3.8-3.2-1.4-4.7c3.2-2,6.3-4.1,9.2-6.4c-38.3-2.2-77,1-114.2,10.4
			c-38.7,9.8-73.7,26.2-108.9,44.6c8.2,5.7,16.1,11.8,23.9,17.7C1401.2,485.6,1458.2,470.7,1514.1,465.9z"/>
		<path fill="#F69080" d="M970.9,520.4c-22.1-6.4-43.1-16.1-65.9-20.9c-24.1-5-48.3-7.3-72.8-7.2c0.1,23.1,3.7,46.2,11.3,68
			c3.9,11.4,8.5,22.5,14.2,33.1c2.6,4.8,5.3,9.6,8.3,14.2c2,3.1,9,10.4,8.1,14.4c0.5-2.2,3.7-2.6,4.8-0.6c0.1,0.2,0.2,0.4,0.3,0.6
			c3.5-5.2,7.1-10.4,10.8-15.5C913.7,574.2,939.9,544.7,970.9,520.4z"/>
		<path fill="#C9B395" d="M873.3,628.8c-9-4-15.6-19.7-20.1-27.9c-6-11.1-11.5-22.7-15.6-34.6c-8.7-25.2-12.9-51.1-13.2-77.7
			c0-2.2,1.8-3.8,3.8-3.8c26.4-0.9,53,1.3,78.8,7.2c22.7,5.2,48.8,11.7,68.4,25c11.6-8.7,23.9-16.8,36.9-23.9
			c-35.7-9.4-70.1-23.4-106.1-31.9c-35.7-8.5-71.9-13.5-108.6-12.2c4.2,3.5,8.8,6.6,13.5,9.7c2.3,1.6,0.9,5.5-2,4.7
			c-0.5-0.1-1-0.3-1.5-0.5c-3.6,2.7-8.1,4.2-12,6.4c-1.3,0.8-2.6,1.6-4,2.4c1.7,0.2,3.4,0.3,5.2,0.5c3.7,0.4,7.3,0.3,10.6,2
			c2.1,1,1.4,4.1-0.6,4.7c-0.9,0.3-1.8,0.4-2.7,0.5c-7.1,34.4,2.9,72.2,10.2,105.9c6.9,31.3,17.4,60.6,34.7,87.6
			c7.8-14.9,16.3-29.5,25.5-43.6C874.2,629.1,873.8,629,873.3,628.8z"/>
		<path fill="#C9B395" d="M896.3,1544.2c-5.9-38.7-13.7-77.1-21.8-115.4c-14.8-70.7-31-143.6-30.5-216.3c-2.7,2.5-5.4,5.1-7.8,8
			c-2,2.3-6.3,0.5-6.1-2.5c2.1-22.8,2.4-45.5,1.3-68.3c-5.3,3.7-10.7,7.3-16,11c-2.4,1.7-5.3-0.6-5.4-3.1c-0.4-7-0.6-14.1-0.5-21.1
			c-55.9-12.8-97.2-65-113.6-117.8c-10.9-35.3-13.2-73-9.2-109.6c4-37.2,14.6-71.9,23.6-108c4.7-18.8,8.3-40.6-1.2-58.7
			c-9.4-18.1-27.1-27.2-47.5-22.5c-19,4.4-36.7,14-53.2,24.2c-16.2,10.1-31.4,21.9-42.2,37.9c-38.5,56.7-49.9,133.2-38,199.9
			c11.6,65.3,43.9,125.4,94.5,168.8c49,42.1,110.4,68.3,175.1,72.5c0.2,0,0.3,0.1,0.4,0.1c8.7-8.1,19.9-17.1,30.6-18.2
			c0.9-0.1,1.7,0.7,1.9,1.5c0.4,1.5,0.1,2.1-1.4,2.6c-0.1,0-0.2,0-0.3-0.1c-0.1-0.1-0.1-0.2-0.2-0.3c-1.3,1.8-11,7.2-12.9,8.7
			c-6.6,4.8-12.9,10.1-18.4,16.1c-8.3,9.1-14.8,19.1-19.9,30.1c2.2-0.9,4.5-1.8,6.8-2.5c0.2-0.4,0.5-0.8,0.7-1.2
			c0.7-1.1,2.4-0.7,2.6,0.4c0.7-0.2,1.4-0.4,2.1-0.5c2-0.3,4.1,2.2,2.2,3.8c-2.1,1.8-4.4,3.2-6.7,4.5c-9,26.1-16.1,51.6-16.2,79.8
			c-0.1,28.4,4.6,56.8,14,83.6c10,28.4,24.3,54,40.7,79.1c11.7,17.8,26.5,40.2,19.3,62.4c-0.9,2.9-5.4,2.4-5.3-0.7
			c0-0.9,0-1.7-0.1-2.5c-19.9,1.5-41,4.5-56.5,18.6c-13,11.9-18.8,29.2-7.9,43.6c1.2-9.5,6-18.3,15.1-22.5c1.9-0.9,3.6,1.3,2.2,2.9
			c-8.5,9.5-15.8,23.5-8.1,36c6.9,11.3,20.4,16.1,33.1,13.2c-7.1-8.7-9.6-19.8,2.4-27.6c1.2-0.8,3,0.8,2.1,2.1
			c-19.2,26,22.5,36.4,40.5,32c17-4.2,29.4-12.9,43.5-22.1c-0.6-13.4,0.1-27.1-0.9-40.3C901.6,1585,899.4,1564.5,896.3,1544.2z"/>
		<path fill="#C9B395" d="M1095.9,1414.5c0,0-0.1,0.1-0.1,0.1c-5.1,4.5-12.2,12.1-19.5,7.8c-3-1.7-4.2-5.3-5.1-8.4
			c-2-6.9-3.9-13.9-5.3-21c-0.4-1.8-1.3-4.6-1.7-7.3c-3.6,4-7.6,7.9-11.4,11.7c-1.9,1.9-4.6,1.2-6.1-0.8
			c-13-17.6-23.5-38.2-27.9-59.8c-0.7-3.6-4.3-16.2-4-24.6c-4,4.5-8.3,8.8-12.5,13.2c-1.9,2-5.9,1.2-6.4-1.7
			c-4.1-23.7-6-49.3-0.8-73.1c-3.4,4.1-7.4,7.5-11.7,10.9c-2.4,1.9-6,0.8-6.1-2.5c-0.6-14.1-1.2-28.2-1.8-42.3
			c-0.4-10-1.4-20.3-0.9-30.4c-4.5,3.7-9,7.3-12.9,11.6c-2.1,2.3-6,0.5-6-2.5c0.3-18,2.2-36.3,6-53.9c2.4-11.2,4.4-25.9,10.4-36.6
			c-4.3-2.6-8.6-5.3-12.8-8c-0.3,0-0.7-0.1-0.9-0.4c-0.1-0.1-0.2-0.3-0.3-0.4c-43.6-28.9-78.7-68.3-97-118.5
			c-7.7,9.9-14.8,20-20.7,31.2c-1.8,3.4-6.2,2-7.4-1c0-0.1,0-0.1-0.1-0.2c-12.6,16.5-21.2,35.1-25.2,55.5c5-1.9,10.1-3.1,15.7-3.7
			c2.3-0.3,4,2.4,3.4,4.4c-8,28.5-11.3,57.7-10.1,87.2c5.3-3.6,10.7-7.2,16-10.8c2.3-1.6,5.1,0.6,5.3,3c1.4,21.8,1.3,43.6-0.2,65.3
			c2.3-2.1,4.8-4.1,7.5-6c3-2.1,6.8,2.7,4,5.1c-0.1,0.1-0.3,0.3-0.4,0.4c3.9,78.8,20,154.8,36.2,231.8
			c7.8,37.2,15.3,74.4,20.4,112.1c2.6,19.3,4.7,38.6,5.8,58c0.8,14.1,2.4,29.3,0.8,43.6c1.3-1.3,2.6-2.6,3.9-3.8
			c2-1.8,5.3,0.5,3.8,2.9c-7.9,12.6-19.9,24.8-18.7,41c1.5,20.4,17.7,23.3,33.9,27.8c-1-1.5-1.9-3-2.7-4.7
			c-8.1-17.3,0.9-42.2,19.1-48.7c1.5-0.5,2.9,1.7,1.6,2.7c-12.6,10.4-23.1,29.1-13.2,45.2c9.7,15.8,28.2,19.5,44.7,13
			c0.2-0.1,0.5-0.1,0.7-0.1c-9.8-12.5-9.7-32.8,4.7-42c2-1.3,4.5,1.8,2.6,3.3c-11.3,9.3-9.9,30.7,3,38.4c14.2,8.5,33.2,3.7,44.5-7.8
			c23.5-23.9,27.2-64.9,31.8-96.5C1081.9,1554.7,1086.5,1484.3,1095.9,1414.5z"/>
		<path fill="#B2977E" d="M1240.7,1419c-0.8,0.9-1.6,1.8-2.3,2.7c-1.2,1.4-4.2,1.2-5-0.6c-3.3-7.7-6.5-15.3-9.4-23.2
			c-5.5,14-13.2,27-23,38.5c-5.9,6.9-12.1,13.6-19.1,19.4c-3.8,3.2-9.3,9.1-14.8,9.1c-6.5,0-10.8-5.1-14.9-9.4
			c-6.5-6.9-13.1-13.8-19.1-21.2c-9.4-11.5-17.6-23.4-23.3-37c-2.6,4.4-5.6,8.5-9.1,12.3c0.3,0.4,0.5,0.8,0.4,1.3
			c-3.7,49.5-9.5,98.9-14.7,148.3c-3.1,29.8-5.4,61.1-11,91.3c32.1,11.4,64.9,15.7,99,16.3c16.4,0.3,33.1,1.1,49.5-0.1
			c16.1-1.2,28.4-6.6,43.4-11.4c-6.6-33.2-9.6-67.4-13.2-100.9C1249.4,1509.4,1244.2,1464.3,1240.7,1419z"/>
		<path fill="#C9B395" d="M1553.9,1584.3c-16.1-10.4-32.6-13.2-51.3-14.6c0,0.8-0.1,1.7-0.1,2.5c0,3.2-4.4,3.6-5.3,0.7
			c-7.6-23.5,9.3-47.2,21.6-65.8c15.6-23.6,29.4-48.7,38.4-75.6c9.5-28.2,15.2-58.1,13.9-88c-1.1-26.8-7.6-50.7-16.1-75.5
			c-2.4-1.3-4.7-2.7-6.7-4.5c-1.9-1.6,0.2-4.1,2.2-3.8c0.7,0.1,1.4,0.3,2.1,0.5c0.2-1.1,1.9-1.5,2.6-0.4c0.3,0.4,0.5,0.8,0.7,1.2
			c2.3,0.7,4.6,1.6,6.9,2.6c-5.5-12.1-13-23.5-22.6-32.8c-5.9-5.7-12-11.1-18.9-15.5c-1.7-1.1-8.9-4.8-10-6.5c0,0.1-0.1,0.1-0.1,0.2
			c0,0.1-0.2,0.1-0.3,0.1c-0.3-0.1-0.5-0.2-0.7-0.3c0.2,3,0.4,6.1,0.6,9.1c0.3,3-4.1,4.8-6,2.5c-2.5-2.9-5.1-5.5-7.8-8
			c0.5,74.2-16.3,148.5-31.4,220.7c-8,38.3-16,76.7-21.5,115.4c-2.9,20.4-5.3,40.9-6.4,61.4c-0.7,12-0.1,24.3-0.6,36.3
			c13.5,9,26.1,18.5,42.8,21.7c10.7,2,23.2,2.8,32.9-3.2c11-6.8,15.9-17.6,7.6-28.8c-0.9-1.2,0.8-2.9,2.1-2.1
			c11.6,7.6,9.6,18.7,2.7,27.6c11.9,2.5,27.2-1.6,32.7-13.3c6.4-13.5,1.1-25.7-8.1-36c-1.4-1.6,0.3-3.7,2.2-2.9
			c8.3,3.8,13.7,12.7,15.3,22.2C1579.2,1615.4,1570.3,1594.9,1553.9,1584.3z"/>
		<path fill="#C9B395" d="M1425.1,1649.8c1.3,1.2,2.6,2.4,3.9,3.8c-1.8-15.7,0.1-32.6,1.2-48c1.3-18.3,3.1-36.5,5.7-54.6
			c5.4-38.8,13.1-77.1,21.2-115.4c15.9-75.5,31.4-150.1,35.2-227.4c-0.1-0.1-0.3-0.3-0.4-0.4c-2.8-2.4,0.9-7.2,4-5.1
			c2.7,1.8,5.1,3.8,7.5,6c-1.6-21.8-1.7-43.6-0.2-65.4c0.2-2.5,2.9-4.6,5.3-3c5.3,3.6,10.7,7.3,16,10.9c1.1-29.5-2.1-58.7-10.1-87.2
			c-0.6-2,1.1-4.7,3.4-4.5c5.5,0.6,10.5,1.8,15.5,3.6c-3.8-16.5-11.7-32.5-19.2-47.4c-8.2-16.2-17-33.1-28.8-47
			c-0.5-0.6-0.6-1.2-0.6-1.7c-1.1,2.5-2.3,5-3.5,7.4c-26.3,52.3-66.5,95.5-114.5,126.9c8.6,11.6,11.2,31.1,13.7,44.7
			c3,16.4,4.9,32.9,5.1,49.6c0,3-3.9,4.7-6,2.5c-4-4.3-8.4-8-12.9-11.6c0.5,10.1-0.5,20.4-0.9,30.4c-0.5,14.1-1.1,28.2-1.8,42.3
			c-0.1,3.3-3.7,4.5-6.1,2.5c-4.2-3.4-8.3-6.8-11.7-10.9c5.1,23.8,3.3,49.4-0.8,73.1c-0.5,2.9-4.6,3.7-6.4,1.7
			c-4.2-4.4-8.5-8.7-12.5-13.2c0.5,9.5-3.9,24.9-4.9,28.6c-5.5,20.3-14.4,38.9-26.9,55.8c-1.4,2-4.2,2.7-6.1,0.8
			c-5.5-5.6-11.3-11.1-16-17.4c-7.9,11.9-17.7,23-27.1,33.8c9.6,71.6,13.6,143.9,24.9,215.2c4.6,29.4,8.2,77.2,35.7,95.6
			c12,8,32,13.9,43.3,1.1c8.8-10,10.8-26.4-0.3-35.5c-1.9-1.5,0.6-4.6,2.6-3.3c14.7,9.4,14.4,29.5,4.5,42c0.3,0,0.6,0,0.9,0.2
			c15.2,6,36.7,3.6,44.7-13c8.3-17.2,0.5-33.9-13.2-45.2c-1.3-1,0.1-3.3,1.6-2.7c19.1,6.9,28.2,34.1,17.8,51.6
			c-0.4,0.6-0.8,1.2-1.2,1.8c15.1-4.2,34.1-7.7,33.8-27.8c-0.3-16.8-10.3-27.6-18.7-41C1419.8,1650.3,1423.1,1648,1425.1,1649.8z"/>
		<path fill="#F69080" d="M1157.9,899.8c-6.4,3.2-14.3,4.8-21.4,3.9c3.6,9.9,3.8,21.1,9.4,30.3c7.2,11.7,21,16.3,34.1,12.3
			c13.2-4,27.9-11.2,28.7-26.9c0.3-5.4,0.5-10.4,1.9-15.3c-6.5,1.1-13.3,0.4-19.5-2.7c-11.9-6-17.7-16.6-20.1-28.4
			c-0.4,3.3-0.7,6.6-1.2,9.8C1168.8,891.4,1165.6,896,1157.9,899.8z"/>
		<path fill="#4C4033" d="M1502.8,1565.5c2.1-28.1,19.8-48.6,34.2-72.5c14.3-23.7,25.3-49.4,32.8-75.9c12.8-45.3,14-102.3-8-145.8
			c2.1,0.9,4.2,1.8,6.3,2.7c2.7,1.1,6.8-0.8,5.5-4.3c-5.8-15.5-14.4-29.1-25.8-41.1c-8.6-9.1-23.3-22.2-36.2-23.5
			c-0.6-0.1-1.1,0.3-1.5,0.7c-1.2-18.7-1.4-37.4-0.4-56.1c5.4,3.6,10.7,7.3,16.1,11c2.4,1.6,5.1-0.6,5.3-3c2.1-30.6-1-60.9-8.8-90.4
			c4.8,0.9,8.9,2.3,13.7,4.6c2.9,1.4,5.7-0.9,5.2-4c-3-18.4-11.9-36.1-20.3-52.5c-8.9-17.5-19-35.5-32.5-50c-1-1.1-2.4-0.8-3.1,0
			c2.9-6.5,5.5-13.2,7.6-20c8.2,11.8,16.4,22.8,20.9,36.9c1.2,3.7,6.4,3.7,7.5,0c7-23,4-46.1-0.8-69c5.5,5.2,11.1,10.4,16.6,15.5
			c1.7,1.6,4.2,0.4,4.4-1.8c1.7-23.6-0.1-47.1-2.8-70.5c-2-17.3-4.5-34.5-8.5-51.4c-5.4-32.4-13.5-64.6-25.1-95.2
			c-4.5-12.1-9.9-23.8-15.7-35.2c11.5-10.2,19.4-27,26.6-40.1c8.8-16,15.9-33,21.9-50.2c11.7-33.7,18.4-71,16-106.7
			c0-0.1-0.1-0.3-0.1-0.4c5.6-2.4,10.9-7.8,15-12c1.3-1.3,1-3.6-0.6-4.4c-4.2-2.3-8.4-4.7-12.7-6.8c-2.2-1-4.5-2.2-6.9-2.8
			c5.9-2,10.6-5.6,14.9-10.6c2.3-2.7,0.7-6.3-2.7-6.6c-80.1-7.1-170.9,10.3-236.5,59.1c0,0-0.1,0.1-0.1,0.1
			c-23.6-16.1-49.1-29.4-77.5-32.9c3.8-2.5,7.6-4.9,11.8-7c2.5-1.2,1.9-5.4-0.8-5.9c-30-5.8-62-6-91.8,1.7
			c4.6-3.6,9.2-7.2,13.6-11.1c1.5-0.3,2.9-0.7,4.4-1.1c1.9-0.4,1.1-3.1-0.7-2.9c-0.1-0.7-0.9-1.3-1.7-0.9c-0.9,0.5-1.8,1.1-2.8,1.7
			c-56.2,9.3-110,28.3-160.3,55c-34.7-16.1-72.7-27.3-109.7-36.6c-38.9-9.7-79.1-14.5-119.2-11.2c-3,0.3-4.7,3.7-2.5,6
			c4.5,4.7,9.3,9,14.9,12c-2.5,0.8-5,2-7.4,3c-4.9,2.1-9.5,4.8-14.1,7.6c-3.1,1.9-1.7,6.4,1.8,6.6c4.4,0.3,8.7,0.8,13.1,1.2
			c1.7,0.2,3.5,0.4,5.3,0.5c-6.3,14.7-5.3,31.2-3.4,46.8c2.2,17.8,5.1,35.6,8.5,53.2c6.8,35.1,18,71.2,40.6,99.4
			c-37.3,73.7-57.8,155.9-59.2,238.4c-0.1,3.8,5.4,5.4,7.2,2c5.2-9.6,11.8-18,19.4-25.7c-3.3,36.8,4.1,74.9,17.5,109.1
			c-16.5,18.5-26.9,40.8-31,65.4c-0.5,3.1,2.2,5.3,5.1,3.9c4.8-2.3,9-3.8,13.8-4.6c-5.6,21.1-8.7,42.5-9.3,64.1
			c-59.7-22.9-98.4-75.4-111.5-137.2c-8.3-39.5-5.3-80.8,2.1-120.1c6.7-35.5,23.1-70.6,23-106.9c-0.1-25.8-15.5-50.5-41.5-55.9
			c-29.9-6.3-65,17.2-88.2,33.1c-52.5,35.9-72.4,107.5-76.6,167.8c-5.7,80.5,22.2,161.3,76.3,221.1c50.5,55.8,122.8,90.8,197.6,97.4
			c-10.7,11.2-18.7,24.8-24.1,39.3c-1.3,3.5,2.9,5.4,5.5,4.3c2.1-0.9,4.2-1.8,6.3-2.7c-22.2,43.8-20.1,100-8,145.8
			c7.1,26.7,18.8,52.2,32.8,75.9c14.2,24.1,32,44.3,34.2,72.5c-23.8-3.8-50.5,5.5-67.1,22.6c-13.6,14.1-16.2,40.3,1.9,51.7
			c0.3,0.2,0.6,0.3,0.9,0.4c0.4,4.1,1.4,8.1,3.1,11.7c7.3,15.8,27.6,20.5,42.3,13.9c0.2-0.1,0.3-0.2,0.5-0.4c4.1,3.9,8.9,7,13.3,8.7
			c22.1,8.5,54.5-3.5,72.1-20.2c0.2,2.1,0.4,4.2,0.7,6.3c0.1,0.4,0.2,0.7,0.3,0.9c-8.7,11.6-13.9,25.5-11.3,40.3
			c3.3,18.9,24.2,25.5,40.7,25.7c1.5,0,2.3-1,2.6-2.1c11.7,13.9,32.8,19.2,49,8.9c0.8-0.5,1.2-1.4,1.2-2.2c2.8,2.7,6.3,4.9,10.2,6.2
			c33.1,10.7,57-18.5,66.7-46.4c4.2-12,7.3-24.4,9.8-37c30.9,14.6,66.2,17.8,99.9,19.3c17.8,0.8,35.8,1.2,53.5-0.1
			c13.3-0.9,30.1-3.5,40.7-12.5c1.9,8.9,4,17.8,6.6,26.6c8.4,28.9,31.2,58.3,64.7,51.1c5.3-1.1,9.8-3.8,13.4-7.4
			c0,0.9,0.3,1.9,1.2,2.4c16.2,10.3,37.1,4.9,49-8.9c0.3,1.1,1.2,2,2.6,2c18.2-0.2,35.4-7.1,40.7-25.7c4-13.9-2.4-28.7-11.3-40.3
			c0.2-0.3,0.3-0.6,0.3-0.9c0.3-1.9,0.5-3.7,0.6-5.6c17.2,16.2,45.2,24.6,67.6,20.6c5.9-1,12.3-4.7,17.4-9.6
			c0.1,0.1,0.2,0.1,0.3,0.2c16,7.2,33.4,1.1,42.3-13.9c2.1-3.5,3.2-7.6,3.6-11.9c0.1-0.1,0.3-0.1,0.4-0.2
			c16.7-10.6,16-34.6,4.2-48.8C1556.3,1571.7,1527.6,1561.5,1502.8,1565.5z M1437.4,451.7c37.3-9.4,75.9-12.6,114.2-10.4
			c-2.9,2.3-5.9,4.4-9.2,6.4c-2.4,1.5-1.1,4.7,1.4,4.7c2.4,2.7,6.1,3.8,9.2,5.4c3,1.5,5.8,3.3,8.6,5.3c-4.5,3-9.4,6.6-11.9,10.8
			c-0.5,0.8-0.4,1.7,0,2.5c-0.3,0.3-0.5,0.7-0.5,1.3c-2.6,35.9-7.4,70.5-19,104.6c-5.6,16.7-13,32.7-21.3,48.2
			c-6.7,12.7-16.7,24.3-23.4,37c-5.7-10.7-12-21.1-18.7-31.3c9.2-9.3,15.1-23.1,20.8-34.5c6.4-12.9,11.5-26.3,16-39.9
			c9.7-29.7,14-61,14.1-92.1c0-1.9-1.7-3.9-3.7-3.7c-55.9,4.8-112.9,19.7-161.6,48.1c-7.8-6-15.7-12-23.9-17.7
			C1363.8,477.9,1398.7,461.5,1437.4,451.7z M1443.2,603.1c-25-32-54.6-60.9-86.6-85.8c49.5-22,99.7-37.9,153.8-43.5
			c-0.2,27.9-4.5,55.3-12.4,82.1c-4.3,14.5-10,28.6-16.4,42.3c-5.3,11.2-13.2,21.5-18.2,32.8C1457,621.3,1450.2,612.1,1443.2,603.1z
			 M814.6,585.1c-7.4-33.7-17.3-71.5-10.2-105.9c0.9-0.1,1.8-0.2,2.7-0.5c2-0.6,2.7-3.7,0.6-4.7c-3.4-1.6-7-1.6-10.6-2
			c-1.7-0.2-3.4-0.3-5.2-0.5c1.3-0.8,2.6-1.6,4-2.4c3.9-2.2,8.4-3.7,12-6.4c0.5,0.2,1,0.4,1.5,0.5c2.9,0.8,4.3-3.1,2-4.7
			c-4.7-3.2-9.3-6.2-13.5-9.7c36.7-1.4,72.9,3.7,108.6,12.2c36,8.5,70.4,22.5,106.1,31.9c-13.1,7.2-25.3,15.2-36.9,23.9
			c-19.6-13.4-45.7-19.9-68.4-25c-25.8-5.9-52.4-8.1-78.8-7.2c-2.1,0.1-3.9,1.7-3.8,3.8c0.3,26.6,4.5,52.5,13.2,77.7
			c4.1,12,9.5,23.5,15.6,34.6c4.4,8.2,11.1,23.9,20.1,27.9c0.4,0.2,0.9,0.3,1.4,0.4c-9.2,14.1-17.7,28.6-25.5,43.6
			C832,645.7,821.4,616.4,814.6,585.1z M879.3,622.2c-0.1-0.2-0.2-0.4-0.3-0.6c-1.1-2-4.3-1.6-4.8,0.6c1-4-6.1-11.3-8.1-14.4
			c-3-4.6-5.6-9.4-8.3-14.2c-5.7-10.6-10.3-21.8-14.2-33.1c-7.5-21.8-11.2-45-11.3-68c24.5-0.1,48.7,2.2,72.8,7.2
			c22.8,4.7,43.8,14.4,65.9,20.9c-31,24.3-57.3,53.8-80.9,86.3C886.3,611.8,882.8,617,879.3,622.2z M817.6,882.1
			c-0.8,0.5-1.5,1.1-2.3,1.6c0,0-0.1,0.1-0.1,0.1c-7.8,5.7-14.3,12.3-20,19.8c4.7-103.8,39.5-204.6,99.4-289.6
			c33-46.8,72.4-86.8,122.6-114.8c47.9-26.8,99.8-45.8,153.1-58.9c-6.4,4.4-12.6,9.1-19,13.4c-2.7,1.7-1,6,2.2,5.2
			c31.4-8.1,61.9-11.1,93.7-6.5c-4.1,2.6-8,5.5-11.2,9.2c-1.8,2.1,0.5,5.6,3,3.9c1.3-0.8,2.5-1.7,3.8-2.5
			c42.7,5.7,78.8,34.4,111.1,61c30.7,25.4,59,53.5,83.7,84.8c25.5,32.4,46.4,68.7,60.9,107.3c14.8,39.3,20,80.9,31.5,121
			c4.3,28.1,6.6,56.8,6.3,84.4c-5.7-4.8-11.4-9.7-17.2-14.3c-0.2-0.9-0.4-1.9-0.6-2.8c-0.8-3.8-6.2-2.1-5.6,1.6
			c3.1,21.1,5.8,42.5,2.8,63.6c-5.7-10.6-12.4-20.9-21.5-28.6c0.1-0.3,0.2-0.7,0.3-1c1-3.6-4.6-6.2-6.2-2.6
			c-12,26.4-24.1,51.7-41.1,75.3c-14.5,20.3-31.9,38.5-50.8,54.8c3.8-6.1,7.4-12.3,11.2-18.2c5.7-9,11.2-17.6,13-27.7
			c1.2,1.8,2.6,3.5,4.1,5.2c1.3,1.5,3.9,0.7,4.4-1.2c7-29.7,10.7-64.6,1.9-94.4c4.6,4,8.6,8,11.7,13.4c1.1,1.9,3.7,0.9,3.9-1
			c1.7-27-3.2-54.6-16.2-78.4c4.6,2.2,9.3,4.1,14,6.1c1.7,0.7,3.4-0.4,3-2.3c-3.1-15-12.5-29.5-26-37.2c4.6-0.1,9.1-0.2,13.7,0.1
			c2.5,0.2,3.5-3.7,1.3-4.8c-34.5-17.1-80.5-32.9-116.4-12.6c2.8-3.3,5.1-7,7.1-11.1c1-2.1-0.6-4.5-3-3.9
			c-36.3,8.9-72.4,21.2-109.8,24.6c6.5-5.9,15.9-17.4,12.7-26.2c-4.4-11.9-14.4-15.3-26.2-17.4c-14.8-2.6-30.5-1.4-45.3,0.7
			c-11,1.5-24.7,4.1-31.2,14.3c-7.8,12.4-3.6,22.4,5.1,29.6c-38.1-3.2-74.8-16.3-111.6-25.8c-2.4-0.6-4,1.9-3,3.9
			c2,4.2,4.3,8.2,7.2,11.7c-35.9-21-82-4.7-116.4,13c-2.2,1.1-1.2,5,1.3,4.8c4.7-0.3,9.3-0.2,14-0.1c-13.9,8-23.2,23.3-26.3,38.7
			c-0.4,1.9,1.3,3.1,3,2.3c4.7-2.1,9.4-4.1,14-6.3c-13.1,25-18,53.6-16.2,81.6c0.1,1.9,2.8,3,3.9,1c3.1-5.8,7.1-9.7,11.7-14
			c-8.9,31-5.1,67.4,1.9,98.1c0.4,1.8,3.1,2.7,4.4,1.2c1.5-1.8,2.8-3.5,4.1-5.4c1.8,10.3,7.2,19.2,12.8,28.4
			c3.9,6.4,7.7,13.2,11.6,19.8c-36-26-65.5-59.7-82.4-102.8c0-0.1-0.1-0.2-0.2-0.3c0.2-0.2,0.4-0.5,0.6-0.7c2.2-2.8-1.2-6.4-3.9-3.9
			c-8.7,8-15.8,17.1-21.9,27.1c-13.3-35.4-18.2-71.4-19-109.3c0.7-0.6,1.3-1.3,2-1.9C823,884.3,820.1,880.4,817.6,882.1z
			 M1365.7,1178.7c-0.1-1-1.4-1-2-0.4c-2-0.2-3.5,2.8-1.8,4.2c0.2,0.2,0.4,0.3,0.6,0.5c-2.2,11-2.2,22.5-3,33.6
			c-0.9,11.7-1.6,23.3-2.4,35c-3.5-3.1-6.9-6.3-10.7-9c-1.9-1.4-4.3,0.9-3.8,2.9c-1.1,0.2-2.1,1-2.1,2.3c1.1,22.9,1.9,44.4-1.6,66.8
			c-4.5-4.5-9-9-14.1-12.8c-2-1.5-4.7,0.9-4.3,3c-0.2,0.2-0.4,0.5-0.4,0.9c0,0.2,0,0.4,0,0.6c0.1,0.9,1,1.3,1.8,0.8c0,0,0,0,0,0
			c-3.2,2.8-3.9,19.4-5,24.1c-1.5,6.7-3.6,13.2-5.9,19.6c-4.9,13.6-12.1,26.3-20.6,38c-4.8-4.9-9.6-9.7-15.2-13.7
			c0.2-0.3,0.4-0.6,0.5-0.9c1-1.7-1.3-3.4-2.7-2.1c-13.3,12.3-24.7,27.6-36.4,41.6c-3.4-7.4-7-14.7-11-21.8c-0.5-0.8-1.3-1-2-0.8
			c-1.4-0.7-3.2-0.5-4,1.1c-12,23.1-26.4,43.7-46.4,60.6c-11.8,9.9-32-18.9-38.3-26.1c-9-10.4-16.5-22-22.4-34.4
			c1-1.9,2-3.9,2.9-5.9c1.3-2.9-2.7-5.4-4.4-2.5c-6.1,10.3-14.1,19.6-23.2,27.5c-9.3,8.1-11.1-2-13.3-9.5
			c-1.1-3.8-2.7-18.9-6.6-20.5c0.9,0.4,2.1-0.6,2-1.5c0-0.2,0-0.4-0.1-0.6c0-0.2-0.1-0.4-0.2-0.6c0,0,0.1-0.1,0.1-0.1
			c1.6-2.3-1.6-5.4-3.8-3.8c-5.8,4-10.7,9.1-15.6,14.1c-7.6-10.7-14.1-21.9-19.1-34.1c-2.6-6.3-4.6-12.9-6.4-19.5
			c-1.5-5.4-2.1-24.7-6-28c0,0,0,0,0,0c0.7,0.6,1.7,0.2,1.8-0.8c0-0.2,0-0.4,0-0.6c0-0.3-0.1-0.6-0.4-0.9c0.5-2.1-2.3-4.5-4.3-3
			c-5.1,3.8-9.6,8.3-14.1,12.8c-3.6-22.5-2.7-43.9-1.6-66.8c0.1-1.4-0.9-2.2-2.1-2.3c0.5-2-1.9-4.3-3.8-2.9c-3.8,2.8-7.2,6-10.7,9
			c-0.8-11.7-1.5-23.4-2.4-35c-0.8-11.1-0.8-22.6-3-33.6c0.2-0.2,0.4-0.3,0.6-0.5c1.7-1.4,0.2-4.4-1.8-4.2c-0.6-0.7-1.9-0.7-2,0.4
			c0,0.2,0,0.3-0.1,0.5c-4.5,2-8.5,4.6-12.2,7.8c0.7-14.7,2.2-29.2,4.8-43.8c2-11.3,7.4-23.8,9-35.6
			c64.4,36.6,143.1,52.8,212.9,50.1c61.9-2.4,122.3-21.9,173.8-54.8c0.5,13.1,7,27.6,9.4,40.3c2.8,14.5,4.1,29.1,4.8,43.8
			c-3.7-3.2-7.6-5.8-12.2-7.8C1365.7,1179.1,1365.7,1178.9,1365.7,1178.7z M1214.5,1147c-67.7,8.1-137.3-4-199.8-30.5
			c-20.5-8.7-40.2-19-58.5-31c-11.6-20.2-31.1-39.9-31.1-63c0-2.3-3.1-3.1-4.3-1.2c-1.3,2.3-2.7,4.3-4.1,6.3
			c-3.1-14.5-5-29.2-5.7-44.1c-0.7-16.9,2-33.4,2.7-50.2c0.1-1.2-1.7-1.4-2.1-0.3c0,0.1,0,0.2-0.1,0.2c-0.5-0.5-1.3-0.8-2-0.4
			c-4.4,2.2-7.7,5.5-10.4,9.3c-0.7-26.7,5.2-51.7,16-76.3c0.1-0.1,0-0.2,0-0.4c0.7-0.4,1.4-0.7,2-1.1c1.6-0.9,0.5-3.6-1.3-3
			c-5.7,1.8-11.1,4.4-16.5,7c4.1-15.3,13.6-26.2,26.5-35.5c0.2,0,0.3,0,0.5,0c1.7,0,2.1-2.5,0.4-3c-3.1-0.9-6.3-1.3-9.5-1.6
			c17.2-7.9,34.4-15.1,53.5-17.7c22.1-3,41.3,4.4,60.9,13.6c0.2,0.1,0.4,0.1,0.6,0c0.3,0.2,0.5,0.4,0.8,0.6c1.8,1,3.9-1.5,2.3-2.9
			c-5.3-4.8-9.9-9.6-13.4-15.7c17.9,4.8,35.8,9.4,53.8,14.1c18.3,4.8,37.2,9.7,56.3,8.4c0.5,0,0.8-0.2,1.1-0.5c5,3.3,11,6,16.8,7.9
			c0.1,0.1,0.2,0.2,0.4,0.3c5.6,3.1,11.6,4.6,17.7,5c-1.4,10.7-2.5,21.5-4.2,32.1c-1.5,9.1-3.7,16.3-13.1,19.9
			c-9,3.5-22,3.4-25.9-7.7c-1.4-4-6.9-2.3-6.2,1.7c1.6,9.1,7.4,14,14.7,15.8c-1.7,12.5,2.9,27.5,9,38c6.1,10.5,19.7,13.8,30.9,13.6
			c12.1-0.3,24.2-6.7,33.3-14.2c11.5-9.5,7.5-25.5,11.2-38.2c0-0.1,0-0.2,0-0.2c7.1-2.9,13.3-8,17-14.8c1.5-2.8-2.5-6.3-4.6-3.6
			c-9,11.4-24.3,16.3-37.6,9.7c-18.3-9-18.2-34.8-18.5-52.2c12.9-0.7,25.8-6.1,36-13.8c19,1.3,37.8-3.5,56.1-8
			c17.9-4.4,35.8-8.8,53.6-13.5c-3.5,5.7-7.9,10.3-13.2,14.9c-1.7,1.4,0.5,4,2.3,2.9c0.3-0.2,0.6-0.4,0.9-0.6c0.2,0,0.3,0,0.5,0
			c20.1-9.1,38.5-15,60.9-13c18.7,1.7,36.2,9.1,53.3,16.9c-3.1,0.3-6.2,0.7-9.3,1.6c-1.7,0.5-1.3,3,0.4,3c0.2,0,0.3,0,0.5,0
			c12.7,8.9,22.3,19.2,26.5,34.1c-5.4-2.5-10.8-4.9-16.5-6.7c-1.8-0.6-2.9,2.1-1.3,3c0.7,0.4,1.4,0.7,2,1.1c0,0.1,0,0.2,0,0.3
			c10.8,23.7,16.8,47.6,16,73.5c-2.8-3.7-6-6.7-10.4-9c-0.7-0.4-1.5-0.1-2,0.4c0-0.1,0-0.1-0.1-0.2c-0.4-1.1-2.1-1-2.1,0.3
			c0.8,15.4,3,30.5,2.8,46c-0.2,15-2.4,30-5.7,44.6c-1.5-1.9-2.9-3.9-4.1-6c-1.2-1.9-4.3-1.2-4.3,1.2c0.1,14-8.6,25.3-15.8,36.6
			c-5.6,8.8-11.9,17.5-16.8,26.8C1335.5,1116.2,1276,1139.6,1214.5,1147z M1198,827.3c-12.1,6.9-25.1,7.3-38.3,5.6
			c-16.4-6.3-47.3-21.6-23.1-39c13.5-9.7,38.8-8.4,54.6-7.7c11.6,0.5,37.7,5,25.2,24.8C1212,818.1,1205,823.2,1198,827.3z
			 M1169.9,882.8c0.4-3.3,0.8-6.5,1.2-9.8c2.5,11.8,8.2,22.3,20.1,28.4c6.1,3.1,13,3.8,19.5,2.7c-1.4,5-1.6,9.9-1.9,15.3
			c-0.8,15.7-15.5,22.9-28.7,26.9c-13.2,4-26.9-0.6-34.1-12.3c-5.6-9.1-5.8-20.4-9.4-30.3c7.1,0.9,15-0.7,21.4-3.9
			C1165.6,896,1168.8,891.4,1169.9,882.8z M860.5,1668c-18,4.4-59.7-6-40.5-32c0.9-1.2-0.8-2.9-2.1-2.1c-11.9,7.8-9.4,18.8-2.4,27.6
			c-12.7,2.9-26.2-1.9-33.1-13.2c-7.7-12.5-0.4-26.5,8.1-36c1.4-1.6-0.3-3.7-2.2-2.9c-9.1,4.2-13.9,13-15.1,22.5
			c-10.9-14.4-5.2-31.6,7.9-43.6c15.5-14.2,36.6-17.1,56.5-18.6c0,0.8,0.1,1.7,0.1,2.5c0,3.2,4.4,3.6,5.3,0.7
			c7.2-22.2-7.7-44.6-19.3-62.4c-16.5-25-30.7-50.7-40.7-79.1c-9.5-26.8-14.1-55.2-14-83.6c0.1-28.2,7.2-53.7,16.2-79.8
			c2.4-1.3,4.7-2.7,6.7-4.5c1.9-1.6-0.2-4.1-2.2-3.8c-0.7,0.1-1.4,0.3-2.1,0.5c-0.2-1.1-1.9-1.5-2.6-0.4c-0.3,0.4-0.5,0.8-0.7,1.2
			c-2.3,0.7-4.5,1.6-6.8,2.5c5.1-11,11.7-21,19.9-30.1c5.5-6,11.8-11.3,18.4-16.1c2-1.4,11.7-6.9,12.9-8.7c0.1,0.1,0.1,0.2,0.2,0.3
			c0,0.1,0.2,0.1,0.3,0.1c1.5-0.5,1.8-1.1,1.4-2.6c-0.2-0.8-1.1-1.6-1.9-1.5c-10.7,1.1-22,10.1-30.6,18.2c-0.2,0-0.3-0.1-0.4-0.1
			c-64.7-4.2-126-30.4-175.1-72.5c-50.6-43.4-82.9-103.4-94.5-168.8c-11.8-66.7-0.5-143.2,38-199.9c10.8-16,26-27.8,42.2-37.9
			c16.5-10.2,34.2-19.8,53.2-24.2c20.4-4.7,38.1,4.4,47.5,22.5c9.5,18.1,5.8,39.9,1.2,58.7c-9,36.1-19.6,70.8-23.6,108
			c-4,36.6-1.7,74.3,9.2,109.6c16.4,52.8,57.6,105.1,113.6,117.8c-0.1,7,0.1,14,0.5,21.1c0.2,2.5,3,4.8,5.4,3.1
			c5.3-3.7,10.7-7.4,16-11c1.2,22.8,0.8,45.5-1.3,68.3c-0.3,3,4.1,4.8,6.1,2.5c2.5-2.9,5.1-5.5,7.8-8
			c-0.4,72.7,15.7,145.5,30.5,216.3c8,38.3,15.9,76.7,21.8,115.4c3.1,20.4,5.3,40.9,6.8,61.4c1,13.3,0.3,26.9,0.9,40.3
			C889.9,1655.1,877.5,1663.9,860.5,1668z M1039.9,1720.9c-11.3,11.5-30.3,16.3-44.5,7.8c-12.9-7.7-14.3-29.2-3-38.4
			c1.9-1.5-0.6-4.6-2.6-3.3c-14.4,9.2-14.6,29.5-4.7,42c-0.2,0-0.4,0-0.7,0.1c-16.5,6.5-35,2.8-44.7-13
			c-9.9-16.1,0.6-34.8,13.2-45.2c1.3-1-0.1-3.3-1.6-2.7c-18.2,6.6-27.2,31.4-19.1,48.7c0.8,1.6,1.7,3.2,2.7,4.7
			c-16.2-4.5-32.4-7.4-33.9-27.8c-1.2-16.2,10.8-28.4,18.7-41c1.5-2.4-1.8-4.7-3.8-2.9c-1.3,1.2-2.6,2.5-3.9,3.8
			c1.6-14.3-0.1-29.5-0.8-43.6c-1.1-19.4-3.2-38.8-5.8-58c-5.1-37.7-12.6-74.9-20.4-112.1c-16.1-77-32.2-153-36.2-231.8
			c0.1-0.1,0.3-0.3,0.4-0.4c2.8-2.4-0.9-7.2-4-5.1c-2.7,1.8-5.1,3.8-7.5,6c1.5-21.8,1.7-43.5,0.2-65.3c-0.2-2.5-2.9-4.6-5.3-3
			c-5.3,3.6-10.7,7.2-16,10.8c-1.2-29.5,2.1-58.6,10.1-87.2c0.6-2-1.1-4.7-3.4-4.4c-5.6,0.6-10.7,1.8-15.7,3.7
			c4-20.4,12.6-39,25.2-55.5c0,0.1,0,0.1,0.1,0.2c1.2,3,5.6,4.4,7.4,1c5.9-11.1,13-21.3,20.7-31.2c18.2,50.3,53.4,89.6,97,118.5
			c0.1,0.1,0.2,0.3,0.3,0.4c0.2,0.3,0.6,0.4,0.9,0.4c4.2,2.8,8.5,5.5,12.8,8c-6,10.7-7.9,25.4-10.4,36.6c-3.9,17.6-5.7,35.9-6,53.9
			c0,3,3.9,4.7,6,2.5c4-4.3,8.4-8,12.9-11.6c-0.5,10.1,0.5,20.4,0.9,30.4c0.5,14.1,1.1,28.2,1.8,42.3c0.1,3.3,3.7,4.5,6.1,2.5
			c4.2-3.4,8.3-6.8,11.7-10.9c-5.1,23.8-3.3,49.4,0.8,73.1c0.5,2.9,4.6,3.7,6.4,1.7c4.2-4.4,8.5-8.6,12.5-13.2
			c-0.3,8.4,3.3,21,4,24.6c4.4,21.6,14.9,42.1,27.9,59.8c1.4,2,4.2,2.7,6.1,0.8c3.8-3.9,7.7-7.7,11.4-11.7c0.5,2.7,1.4,5.5,1.7,7.3
			c1.4,7.1,3.3,14.1,5.3,21c0.9,3.1,2.1,6.7,5.1,8.4c7.3,4.3,14.4-3.3,19.5-7.8c0,0,0.1-0.1,0.1-0.1c-9.4,69.8-14,140.2-24.1,209.9
			C1067.2,1656,1063.4,1697,1039.9,1720.9z M1223.9,1666.8c-16.4,1.3-33.1,0.4-49.5,0.1c-34.2-0.7-66.9-4.9-99-16.3
			c5.7-30.2,7.9-61.5,11-91.3c5.2-49.4,11-98.8,14.7-148.3c0-0.5-0.1-1-0.4-1.3c3.5-3.8,6.5-7.9,9.1-12.3
			c5.8,13.5,13.9,25.5,23.3,37c6,7.4,12.6,14.3,19.1,21.2c4.1,4.3,8.4,9.4,14.9,9.4c5.5,0,11-5.9,14.8-9.1
			c7-5.8,13.2-12.5,19.1-19.4c9.8-11.5,17.5-24.5,23-38.5c2.8,7.8,6,15.5,9.4,23.2c0.8,1.8,3.7,2.1,5,0.6c0.8-0.9,1.5-1.8,2.3-2.7
			c3.6,45.2,8.7,90.3,13.5,135.5c3.5,33.5,6.6,67.7,13.2,100.9C1252.3,1660.2,1240.1,1665.6,1223.9,1666.8z M1421.3,1652.7
			c8.4,13.4,18.5,24.2,18.7,41c0.3,20.1-18.6,23.6-33.8,27.8c0.4-0.6,0.8-1.2,1.2-1.8c10.4-17.4,1.2-44.7-17.8-51.6
			c-1.5-0.5-2.9,1.7-1.6,2.7c13.7,11.3,21.5,28,13.2,45.2c-8,16.6-29.5,19-44.7,13c-0.3-0.1-0.6-0.1-0.9-0.2
			c9.8-12.5,10.2-32.6-4.5-42c-2-1.3-4.5,1.8-2.6,3.3c11.2,9.1,9.1,25.5,0.3,35.5c-11.3,12.8-31.3,6.9-43.3-1.1
			c-27.5-18.4-31-66.2-35.7-95.6c-11.3-71.3-15.3-143.7-24.9-215.2c9.4-10.8,19.2-22,27.1-33.8c4.7,6.3,10.5,11.8,16,17.4
			c1.9,1.9,4.6,1.2,6.1-0.8c12.5-16.9,21.4-35.5,26.9-55.8c1-3.7,5.4-19.1,4.9-28.6c4,4.6,8.3,8.9,12.5,13.2c1.9,2,5.9,1.2,6.4-1.7
			c4.1-23.7,6-49.3,0.8-73.1c3.4,4.1,7.4,7.5,11.7,10.9c2.4,1.9,6,0.8,6.1-2.5c0.6-14.1,1.2-28.2,1.8-42.3c0.4-10,1.4-20.3,0.9-30.4
			c4.5,3.7,9,7.3,12.9,11.6c2.1,2.3,6,0.5,6-2.5c-0.3-16.7-2.2-33.2-5.1-49.6c-2.5-13.6-5.1-33.1-13.7-44.7
			c48.1-31.4,88.2-74.6,114.5-126.9c1.2-2.5,2.4-4.9,3.5-7.4c-0.1,0.6,0.1,1.2,0.6,1.7c11.8,14,20.5,30.8,28.8,47
			c7.5,14.9,15.4,30.9,19.2,47.4c-5-1.8-10-3-15.5-3.6c-2.3-0.3-4,2.5-3.4,4.5c8,28.6,11.3,57.7,10.1,87.2
			c-5.3-3.6-10.7-7.3-16-10.9c-2.4-1.6-5.1,0.6-5.3,3c-1.4,21.8-1.3,43.6,0.2,65.4c-2.3-2.1-4.8-4.1-7.5-6c-3-2.1-6.8,2.7-4,5.1
			c0.1,0.1,0.3,0.3,0.4,0.4c-3.8,77.2-19.3,151.9-35.2,227.4c-8.1,38.3-15.8,76.7-21.2,115.4c-2.5,18.1-4.4,36.4-5.7,54.6
			c-1.1,15.4-2.9,32.4-1.2,48c-1.3-1.3-2.6-2.6-3.9-3.8C1423.1,1648,1419.8,1650.3,1421.3,1652.7z M1567.3,1631.6
			c-1.6-9.4-7-18.3-15.3-22.2c-1.9-0.9-3.6,1.3-2.2,2.9c9.3,10.4,14.6,22.5,8.1,36c-5.6,11.7-20.9,15.8-32.7,13.3
			c6.9-8.9,8.9-20.1-2.7-27.6c-1.2-0.8-3,0.8-2.1,2.1c8.3,11.3,3.4,22.1-7.6,28.8c-9.7,6-22.2,5.2-32.9,3.2
			c-16.6-3.1-29.2-12.7-42.8-21.7c0.5-12.1,0-24.4,0.6-36.3c1.2-20.6,3.6-41,6.4-61.4c5.5-38.7,13.5-77.1,21.5-115.4
			c15.1-72.2,31.9-146.5,31.4-220.7c2.7,2.5,5.4,5.1,7.8,8c2,2.3,6.3,0.5,6-2.5c-0.3-3-0.4-6.1-0.6-9.1c0.2,0.1,0.4,0.2,0.7,0.3
			c0.1,0,0.2,0,0.3-0.1c0-0.1,0.1-0.1,0.1-0.2c1.1,1.7,8.3,5.4,10,6.5c6.9,4.5,13,9.8,18.9,15.5c9.6,9.3,17,20.7,22.6,32.8
			c-2.3-1-4.5-1.9-6.9-2.6c-0.2-0.4-0.5-0.8-0.7-1.2c-0.7-1.1-2.4-0.7-2.6,0.4c-0.7-0.2-1.4-0.4-2.1-0.5c-2-0.3-4.1,2.2-2.2,3.8
			c2.1,1.8,4.4,3.2,6.7,4.5c8.5,24.8,15,48.7,16.1,75.5c1.3,29.9-4.4,59.7-13.9,88c-9,26.9-22.8,52-38.4,75.6
			c-12.3,18.6-29.2,42.3-21.6,65.8c0.9,2.9,5.4,2.4,5.3-0.7c0-0.9,0-1.7,0.1-2.5c18.7,1.4,35.2,4.3,51.3,14.6
			C1570.3,1594.9,1579.2,1615.4,1567.3,1631.6z"/>
		<path fill="#D0CABC" d="M1284,1106.9c-55.7,1.3-112.5-10.4-159.8-39.9c4.1,12,5,25,2.6,37.4c-39.8-24.3-75.6-54.9-105.7-90.4
			c-4.7,14-9.4,27.9-14.1,41.9c-21.6-43.1-37.1-89.2-45.9-136.6c-6.3,6.9-10.8,15.6-12.7,24.7c-1.3-43.2-0.1-86.4,3.4-129.4
			c-11.8,3.5-23.1,8.3-34.4,13.5c3.2,0.3,6.3,0.8,9.5,1.6c1.7,0.5,1.3,3-0.4,3c-0.2,0-0.3,0-0.5,0c-12.9,9.3-22.4,20.3-26.5,35.5
			c5.4-2.5,10.9-5.1,16.5-7c1.8-0.6,2.8,2.1,1.3,3c-0.7,0.4-1.4,0.7-2,1.1c0,0.1,0,0.2,0,0.4c-10.8,24.7-16.8,49.6-16,76.3
			c2.7-3.8,6-7.1,10.4-9.3c0.7-0.4,1.5-0.1,2,0.4c0-0.1,0-0.2,0.1-0.2c0.3-1.1,2.1-0.9,2.1,0.3c-0.8,16.8-3.4,33.3-2.7,50.2
			c0.6,14.9,2.6,29.5,5.7,44.1c1.5-2,2.8-4,4.1-6.3c1.2-2,4.3-1.1,4.3,1.2c0,23.2,19.5,42.8,31.1,63c18.3,12.1,38,22.3,58.5,31
			c62.5,26.5,132.1,38.6,199.8,30.5c48.9-5.9,96.5-21.9,138.4-47.7C1330.2,1103.6,1307.2,1106.3,1284,1106.9z"/>
		<path fill="#B2977E" d="M815.2,883.8c0,0,0.1-0.1,0.1-0.1c0.8-0.5,1.5-1.1,2.3-1.6c2.5-1.7,5.4,2.2,3.2,4.2
			c-0.7,0.6-1.3,1.3-2,1.9c0.7,37.9,5.6,73.9,19,109.3c6.1-9.9,13.2-19.1,21.9-27.1c2.7-2.5,6.1,1.2,3.9,3.9
			c-0.2,0.2-0.4,0.5-0.6,0.7c0.1,0.1,0.2,0.2,0.2,0.3c17,43.1,46.4,76.8,82.4,102.8c-4-6.6-7.7-13.4-11.6-19.8
			c-5.7-9.2-11-18.1-12.8-28.4c-1.2,1.8-2.6,3.6-4.1,5.4c-1.3,1.5-3.9,0.7-4.4-1.2c-7.1-30.8-10.8-67.1-1.9-98.1
			c-4.6,4.3-8.6,8.2-11.7,14c-1,1.9-3.7,0.9-3.9-1c-1.7-28,3.1-56.6,16.2-81.6c-4.6,2.3-9.4,4.2-14,6.3c-1.7,0.7-3.4-0.5-3-2.3
			c3.1-15.4,12.4-30.7,26.3-38.7c-4.6-0.1-9.3-0.2-14,0.1c-2.5,0.2-3.5-3.6-1.3-4.8c14.1-7.3,30.2-14.2,46.7-18.6
			c1.7-19.5,3.8-39,6.5-58.4c-9.7,8-19.5,16-29.2,24c14.6-33.6,29.1-67.2,43.7-100.7c-13.8,6.6-27.6,13.3-41.3,19.9
			c17.3-41.3,39.9-80.3,67.1-115.8c-13.4,4.6-26.9,9.2-40.3,13.7c46.2-53.9,100.8-100.4,161.3-137.4
			c-35.5,11.6-70.1,26.2-102.7,44.5c-50.2,28-89.6,68-122.6,114.8c-59.9,85-94.7,185.8-99.4,289.6
			C800.9,896.1,807.4,889.5,815.2,883.8z"/>
		<path fill="#B2977E" d="M798.1,1223.2c5.4-5.1,11.9-10.5,18.6-14.1c-27.8-15.3-54.5-32.5-79.8-51.5c-0.7,10-1.4,20.1-2.1,30.1
			c-46.5-35-84.8-80.8-111-132.7c-9.7,13-16.7,28-20.3,43.8c-15.3-72.1-19.4-146.6-12.2-219.9c-9.9,6.6-19.8,13.2-29.7,19.7
			c3.9-54.9,21.1-108.8,49.3-156.1c-0.8,0.5-1.7,1-2.5,1.5c-16.2,10.1-31.4,21.9-42.2,37.9c-38.5,56.7-49.9,133.2-38,199.9
			c11.6,65.3,43.9,125.4,94.5,168.8c49,42.1,110.4,68.3,175.1,72.5C797.8,1223.1,797.9,1223.2,798.1,1223.2z"/>
		<path fill="#B2977E" d="M830.9,1205.5c-0.2,0.2-0.3,0.4-0.4,0.6c0.1,0.1,0.1,0.3,0.2,0.4c0.4,1.5,0.1,2.1-1.4,2.6
			c-0.1,0-0.2,0-0.3-0.1c-0.1-0.1-0.1-0.2-0.2-0.3c-0.1,0.2-0.4,0.4-0.7,0.7c-14.9,20.8-22.6,46.7-21.3,72.3
			c3.1-2.1,6.3-4.2,9.4-6.4c-1.1,43.7,1.2,87.4,6.9,130.7c2.3-3.3,4.7-6.5,7-9.8c8.3,33.2,16.7,66.3,25,99.5c2-3.2,4-6.4,6-9.6
			c10.3,43.6,19.6,93.4-6.1,130.1c5.2-0.9,10.5-1.8,15.7-2.7c6.3,18.9,0.2,40.6-13.2,55.1c1.1-0.1,2.1-0.3,3-0.6
			c17-4.2,29.4-12.9,43.5-22.1c-0.6-13.4,0.1-27.1-0.9-40.3c-1.5-20.5-3.7-41-6.8-61.4c-5.9-38.7-13.7-77.1-21.8-115.4
			c-14.8-70.7-31-143.6-30.5-216.3c-2.7,2.5-5.4,5.1-7.8,8c-2,2.3-6.3,0.5-6.1-2.5C830.5,1213.8,830.7,1209.7,830.9,1205.5
			L830.9,1205.5z"/>
		<path fill="#B2977E" d="M1458.8,1648.4c6.8,0.2,13.6,0.4,20.4,0.6c-22-29.3-33.4-66.4-31.7-102.9c5.7,3.8,8.7,11.2,7.3,17.9
			c10-31.2,19.9-62.4,29.9-93.6c1,7.3,6.3,13.8,13.2,16.4c6.3-35.2,8.5-71.2,6.8-106.9c6.8,5,13.6,10.1,20.4,15.1
			c2-45.3-0.1-90.8-6.3-135.7c6.9,2.4,13.1,6.9,17.5,12.8c1.3-21.4-6-43-19.8-59.4c-2.3-1.3-4.5-2.8-5.1-3.7c0,0.1-0.1,0.1-0.1,0.2
			c0,0.1-0.2,0.1-0.3,0.1c-0.3-0.1-0.5-0.2-0.7-0.3c0.2,3,0.4,6.1,0.6,9.1c0.3,3-4.1,4.8-6,2.5c-2.5-2.9-5.1-5.5-7.8-8
			c0.5,74.2-16.3,148.5-31.4,220.7c-8,38.3-16,76.7-21.5,115.4c-2.9,20.4-5.3,40.9-6.4,61.4c-0.7,12-0.1,24.3-0.6,36.3
			c13.5,9,26.1,18.5,42.8,21.7c8.8,1.6,18.7,2.4,27.4-0.6C1489.9,1664.7,1473.2,1658.3,1458.8,1648.4z"/>
		<path fill="#B2977E" d="M1095.7,1414.6c-5.1,4.5-12.2,12.1-19.5,7.8c-3-1.7-4.2-5.3-5.1-8.4c-2-6.9-3.9-13.9-5.3-21
			c-0.4-1.8-1.3-4.6-1.7-7.3c-3.6,4-7.6,7.9-11.4,11.7c-1.9,1.9-4.6,1.2-6.1-0.8c-13-17.6-23.5-38.2-27.9-59.8
			c-0.7-3.6-4.3-16.2-4-24.6c-4,4.5-8.3,8.8-12.5,13.2c-1.9,2-5.9,1.2-6.4-1.7c-4.1-23.7-6-49.3-0.8-73.1
			c-3.4,4.1-7.4,7.5-11.7,10.9c-2.4,1.9-6,0.8-6.1-2.5c-0.6-14.1-1.2-28.2-1.8-42.3c-0.4-10-1.4-20.3-0.9-30.4
			c-4.5,3.7-9,7.3-12.9,11.6c-2.1,2.3-6,0.5-6-2.5c0.3-18,2.2-36.3,6-53.9c2.4-11.2,4.4-25.9,10.4-36.6c-4.3-2.6-8.6-5.3-12.8-8
			c-0.3,0-0.7-0.1-0.9-0.4c-0.1-0.1-0.2-0.3-0.3-0.4c-18.9-12.6-36.2-27.1-51.3-43.6c-7.5,28.3-14.1,56.9-19.5,85.7
			c5.9,0.3,12-2.1,16-6.5c1.4,50,2.8,100,4.1,150c5.2-3.9,10.4-7.7,15.6-11.6c7.7,41.4,14.4,82.9,20.2,124.6
			c6.8-6.5,13.5-13,20.3-19.5c16.1,48.4,30.9,97.2,44.2,146.4c0.9-7.4,3.7-14.5,8.2-20.4c13.8,29.3,27.8,59.5,29.1,91.8
			c0.7,16.8-2.1,33.5-5.8,49.9c-7,31-17.2,61.2-30.3,90.1c11.2,0.8,22.9-3.9,30.8-12c23.5-23.9,27.2-64.9,31.8-96.5
			c10.1-69.7,14.8-140.1,24.1-209.9C1095.8,1414.5,1095.8,1414.6,1095.7,1414.6z"/>
		<path fill="#B2977E" d="M1418.7,1059.1c-16,15.7-33.5,29.8-52.3,42c8.6,11.6,11.2,31.1,13.7,44.7c3,16.4,4.9,32.9,5.1,49.6
			c0,3-3.9,4.7-6,2.5c-4-4.3-8.4-8-12.9-11.6c0.5,10.1-0.5,20.4-0.9,30.4c-0.5,14.1-1.1,28.2-1.8,42.3c-0.1,3.3-3.7,4.5-6.1,2.5
			c-4.2-3.4-8.3-6.8-11.7-10.9c5.1,23.8,3.3,49.4-0.8,73.1c-0.5,2.9-4.6,3.7-6.4,1.7c-4.2-4.4-8.5-8.7-12.5-13.2
			c0.5,9.5-3.9,24.9-4.9,28.6c-5.5,20.3-14.4,38.9-26.9,55.8c-1.4,2-4.2,2.7-6.1,0.8c-5.5-5.6-11.3-11.1-16-17.4
			c-7.9,11.9-17.7,23-27.1,33.8c9.6,71.6,13.6,143.9,24.9,215.2c4.6,29.4,8.2,77.2,35.7,95.6c3.3,2.2,7.3,4.3,11.6,5.8
			c-12.6-22.9-18.9-49.4-17.6-75.5c3.7,4.7,7.3,9.4,11,14c4.5-48.6,9-97.2,13.5-145.8c6.9,7.2,13.8,14.3,20.7,21.5
			c7.7-57.7,15.4-115.5,23.1-173.2c7.9,4.9,13.3,13.6,14,22.9c11.3-34.8,20.8-70.2,28.4-105.9c5.9,8.2,11.8,16.5,17.7,24.7
			c12.5-45.5,16.4-93.4,11.5-140.4c6,3.3,11.9,6.5,17.9,9.8C1450.9,1139.7,1437.7,1098,1418.7,1059.1z"/>
		<path fill="#D0CABC" d="M1189.9,1157.8c-69.9,2.7-148.6-13.6-212.9-50.1c-1.6,11.8-7,24.3-9,35.6c-2.6,14.6-4.1,29.1-4.8,43.8
			c3.7-3.1,7.6-5.8,12.2-7.8c0-0.2,0-0.3,0.1-0.5c0.1-1,1.4-1,2-0.4c2-0.2,3.5,2.8,1.8,4.2c-0.2,0.2-0.4,0.3-0.6,0.5
			c2.2,11,2.2,22.5,3,33.6c0.9,11.7,1.6,23.3,2.4,35c3.5-3.1,6.9-6.3,10.7-9c1.9-1.4,4.3,0.9,3.8,2.9c1.1,0.2,2.1,1,2.1,2.3
			c-1.1,22.9-1.9,44.4,1.6,66.8c4.5-4.5,9-9,14.1-12.8c2-1.5,4.7,0.9,4.3,3c0.2,0.2,0.4,0.5,0.4,0.9c0,0.2,0,0.4,0,0.6
			c-0.1,0.9-1,1.3-1.8,0.8c0,0,0,0,0,0c3.8,3.3,4.5,22.6,6,28c1.8,6.6,3.8,13.1,6.4,19.5c5.1,12.2,11.5,23.4,19.1,34.1
			c4.9-5,9.9-10,15.6-14.1c2.3-1.6,5.4,1.6,3.8,3.8c0,0-0.1,0.1-0.1,0.1c0.1,0.2,0.2,0.4,0.2,0.6c0,0.2,0,0.4,0.1,0.6
			c0.1,0.9-1.1,1.9-2,1.5c3.9,1.6,5.5,16.7,6.6,20.5c2.2,7.5,4,17.7,13.3,9.5c9-7.9,17-17.2,23.2-27.5c1.7-2.9,5.7-0.4,4.4,2.5
			c-0.9,2-1.9,3.9-2.9,5.9c5.9,12.4,13.4,24,22.4,34.4c6.1,7,25.1,34,37,26.9c-25-29-40.2-66.5-41.4-104.8
			c-6.2,5.5-12.3,11-18.5,16.5c-3.7-26.7-2.4-54.1,3.9-80.4c-9.7,3.1-18.5,9-25,16.8c7.7-17.9,15.4-35.9,23-53.8
			c5.9-13.8,12-27.8,21.6-39.4c9.6-11.5,23.5-20.4,38.5-20.5c-2.2,10-7.8,19.3-15.7,25.9c29.8-7.8,58.7-19.2,85.8-33.9
			c-4.2,6.7-8.5,13.5-12.7,20.2c37.6-17.4,70.8-44.2,96-77.1C1284.8,1143.8,1237.9,1155.9,1189.9,1157.8z"/>
		<path fill="#C9B395" d="M1195.3,792.3c-6.7-4.8-17.4-4.1-25.1-2.3c-3.4,0.8-3.3,5.9,0,6.8c3.5,0.9,6.9,1.1,10.5,1.5
			c4.2,0.4,8.2,1.6,12.5,1.7C1197.6,800.1,1198.4,794.5,1195.3,792.3z"/>
		<path fill="#C9B395" d="M1205.8,795.2c-3.4,1.2-2.8,6.2,0.9,6.3c0.2,0,0.2,0,0.2-0.1c0.2,0.3,0.5,0.6,0.7,0.9
			c1.2,2.1,4.4,2.1,5.5,0C1215.9,797.3,1210.5,793.6,1205.8,795.2z"/>
		<path fill="#F2685E" d="M1142.7,927.1c8.8-7.8,21.1-11.8,33-11.1c11.2,0.7,21.8,4.9,31.3,11c0.9-2.3,1.5-4.8,1.7-7.6
			c0.3-5.4,0.5-10.4,1.9-15.3c-6.5,1.1-13.3,0.4-19.5-2.7c-11.9-6-17.7-16.6-20.1-28.4c-0.4,3.3-0.7,6.6-1.2,9.8
			c-1.1,8.5-4.3,13.1-12,16.9c-6.4,3.2-14.3,4.8-21.4,3.9C1139.3,911.2,1140,919.5,1142.7,927.1z"/>
		<g>
			<path fill="#B2977E" d="M1491.1,594.4c-1.1,2.4-2.2,4.9-3.4,7.3c-5.7,11.5-11.6,25.3-20.8,34.5c6.7,10.2,13,20.6,18.7,31.3
				c6.7-12.7,16.7-24.3,23.4-37c2.8-5.3,5.5-10.6,8-16C1507.6,608.8,1498.9,602.2,1491.1,594.4z"/>
			<path fill="#B2977E" d="M1457,468.1c-6.7,0.5-13.3,3-18.6,7.2c5.3-10,11.8-19.4,19.3-27.9c-6.7,1.3-13.5,2.7-20.1,4.4
				c-38.7,9.8-73.7,26.2-108.9,44.6c8.2,5.7,16.1,11.8,23.9,17.7c31.2-18.2,65.8-30.8,101.3-38.9
				C1454.8,472.8,1455.8,470.4,1457,468.1z"/>
		</g>
		<g>
			<path fill="#B2977E" d="M1012.5,493c-20.7-5.5-40.9-12.4-61.2-19c1.2,7.6,1.4,15.4,0.6,23.1c-5.6-5.3-11.2-10.6-16.8-16
				c-1,5.6-2.2,11.2-3.5,16.8c15.6,4.4,31.1,10.2,43.9,18.9C987.2,508.1,999.5,500.1,1012.5,493z"/>
			<path fill="#B2977E" d="M853.3,600.9c-1.2-2.3-2.4-4.6-3.6-7c-8.6,7.4-17.7,14.1-27.4,20.1c6.5,20.6,15.1,40.2,27,58.7
				c7.8-14.9,16.3-29.5,25.5-43.6c-0.5-0.1-0.9-0.2-1.4-0.4C864.4,624.8,857.7,609.1,853.3,600.9z"/>
		</g>
		<path fill="#F2685E" d="M1483.9,592.9c-4.3-7-7.6-14.6-10-22.4c-5.7-18.5-6.8-38.1-7.8-57.5c-5.2,4-10.4,8-15.6,12.1
			c0.5-14.3,2.8-28.6,6.8-42.4c-34.5,8-67.8,19.9-100.7,34.5c32.1,25,61.6,53.8,86.6,85.8c7,9,13.7,18.2,20.1,27.7
			c5-11.3,12.9-21.6,18.2-32.8C1482.4,596.3,1483.1,594.6,1483.9,592.9z"/>
		<path fill="#F2685E" d="M970.9,520.4c-15-4.4-29.4-10.2-44.3-15c-3.2,16-10.1,31.2-20.2,44.1c1-8-1.3-16.3-6.3-22.6
			c-11.6,22.6-27.1,43.1-45.5,60.6c1,2,2,4,3,5.9c2.6,4.8,5.3,9.6,8.3,14.2c2,3.1,9,10.4,8.1,14.4c0.5-2.2,3.7-2.6,4.8-0.6
			c0.1,0.2,0.2,0.4,0.3,0.6c3.5-5.2,7.1-10.4,10.8-15.5C913.7,574.2,939.9,544.7,970.9,520.4z"/>
		<path fill="#E0CEB1" d="M1372,558.8c-11.9-7.4-24-14.5-37.2-19.3c-3.2-1.1-5.4,4.1-2.3,5.5c9.3,4.1,17.7,9.4,26.1,15.2
			c8.1,5.6,20.2,11.7,24.7,20.9c1.8,3.8,7,1.6,7.3-2C1391.2,569.2,1379.4,563.4,1372,558.8z"/>
		<path fill="#E0CEB1" d="M1400.4,593.5c-3.7-8.4-13.3-9.9-21.4-11.5c-4.2-0.8-6,5.4-1.8,6.5c6.8,1.8,13.2,3.6,18.3,8.8
			C1398.1,600,1401.7,596.6,1400.4,593.5z"/>
		<path fill="#E0CEB1" d="M1418.9,615.5c-2.6-3.5-5.4-6.1-9.4-8c-4.7-2.3-8.8,4.9-4.1,7c2.9,1.3,5.8,3,8.3,4.9
			c1.2,0.9,2.6,1.3,4,0.5C1419.1,619.1,1419.9,616.9,1418.9,615.5z"/>
		<path fill="#E0CEB1" d="M1481,711.6c-2.7-15.7-16.1-30.9-27-41.8c-3.2-3.2-7.8,1.6-4.9,4.9c5.5,6.3,10.1,13.2,14.4,20.4
			c3.8,6.3,5.9,13.7,10.3,19.5C1476.5,718.1,1481.8,716.1,1481,711.6z"/>
		<path fill="#E0CEB1" d="M1480.3,729.9c-2.1-4.4-5.5-8-8.5-11.8c-2.1-2.7-6,1.1-3.8,3.8c3,3.6,5.9,7.2,8.9,10.6
			C1478.6,734.4,1481.3,732,1480.3,729.9z"/>
		<path fill="#E0CEB1" d="M1512.7,454.6c-1.2,0.7-2.7,0.5-4,0.4c1-0.8,1.4-2.1,0.4-3.4c-4.3-5.7-11.1-2.6-16.3,0
			c-3.2,1.6-1,6.7,2.4,5.7c1.8-0.5,3.6-1,5.3-1.5c1.4-0.4,3.2-0.9,4.6-0.2c0.2,0.1,0.3,0.1,0.5,0.1c-1.5,1.7-0.8,5.3,2.2,5.3
			c3.4,0.1,6.1-0.1,8.2-3C1517.6,455.9,1514.7,453.6,1512.7,454.6z"/>
		<path fill="#E0CEB1" d="M859.7,467.8c-1.6-0.3-3.1-0.4-4.7-0.4c0.8-0.9,1.2-2.2,0.5-3.5c-5.3-10-20.5-6.6-29.1-4
			c-3.3,1-2.9,6.8,0.9,6.3c7.8-1,15.7-2.2,22.9,1.2c-0.3,0-0.6,0-0.9,0c-3.7,0.1-3.7,5.7,0,5.8c3.6,0.1,6.9,0.1,10.5-0.5
			C862.1,472.2,862.1,468.2,859.7,467.8z"/>
		<path fill="#E0CEB1" d="M670.1,736.4c-9.2-14-29.9-1.6-38.1,7.6c-3.5,4,2,9.6,5.8,5.8c6.1-6,18.4-13,27-8.2
			C668.1,743.4,672.3,739.7,670.1,736.4z"/>
		<path fill="#E0CEB1" d="M671.8,745.8c-2.6-1.4-5.7-2.7-8.7-2.4c-3.2,0.3-6.2,1.1-9.4,1.7c-3.5,0.6-2.7,6.4,0.8,6.2
			c4.9-0.3,10.3-1.5,15.2-0.6C672.6,751.2,674.7,747.3,671.8,745.8z"/>
		<path fill="#E0CEB1" d="M686.5,813c-0.4-4.8-7.1-4.8-7.5,0c-1,11.9-1.8,24.1-4.7,35.7c-1,3.9,4.9,6.7,6.7,2.8
			C686.8,838.9,687.5,826.8,686.5,813z"/>
		<path fill="#E0CEB1" d="M674.4,860.7c-0.1-5-7.7-5-7.8,0c-0.2,6.1-0.1,11.9,0.9,18c0.5,3,5.6,3,6,0
			C674.5,872.7,674.6,866.8,674.4,860.7z"/>
		<path fill="#E0CEB1" d="M891.7,1404.6c-1.5-4.1-7.9-2.5-6.6,1.8c5.2,17.3,7.9,35.7,15.1,52.2c1.6,3.7,6.8,0.9,6.2-2.6
			C903.2,1438.2,897.9,1421.6,891.7,1404.6z"/>
		<path fill="#E0CEB1" d="M910.1,1469.5c-1.4-4.1-7.9-2.5-6.6,1.8c2,6.9,4.9,13.7,6.8,20.6c0.9,3.1,5.2,2.3,5.4-0.7
			C916.2,1483.2,912.6,1476.8,910.1,1469.5z"/>
		<path fill="#E0CEB1" d="M785.8,1345.7c-0.2,0.2-0.4,0.5-0.6,0.7c0.7-2.8,1.2-5.6,2-8.3c1.2-4.4,2.3-8.9,2.2-13.5
			c-0.1-2.8-4.2-3.5-5-0.7c-2.3,9-7.8,19-6.5,28.4c0.2,1.7,1.6,2.2,2.9,2c-2.1,6.9-1.7,15.3-0.7,21.3c0.5,3,5.6,3,6,0
			c0.6-4.4,0.5-8.8,0.8-13.2c0.2-3.5,0.8-9.5,3.3-12.3C792.9,1347.2,788.8,1343,785.8,1345.7z"/>
		<path fill="#E0CEB1" d="M792.9,1404.8c-0.9-5-0.6-10.2-0.7-15.2c-0.1-3.9-5.8-3.8-6,0c-0.3,6.1-1.3,11.7,2,17.2
			C789.8,1409.3,793.4,1407.6,792.9,1404.8z"/>
		<path fill="#E0CEB1" d="M806.4,1433.4c-2.1-4.5-3.5-9.5-4.8-14.3c-1.3-5-8.9-2.9-7.7,2.1c0.7,2.7,1.4,5.5,2.5,8.1
			c1.2,2.8,3.4,5.3,5.4,7.6C804.2,1439.6,807.7,1436.2,806.4,1433.4z"/>
		<path fill="#E0CEB1" d="M1552.2,1385.5c-1.6-3.1-7-0.9-5.7,2.4c3.2,8.3,1.2,16.3,2.3,24.9c0.4,3.5,5.2,4.5,6.3,0.9
			C1557.9,1404.4,1556.7,1394.2,1552.2,1385.5z"/>
		<path fill="#E0CEB1" d="M1549.2,1417.7c-0.1-4.4-6.8-4.4-6.9,0c-0.1,4.8-0.4,9.5,0.5,14.3c0.6,2.9,5.3,2.9,5.9,0
			C1549.6,1427.3,1549.3,1422.6,1549.2,1417.7z"/>
		<path fill="#E0CEB1" d="M1527.9,1450.8c-0.3-5.4-8.3-5.5-8.4,0c-0.1,5.3-0.1,11.1-1.3,16.3c-0.9,3.6,3.9,5.5,5.9,2.5
			c1.6-2.5,3.1-5.3,3.7-8.3C1528.5,1457.9,1528.1,1454.2,1527.9,1450.8z"/>
		<path fill="#E0CEB1" d="M1455.7,1363.9c-1.2,15.7-6.3,30.4-9.9,45.6c-0.8,3.6,4.6,6.2,6.2,2.6c6.5-15.3,9.6-31.6,10-48.2
			C1462.1,1359.8,1456,1359.9,1455.7,1363.9z"/>
		<path fill="#E0CEB1" d="M1435.7,1436.1c-0.3,5.6-1.4,11-2.8,16.4c-0.9,3.3,3.4,4.7,5.2,2.2c3.9-5.5,4.6-11.9,4.8-18.6
			C1443,1431.4,1435.9,1431.5,1435.7,1436.1z"/>
		<path fill="#E0CEB1" d="M1435.4,1467.9c-0.6-6-10.2-6-9.5,0c0.5,4.3,3.2,11.5,0.5,15.4c-1.9,2.9,1.9,6.6,4.7,4.7
			C1438.7,1483.1,1436.2,1475.3,1435.4,1467.9z"/>
		<path fill="#FFFFFF" d="M1384.3,829c-4.6-3.1-9.3-2-13.7,0.3c0.1-0.7,0-1.5-0.6-2.2c-8.7-11.5-20.8-4.1-32.1-1.9
			c-4.1,0.8-3.2,7.7,1,7.4c9.1-0.8,17.9-6,26.4-0.8c0.2,0.1,0.4,0.2,0.6,0.2c-0.1,0.1-0.3,0.2-0.4,0.3c-3.3,2.2-0.4,7.2,3.1,5.3
			c4.3-2.5,8.5-4.6,13.7-3.7C1385.2,834.5,1386.9,830.8,1384.3,829z"/>
		<path fill="#FFFFFF" d="M1411.3,857.1c-4.7-3-9.6-6-15.2-6.8c-4.1-0.6-6,5.7-1.7,6.3c5.4,0.8,9.6,4.4,14.8,5.7
			C1412.3,863,1414,858.8,1411.3,857.1z"/>
		<path fill="#FFFFFF" d="M1418.6,889.4c-0.8-4.4-4.4-7.3-7.7-10.1c-3.1-2.7-7.7,1.9-4.5,4.5c3,2.5,5.2,5.2,7.7,8.2
			C1416,894.2,1419,891.8,1418.6,889.4z"/>
		<path fill="#FFFFFF" d="M1303.8,1290.9c-0.5-3.3-6.1-2.5-5.9,0.8c0.7,9.6,0.7,19.5,2.5,29c0.5,2.9,5.4,2.9,5.9,0
			C1308.1,1310.8,1305.3,1300.5,1303.8,1290.9z"/>
		<path fill="#FFFFFF" d="M1296.4,1325.9c-0.4-3.6-5.8-3.7-5.7,0c0.1,5.3,1.2,10.1,1.9,15.3c0.4,2.7,4.1,1.6,4.4-0.6
			c0.3-2.4,0.5-4.9,0.4-7.4C1297.3,1330.8,1296.7,1328.3,1296.4,1325.9z"/>
		<path fill="#FFFFFF" d="M1261.3,1355.7c-0.6,3.8-3,6.9-4.7,10.2c-1.6,3.3,2.2,6,4.9,3.8c3.7-3,5.6-8.5,5.7-13.2
			C1267.4,1353.1,1261.8,1352.3,1261.3,1355.7z"/>
		<path fill="#FFFFFF" d="M1244.9,1372.4c0.1,2.7-0.1,5.2-0.5,7.8c-0.5,3.1,3.2,4.8,5,2.1c2.2-3,2.3-6.4,2.2-10
			C1251.6,1368.1,1244.8,1368.1,1244.9,1372.4z"/>
		<path fill="#FFFFFF" d="M1201.1,1401c-0.8-3.3-4.8-2.6-5.9,0c-1.5,3.7-3.4,7.1-5.7,10.4c-1.7,2.4,1.6,5.5,4,4
			c2.3-1.5,4.6-3.1,6.1-5.5C1201.2,1407.1,1201.8,1404.2,1201.1,1401z"/>
		<path fill="#FFFFFF" d="M1181,1416.7c-0.5,2.1-1.7,4.1-2.1,6.2c-0.4,2.6,1.5,4.8,4.2,4.2c4.3-0.9,5.2-5.7,5.4-9.4
			C1188.6,1413.4,1182,1412.5,1181,1416.7z"/>
		<path fill="#F3756E" d="M1416,764.4c-15.4-5.9-36.8-8-51.3,1c-6.8,4.2-5.1,11.3-0.8,16.3c0.3,0.3,0.6,0.5,0.9,0.8
			c0.2,1.3,0.8,2.5,1.8,3.4c12.3,10.7,35.6,9.8,50.6,7.1C1436.8,789.5,1430.8,770.1,1416,764.4z"/>
		<path fill="#F3756E" d="M991.9,762.8c-16.3-2.7-37.6-0.4-50.1,11.3c-5.8,5.5-2.7,12.1,2.5,16.1c0.3,0.2,0.7,0.4,1,0.6
			c0.5,1.2,1.3,2.3,2.4,3c14.2,8,36.8,2.4,51-3.3C1017.4,783.2,1007.5,765.4,991.9,762.8z"/>
		<path fill="#4C4033" d="M1302.8,692.1c-27.3-4.9-48.2,19.6-56.1,42.6c-1.7,5,5.2,6.9,7.8,3.3c12.2-16.4,26.4-33.2,49.1-28.1
			c13.4,3,24,10.8,28.5,23.9c2.2,6.6,2.6,8.9,8.8,12.7c4.4,2.7,10.9,0.2,12-4.9C1359.2,713.6,1325.3,696.1,1302.8,692.1z"/>
		<path fill="#4C4033" d="M1051.2,692.1c27.3-4.9,48.2,19.6,56.1,42.6c1.7,5-5.2,6.9-7.8,3.3c-12.2-16.4-26.4-33.2-49.1-28.1
			c-13.4,3-24,10.8-28.5,23.9c-2.2,6.6-2.6,8.9-8.8,12.7c-4.4,2.7-10.9,0.2-12-4.9C994.7,713.6,1028.6,696.1,1051.2,692.1z"/>
	</g>
	<g>
		<path fill="#61C3A8" d="M1872.8,1328.7c-0.4,2.2-3.7,2.9-5,1c-7.9,1.5-15.7,3-23.6,4.6c0.6,17.4,10.9,33,9.3,51
			c-1.3,15.6-7.1,28.3-15.4,41.4c-9.6,15.1-20.4,31.9-15.1,50.7c5.3,18.7,19.7,34.1,39.2,38.1c18.1,3.7,47.5,1.1,58.2-16.9
			c10.7-18.1,2.5-38.9-4.2-56.9c-14-37.7-27.8-75.5-41.7-113.3C1873.9,1328.5,1873.4,1328.6,1872.8,1328.7z M1886.3,1501.6
			c-41.8,10.8-59.4-54.2-29.9-77.1c0.1-0.1,0.1-0.1,0.2-0.2c1.5-1.2,3-2.1,4.5-2.9c0.2-0.1,0.3-0.2,0.4-0.3c0.1,0,0.2-0.1,0.3-0.1
			c15.3-6.5,34.4,8.7,39.1,23.1C1906.4,1460.9,1908.9,1495.8,1886.3,1501.6z"/>
		<path fill="#B8D0BE" d="M1664.3,1174.3c0.6,23.3,39.1,36.3,56.1,44.7c36.2,17.8,71.5,37.4,107.6,55.6c-2.3-7.2-4.6-14.4-6.9-21.5
			C1768.5,1227.2,1716.3,1201,1664.3,1174.3z"/>
		<path fill="#61C3A8" d="M2061.2,1289.3c-21.3-11.2-39.8-3-60.1,5.9c-14.5,6.4-29.8,11.1-45.9,8.1c-15.9-3-28.9-13.3-44.6-15.9
			c-2.6,7.7-5.3,15.4-7.9,23.1c1.4,1.2,0.4,3.4-1.3,3.9c-0.9,4.8,22.7,14.7,26.4,16.7c19.5,10.5,39,20.9,58.5,31.4
			c18,9.7,40.9,27.1,62.2,26.3c23.5-0.9,37.8-25.3,39-47C2088.8,1321,2080.6,1299.4,2061.2,1289.3z M2070.3,1352.9
			c-11.5,19.1-42.1,16.2-59.1,6c-14-8.4-29.4-32.3-13.4-46.4c0.1-0.1,0.3-0.2,0.4-0.3c12.4-12,32.7-13.6,48.4-6.6
			C2063.3,1313,2082,1333.6,2070.3,1352.9z"/>
		<path fill="#B8D0BE" d="M1799.5,1128.7c-7.3-18.8-13.8-47-34.2-55.9c9.1,19.8,15.1,41.4,22.1,62c7.3,21.4,14.5,42.8,21.7,64.3
			c14.2,42.8,29.7,85.7,40.9,129.4c0,0.1,0,0.2,0,0.3c5.4-1.4,10.8-2.7,16.1-4c-13-43.6-26.7-87.1-42-130
			C1816.2,1172.6,1808,1150.6,1799.5,1128.7z"/>
		<path fill="#B8D0BE" d="M1903.4,1293c-16.4-7.8-32.7-15.7-49-23.7c2.5,7.5,4.9,15,7.3,22.5c0.5-0.1,1.1-0.1,1.7,0.1
			c11.5,5.5,23,10.9,34.6,16.2c2-5,4-10,6.1-15C1903.9,1293.1,1903.7,1293.1,1903.4,1293z"/>
		<path fill="#185145" d="M1861.9,1421.1c-0.1,0-0.2,0-0.3,0.1c-0.2,0.1-0.3,0.2-0.4,0.3c-1.6,0.7-3.1,1.6-4.5,2.9
			c-0.1,0.1-0.1,0.1-0.2,0.2c-29.5,22.9-11.9,87.9,29.9,77.1c22.6-5.9,20.1-40.8,14.7-57.4
			C1896.4,1429.8,1877.2,1414.6,1861.9,1421.1z M1872.8,1496c-16-2.2-23.9-21.3-25.3-35.2c-1.3-12.5,3.2-24.4,11.7-33.1
			c17.9-2.9,30.5,4.1,36.4,22C1901.6,1467.8,1898.5,1499.6,1872.8,1496z"/>
		<path fill="#185145" d="M2027.9,1278.6c-22.4,4.1-39.7,19.4-63.5,19.4c-13.5,0-25-6.3-36.8-12c-5.1-2.5-10.3-4.2-15.7-4.1
			c-0.6-1.2-2.8-1.3-3.5,0.3c0,0,0,0,0,0c-1.4,0.3-2.7,0.6-4.1,1.2c-1.7,0.7-1.6,3.3,0.5,3.4c0.6,0,1.1,0.1,1.7,0.1
			c-0.3,0.6-0.5,1.2-0.8,1.9c-17.9-8.6-35.7-17.2-53.6-25.9c-10.2-30.6-20.9-61.1-32-91.4c-8.5-23-17.2-46-26.8-68.6
			c-3.8-8.8-15.8-34.8-28.9-31.8c-0.1-0.2-0.2-0.4-0.3-0.6c-0.8-1.6-3.1-0.4-2.7,1.1c5,21.8,13.9,43.2,21.1,64.4
			c7.2,21.4,14.4,42.9,21.5,64.4c5.1,15.3,9.9,30.7,14.8,46.1c-52.2-25.6-104.1-51.7-155.8-78.3c0,0,0,0,0,0
			c-0.1-0.1-0.2-0.1-0.3-0.2c0,0-0.1,0-0.1,0c-0.3-0.1-0.5-0.2-0.8-0.2c-0.1,0-0.1,0-0.2,0c-0.5,0-1,0.1-1.4,0.4
			c-1.1,0.8-1.7,2.3-0.8,3.4c-1.4,24.5,30.5,38.4,48.7,47c41.2,19.5,80.9,42.1,121.8,62.5c5.3,16.2,10.8,32.2,16.9,48.1
			c0,0.1,0.1,0.2,0.1,0.2c-0.9,0.2-1.9,0.5-2.8,0.7c0-0.6,0-1.3,0.1-1.9c0.2-1.8-2.4-2.3-3.2-0.9c-0.8,1.4-1.3,2.7-1.8,4
			c-0.1,0-0.2,0.1-0.3,0.1c-1.7,0.4-1.6,2.4-0.5,3.2c-0.7,4.5,0,9.1,1.2,14.2c2.9,12.6,7.8,23,7.6,36.3c-0.2,24.2-19,40.2-27.3,61.4
			c-13.6,34.5,9.3,68.7,44.2,75.9c33.4,6.9,73.5-13.7,67-51.8c-4.1-24.3-15.4-47.8-24-70.8c-9.4-25.2-18.8-50.4-28.3-75.6
			c-0.6-1.5-1.9-2.4-3.5-2c-1.3,0.3-2.6,0.7-3.9,1c-2.6-8.7-5.3-17.4-8.1-26c10.9,5.2,21.8,10.3,32.7,15.3c-0.6,1.5-1.2,3-1.8,4.5
			c-0.5,1.1,0.3,2.7,1.3,3.2c22.2,12.1,44.5,24.2,66.7,36.3c21.5,11.7,42.8,25.1,65.6,34.2c16.4,6.6,33.3,5.9,46.9-5.9
			c13.9-12.1,19.5-33.2,19.4-50.9C2094.3,1298.9,2062,1272.4,2027.9,1278.6z M1720.3,1219c-16.9-8.3-55.5-21.4-56.1-44.7
			c52,26.7,104.3,52.9,156.7,78.7c2.3,7.2,4.6,14.4,6.9,21.5C1791.9,1256.4,1756.6,1236.8,1720.3,1219z M1916.1,1441.7
			c6.7,18,14.9,38.8,4.2,56.9c-10.7,18.1-40.1,20.7-58.2,16.9c-19.5-4-33.9-19.5-39.2-38.1c-5.3-18.8,5.5-35.6,15.1-50.7
			c8.3-13.1,14.1-25.8,15.4-41.4c1.5-18-8.7-33.6-9.3-51c7.9-1.5,15.7-3,23.6-4.6c1.4,1.9,4.6,1.2,5-1c0.5-0.1,1-0.2,1.6-0.3
			C1888.3,1366.2,1902.2,1403.9,1916.1,1441.7z M1850,1328.7c0-0.1,0-0.2,0-0.3c-11.2-43.7-26.6-86.6-40.9-129.4
			c-7.1-21.5-14.4-42.9-21.7-64.3c-7-20.5-13-42.2-22.1-62c20.5,8.9,26.9,37.1,34.2,55.9c8.5,21.9,16.7,43.9,24.6,66.1
			c15.3,42.9,29,86.4,42,130C1860.7,1326.1,1855.3,1327.4,1850,1328.7z M1863.5,1292c-0.6-0.3-1.2-0.3-1.7-0.1
			c-2.4-7.5-4.9-15-7.3-22.5c16.3,7.9,32.7,15.8,49,23.7c0.2,0.1,0.4,0.1,0.7,0.2c-2,5-4,10-6.1,15
			C1886.5,1302.8,1874.9,1297.4,1863.5,1292z M2048.7,1388.8c-21.4,0.8-44.2-16.6-62.2-26.3c-19.5-10.5-39-21-58.5-31.4
			c-3.7-2-27.3-11.9-26.4-16.7c1.7-0.5,2.7-2.7,1.3-3.9c2.7-7.7,5.3-15.4,7.9-23.1c15.6,2.6,28.7,12.9,44.6,15.9
			c16,3,31.3-1.7,45.9-8.1c20.3-8.9,38.8-17,60.1-5.9c19.4,10.2,27.6,31.7,26.4,52.5C2086.4,1363.5,2072.2,1388,2048.7,1388.8z"/>
		<path fill="#185145" d="M2046.7,1305.7c-15.7-7-35.9-5.3-48.4,6.6c-0.2,0.1-0.3,0.2-0.4,0.3c-16,14.1-0.6,38,13.4,46.4
			c17,10.2,47.6,13.1,59.1-6C2082,1333.6,2063.3,1313,2046.7,1305.7z M2020.9,1355.8c-19.3-6.2-25.1-22.6-19.9-40.3
			c22.8-15.6,65.8-6.7,65.7,25.9C2066.8,1365.3,2035.4,1360.5,2020.9,1355.8z"/>
		<path fill="#8FA396" d="M1842.1,1266.2c-0.2-0.1-0.4-0.1-0.6-0.2c-2.9-1.1-5.5,2.1-4.8,4.8c0.8,2.7,4.5,3.9,6.5,1.7l0.4-0.4
			C1845.6,1270,1844.6,1267.2,1842.1,1266.2z"/>
	</g>
	<g>
		<path fill="#FFD546" d="M470.2,1355.4c-9.8,9-19.8,17.5-30.2,25.8c24.8,31.7,49.1,63.7,76.3,93.5c13.5,14.7,27.5,29.1,42.5,42.1
			c14.2,12.3,33,31,53.6,29.3c14.5-1.2,27.2-11,25.1-27.1c-1.8-13.3-9.5-23.6-17.8-33.7c-13.8-16.9-27.9-33.6-42.3-50.1
			c-28.8-32.9-59-64.3-88.9-96.3c-0.2-0.2-0.3-0.4-0.4-0.6C482.6,1344.4,476.3,1349.9,470.2,1355.4z"/>
		<path fill="#FFD546" d="M434.7,1379.1c0.3-0.2,0.6-0.4,0.8-0.7c0.2-0.2,0.4-0.4,0.6-0.5c10.7-8.1,20.7-16.9,30.5-26
			c9.6-8.9,20.2-17.5,27.5-28.4c0.1-0.1,0.2-0.1,0.2-0.2c-1.1,0-2.2-1-1.4-2.3c6.3-10.2-12.9-23.4-18.6-29.4
			c-7.2-7.6-14.2-15.3-20.8-23.4c-12.4-15.1-23.8-31-35.2-46.8c-25.3-35-51.5-69.8-81.1-101.4c-7.1-7.6-14.1-15.6-21.9-22.5
			c-12.1-10.7-22.8-7.1-33.8,2.7c-15.3,13.6-30.8,27-46.2,40.5c-8.3,7.2-16.7,14.4-24.9,21.7c-1.6,1.3-3.1,2.8-4.5,4.3
			c2.6,11.6,7,13.6,13,5.9c3.5-2.7,7-5.5,10.4-8.3c14.9-12.2,28.9-25.6,43.7-37.9c0.7-0.6,1.5-0.6,2.1-0.4c2-0.5,4.1-0.1,5.8,1.5
			c5.1,4.6,3.5,10.1,0.3,15.5c-5.5,9.3-17.6,16-26.2,22c-11.3,7.9-22,16.5-26.6,29.7c30.3-0.3,41.4-42.2,72.2-45.1
			c0.8-0.1,1.6,0.5,2.1,1.2c4.9,7.7,1,15.9-5.1,21.8c-11,10.6-23.5,19.4-34.2,30.4c-3,3.1-6,6.2-8.9,9.5c-3.5,9.5-1.8,13.1,5.1,10.8
			c1.6-0.7,3.2-1.4,4.9-2.1c5.7-3.3,10.9-7.1,15.7-11.6c8.4-7.8,16.2-16.5,25.4-23.3c3.8-2.8,17.3-13.2,22.7-10.2
			c5,2.8,8.3,9.1,5.5,14.8c-6,12.4-20.8,21-31.1,29.7c-6.4,5.4-13.5,10.5-19.1,16.7c-2.4,2.4-4.5,5.1-6.2,8.1
			c1.6,1.2,3.2,2.3,4.9,3.5c3.3-1.1,6.3-2.6,9.2-4.6c14.6-10.8,27.4-24.1,42-34.8c4.5-3.3,12.4-7,18.1-4.8
			c16.7,6.3-8.3,29.7-14.3,34.8c-10.3,8.8-21.7,16.7-31.2,26.4c-3.2,3.3-6.9,6.8-9.3,10.6c-5.3,8.5,14.1-1.1,14.1-1.1
			c5-3.7,9.7-7.8,14.1-12.3c14.3-14.3,28.2-30.7,49.6-32.6c1.4-0.1,2.3,1.2,2.4,2.4c2.3,27-21.7,36.8-38.5,51.8
			c-2.9,2.6-6.3,5.4-8.1,8.8c-3.3,6.3,5.3,11.7,10.5,7.8c6.2-4.6,11.4-10.5,17.5-15.2c12-9.4,24.8-17.2,38.6-23.4
			c1.1-0.5,2.2-0.5,3.2,0.4c6.8,6.3,5.3,16.1-1.2,22.3c-13.9,13.1-30.6,23.2-44.3,36.4c-5.7,3.9-4.9,9.2,2.6,15.9
			c3.2-1.2,6.2-2.8,9.1-4.7c3.8-2.7,7.5-5.5,10.9-8.7c5.4-5.1,10.5-10.8,16.2-15.6c10.9-9.3,22.6-16.6,37.4-15.9
			c1.9,0.1,3.3,2.2,2.2,3.9c-10.4,16.8-23.1,34.3-39.4,45.8c-6.2,4.4-13.3,8.6-18.1,14.6c-1.8,1.9-2.9,4-3.3,6.6
			c4.9,1.2,9.8,2.3,14.7,3.5c2.5-1.6,4.9-3.5,7.1-5.5c1.3-1.2,2.6-2.5,3.9-3.8c4.5-4.7,44.6-48.8,50.8-28.8
			c2.7,8.9-7.5,18.8-13,24.4c-9.8,10-20.5,19.1-31.4,27.9c-1.6,1.3-3.2,2.5-4.7,3.9c-3,2.6-6.9,5.6-8.9,9c1.9,4.9,5.2,6.3,9.9,4.1
			C413.2,1394.6,424.5,1386.7,434.7,1379.1z"/>
		<path fill="#B7581B" d="M437.7,1383.1c26.6,37.7,54.3,74.9,86,108.4c15.7,16.6,32.5,32.1,50.5,46.1c15,11.6,33.1,19.1,51.6,12.2
			c15-5.6,19.5-20.8,17.5-35.3c-3-22.1-26.6-42.6-40.2-58.7c-35-41.7-71.2-83.2-110-121.3c-0.3-0.3-0.6-0.4-0.9-0.6
			c2.2-2.5,4.2-5.2,6-8c1.3-1.9-0.7-3.7-2.5-3.4c3.9-5.4,2.2-10.3-0.9-15.7c-6.1-10.6-17.9-19.4-26-28.6
			c-19.5-22.1-35.8-46.8-53-70.7c-16-22.2-32.5-44-50-65.1c-8.7-10.4-17.7-20.6-26.9-30.5c-8.7-9.3-17.7-20.7-29.4-26.3
			c-16.7-7.9-32.3,11.4-42.9,21.2c-20.8,19.4-44.4,36-64.4,56.2c-7.8,7.9-3.9,26.9,9.6,20.2c11.5-5.6,21.6-15.6,31.4-23.8
			c10.6-8.8,21-17.9,30.5-28c4.2,6.3,3.8,11.1-1.3,14.3c-4,3.7-8.7,6.6-13.2,9.6c-6,4-12.2,7.7-17.7,12.3
			c-9.6,7.9-16.9,16.6-20,28.8c-0.5,2,0.9,3.5,2.8,3.7c14.4,1.6,25.5-6.4,35.3-16c5.3-5.2,10-11.1,15.2-16.4
			c3.3-3.3,6.8-6.1,10.6-8.6c2.7-1.7,5.7-3.1,8.8-4c5.2,5.4,5.1,10-0.3,13.8c-5.2,5.9-12.5,10.4-18.4,15.5
			c-7.7,6.7-14.8,13.9-21.7,21.3c-5.5,5.9-14.5,14.5-5.3,21c17,12,46.9-26.4,57-35c3.2-2.7,6.7-5,10.3-7.1c1-0.5,1.9-1,2.9-1.5
			c7.4-5,9.9-1.5,7.5,10.6c-6,7.8-16,13.9-23.5,20.2c-12.2,10.2-27.8,19.9-32.5,36c-0.4,1.3,0.4,2.6,1.7,3c11,3,19.6-2.9,28-9.7
			c7.3-5.9,14.5-12.1,21.7-18.2c7.6-6.4,14.9-15,25.2-16.3c12.2-1.5-5.3,19.5-7.8,22.1c-5.1,5.3-10.8,10.1-16.5,14.8
			c-11.2,9.1-23.5,18-31.3,30.4c-3,4.8,2,10.1,6.9,9.5c10.9-1.2,19.9-9.8,27.7-17c10-9.3,18.6-19.8,30.1-27.3
			c3.1-2.1,6.6-3.5,10.1-4.7c6.3-2.2,6.7-0.6,5.4,6.3c-1.7,9.4-9.4,18.1-16.8,23.6c-7.8,5.8-38.1,22.2-29.9,35.9
			c4,6.7,9,7.4,15.9,4.2c4.4-2.1,8.1-6.1,11.6-9.3c7.8-7.3,16.5-13.5,25.5-19.1c3.4-2.2,7.1-4,10.7-5.9c1.2-0.6,2.4-1.2,3.6-1.8
			c6.4-4.3,7.3-0.6,2.9,11c-5.4,6.3-13.3,11.3-19.7,16.5c-10.5,8.6-29.7,18.7-32.3,33.2c-1.3,7.6,4.9,12.4,11.7,12.4
			c11.4,0,24-13.7,31.3-20.9c11.5-11.3,23.3-23.5,39.9-24.7c-9.5,14.6-21,29.6-35.1,39.7c-8.2,5.9-18,12-22.5,21.4
			c-3.7,7.8,3,13.7,10.1,15c10.2,1.9,19.3-9.3,25.5-15.7c9-9.3,18.2-19,29.1-26c4.4-2.9,13.8-5.1,10,3.4c-2.4,5.4-7.1,9.9-11.1,14
			c-8.5,8.7-18,16.4-27.5,24c-8.6,6.9-18,13.3-21.9,24.1c-0.5,1.3,0.3,2.7,1.4,3.3C402.2,1412.4,424,1393.8,437.7,1383.1z
			 M488.7,1339c29.8,32,60.1,63.4,88.9,96.3c14.4,16.4,28.5,33.1,42.3,50.1c8.3,10.1,16,20.4,17.8,33.7
			c2.1,16.1-10.6,25.8-25.1,27.1c-20.6,1.7-39.4-17-53.6-29.3c-15.1-13.1-29.1-27.4-42.5-42.1c-27.2-29.8-51.5-61.8-76.3-93.5
			c10.4-8.2,20.4-16.8,30.2-25.8c6.1-5.6,12.4-11,18.1-17C488.4,1338.6,488.5,1338.8,488.7,1339z M391,1394.1c2-3.5,5.9-6.4,8.9-9
			c1.5-1.3,3.1-2.6,4.7-3.9c10.9-8.8,21.6-17.8,31.4-27.9c5.5-5.6,15.7-15.5,13-24.4c-6.2-20-46.2,24.1-50.8,28.8
			c-1.3,1.3-2.5,2.6-3.9,3.8c-2.2,2.1-4.5,3.9-7.1,5.5c-4.9-1.2-9.8-2.3-14.7-3.5c0.4-2.5,1.5-4.7,3.3-6.6
			c4.8-6,11.9-10.2,18.1-14.6c16.3-11.5,29-29,39.4-45.8c1.1-1.7-0.3-3.8-2.2-3.9c-14.8-0.6-26.5,6.6-37.4,15.9
			c-5.7,4.9-10.8,10.5-16.2,15.6c-3.4,3.2-7.1,6.1-10.9,8.7c-2.8,1.9-5.9,3.4-9.1,4.7c-7.5-6.7-8.3-12-2.6-15.9
			c13.7-13.2,30.5-23.3,44.3-36.4c6.5-6.2,8-16,1.2-22.3c-0.9-0.9-2-0.9-3.2-0.4c-13.9,6.3-26.6,14.1-38.6,23.4
			c-6.1,4.8-11.3,10.6-17.5,15.2c-5.2,3.9-13.8-1.6-10.5-7.8c1.8-3.5,5.2-6.3,8.1-8.8c16.8-15,40.8-24.9,38.5-51.8
			c-0.1-1.2-1-2.6-2.4-2.4c-21.4,1.9-35.3,18.3-49.6,32.6c-4.4,4.4-9.1,8.6-14.1,12.3c0,0-19.4,9.6-14.1,1.1
			c2.4-3.9,6.1-7.4,9.3-10.6c9.5-9.7,20.9-17.5,31.2-26.4c6-5.2,31-28.5,14.3-34.8c-5.7-2.2-13.6,1.5-18.1,4.8
			c-14.7,10.7-27.4,24-42,34.8c-2.8,2-5.9,3.6-9.2,4.6c-1.6-1.2-3.2-2.3-4.9-3.5c1.7-3,3.8-5.7,6.2-8.1c5.6-6.2,12.7-11.3,19.1-16.7
			c10.3-8.7,25.1-17.3,31.1-29.7c2.8-5.7-0.5-12-5.5-14.8c-5.4-3-18.9,7.4-22.7,10.2c-9.2,6.8-17,15.6-25.4,23.3
			c-4.8,4.4-10.1,8.3-15.7,11.6c-1.6,0.7-3.2,1.4-4.9,2.1c-6.9,2.3-8.6-1.3-5.1-10.8c2.9-3.3,5.9-6.4,8.9-9.5
			c10.7-11,23.2-19.8,34.2-30.4c6.2-5.9,10-14.1,5.1-21.8c-0.4-0.7-1.2-1.3-2.1-1.2c-30.8,2.9-41.9,44.9-72.2,45.1
			c4.6-13.1,15.3-21.8,26.6-29.7c8.6-6,20.7-12.7,26.2-22c3.2-5.4,4.8-10.8-0.3-15.5c-1.7-1.6-3.9-1.9-5.8-1.5
			c-0.6-0.2-1.4-0.2-2.1,0.4c-14.8,12.3-28.8,25.7-43.7,37.9c-3.4,2.8-6.9,5.6-10.4,8.3c-6.1,7.6-10.4,5.6-13-5.9
			c1.4-1.5,2.9-2.9,4.5-4.3c8.2-7.4,16.5-14.5,24.9-21.7c15.5-13.4,31-26.8,46.2-40.5c11-9.8,21.8-13.4,33.8-2.7
			c7.8,6.9,14.8,14.9,21.9,22.5c29.6,31.6,55.8,66.4,81.1,101.4c11.5,15.8,22.9,31.7,35.2,46.8c6.6,8.1,13.6,15.8,20.8,23.4
			c5.7,6,24.9,19.2,18.6,29.4c-0.8,1.3,0.3,2.3,1.4,2.3c-0.1,0.1-0.2,0.1-0.2,0.2c-7.3,10.9-17.9,19.5-27.5,28.4
			c-9.8,9.1-19.9,18-30.5,26c-0.2,0.1-0.4,0.3-0.6,0.5c-0.3,0.2-0.6,0.4-0.8,0.7c-10.2,7.6-21.5,15.5-33.9,19.1
			C396.1,1400.4,392.8,1399,391,1394.1z"/>
		<path fill="#FDB845" d="M493,1321c6.3-10.2-12.9-23.4-18.6-29.4c-7.2-7.6-14.2-15.3-20.8-23.4c-12.4-15.1-23.8-31-35.2-46.8
			c-4.1-5.6-8.2-11.2-12.3-16.8c4.9,31.4,4.2,63.7-0.7,95.2c7.6-4.6,16-7.6,25.5-7.2c1.9,0.1,3.3,2.2,2.2,3.9
			c-9.7,15.7-21.5,32-36.3,43.5c-2.3,8.6-4.8,17.1-7.6,25.6c1.7-1.3,3.4-2.6,5-4c1.3-1.2,2.6-2.5,3.9-3.8
			c4.5-4.7,44.6-48.8,50.8-28.8c2.7,8.9-7.5,18.8-13,24.4c-9.8,10-20.5,19.1-31.4,27.9c-1.6,1.3-3.2,2.5-4.7,3.9
			c-3,2.6-6.9,5.6-8.9,9c1.9,4.9,5.2,6.3,9.9,4.1c12.3-3.6,23.6-11.5,33.9-19.1c0.3-0.2,0.6-0.4,0.8-0.7c0.2-0.2,0.4-0.4,0.6-0.5
			c10.7-8.1,20.7-16.9,30.5-26c9.6-8.9,20.2-17.5,27.5-28.4c0.1-0.1,0.2-0.1,0.2-0.2C493.3,1323.3,492.2,1322.3,493,1321z"/>
		<path fill="#FDB845" d="M488.7,1339c-0.2-0.2-0.3-0.4-0.4-0.6c-5.7,6-12,11.5-18.1,17c-9.8,9-19.8,17.5-30.2,25.8
			c2.5,3.2,5.1,6.5,7.6,9.7c16.9-0.2,33.9-0.2,50.6-2.5c10.1-1.4,20.3-3.7,29.9-7.3C515,1367.1,501.8,1353.1,488.7,1339z"/>
	</g>
	<g>
		<path fill="#B7DDB9" d="M349.9,714.5c9.9,5.2,17.8-9.4,22.2-15c2.3-3,15.3-16.2,12.3-20.3c-2.4-3.3-4.8-6.4-6.7-9.8
			c-11.8,13.5-22.6,28-32.2,43.4C347,713,348.3,713.6,349.9,714.5z"/>
		<path fill="#B7DDB9" d="M291.7,552.8c0,0.3-0.1,0.6-0.1,0.9c16.2,13.2,33.8,22.1,53.3,30.8c4.9-17.9,13.4-35.2,20.3-52.4
			c6.6-16.5,13.2-32.9,19.7-49.4c11.8-29.6,21.9-61,36.1-89.7c-29.3-2.5-58.5-5.4-88-3.3c-14.1,1-32.9,3.5-41.1,16.8
			c-8.2,13.4-11.1,29.9-15.4,44.8c-4.3,15.2-9.1,30.4-13,45.8c-4.9,19.7,2.9,32.7,16.6,46.4c2.7,2.8,5.5,5.3,8.4,7.8
			C289.7,550.4,291.9,551,291.7,552.8z"/>
		<path fill="#B7DDB9" d="M599.6,494.8c-7.2,30.1-22.2,60.1-34.9,88.1c-7,15.5-14,31.2-22.3,46.1c-0.8,1.5-1.7,2.7-2.6,3.8
			c20.9,9.1,41.5,18.7,62.1,28.5c25.4-46,44.9-95,58.1-145.9C639.9,508.6,619.6,502.1,599.6,494.8z"/>
		<path fill="#D8EDDD" d="M259.4,759.1c10.6,4.6,23.6,9.4,35.3,9.3c13.5-0.1,19.3-9.2,24.4-20.2c8.4-18.1,17.9-35.7,29.2-52.2
			c19.9-28.8,43.6-55.4,71.6-76.5c-26.6-7-52.7-15.7-78.1-26.4c-1.2-0.5-0.3-2.4,0.9-2c27.1,9.6,54.6,18,82.5,24.7
			c0.8-0.2,1.6,0,2.3,0.6c28.1,6.7,56.6,11.7,85.5,14.6c7.9,0.8,19.5,3.9,24-5c3.5-6.9,7-13.8,10.4-20.8
			c6.2-12.5,12.2-25.1,17.9-37.8c10.8-24.2,18.7-50.1,30.2-73.9c-0.9-0.3-1.8-0.6-2.7-1c-1.1-0.4-1.6-1.2-1.9-2.1
			c-26.4-19.7-52.1-40.1-80.2-57.4c-14.5-8.9-29.2-17.4-44.6-24.6c-13.2-6.3-27-10.7-40.4-16.3c-8.9,34.5-24.3,68.5-37.1,101.6
			c-6.4,16.5-12.9,33-19.5,49.5c-5.9,14.7-11.1,30.4-18.9,44.3c1.2,1.9-0.9,5-3.5,4.5c-19.8-4.4-39.6-15.6-56.3-29.4
			c-4.7,35-16,69.6-33.7,100c-9.8,16.9-21.1,32.5-33.9,47.2C205.5,729.6,244.2,752.4,259.4,759.1z"/>
		<path fill="#D8EDDD" d="M259.4,759.1c10.6,4.6,23.6,9.4,35.3,9.3c13.5-0.1,19.3-9.2,24.4-20.2c8.4-18.1,17.9-35.7,29.2-52.2
			c19.9-28.8,43.6-55.4,71.6-76.5c-26.6-7-52.7-15.7-78.1-26.4c-1.2-0.5-0.3-2.4,0.9-2c27.1,9.6,54.6,18,82.5,24.7
			c0.8-0.2,1.6,0,2.3,0.6c28.1,6.7,56.6,11.7,85.5,14.6c7.9,0.8,19.5,3.9,24-5c3.5-6.9,7-13.8,10.4-20.8
			c6.2-12.5,12.2-25.1,17.9-37.8c10.8-24.2,18.7-50.1,30.2-73.9c-0.9-0.3-1.8-0.6-2.7-1c-1.1-0.4-1.6-1.2-1.9-2.1
			c-26.4-19.7-52.1-40.1-80.2-57.4c-14.5-8.9-29.2-17.4-44.6-24.6c-13.2-6.3-27-10.7-40.4-16.3c-8.9,34.5-24.3,68.5-37.1,101.6
			c-6.4,16.5-12.9,33-19.5,49.5c-5.9,14.7-11.1,30.4-18.9,44.3c1.2,1.9-0.9,5-3.5,4.5c-19.8-4.4-39.6-15.6-56.3-29.4
			c-4.7,35-16,69.6-33.7,100c-9.8,16.9-21.1,32.5-33.9,47.2C205.5,729.6,244.2,752.4,259.4,759.1z"/>
		<path fill="#237C5F" d="M255.8,765.1c13,6.1,38.3,15.9,52.2,7.5c15.6-9.4,21.1-30.6,29.4-45.8c2-3.6,4.1-7.1,6.2-10.6
			c6.5,0.8,9.1,6.4,16.7,4.2c7.7-2.3,14.1-14.1,18.7-19.9c3.7-4.7,13.2-12.4,13.2-19.1c0-5.7-5.7-12.4-10.4-16.6
			c14-15.5,29.2-30,45.3-43.6c31.1,7.8,62.9,13.3,94.9,16.6c6.8,0.7,11.4,0.4,15.3-2.5c21.3,11.5,42.8,22.5,64.4,33.3
			c1.6,0.8,3.7,0.5,4.6-1.2c27.2-48.1,47.5-99.4,60.5-153.2c0.4-1.7-0.5-3.3-2.2-3.8c-22.8-7.8-45.5-16.2-68.6-23.3
			c-25.3-20.1-51.6-39.2-78.9-56.5c-26.8-17-58.9-35.2-90.7-41.1c0-0.1,0.1-0.2,0.1-0.3c0.5-1.8-2.2-3.1-3.1-1.3
			c-0.2,0.4-0.4,0.8-0.6,1.2c-31.7-8-69.3-11.2-101.5-5.8c-12.1,2-25.3,6-33,16.3c-10.7,14.1-13.6,33.1-18.3,49.8
			c-5,17.8-11.1,35.6-14.7,53.8c-2.8,14.2,3.5,25.5,12.2,36.2c5.5,6.8,12,13.5,19.1,19.8c-7.9,44.9-25.1,86.4-51.8,123.6
			c-6.7,9.3-14.6,17.5-21.6,26.5c-3.9,5-5.4,12.3-2.4,18.2C219.5,744.7,238.8,757.1,255.8,765.1z M384.5,679.2
			c3,4.1-10,17.3-12.3,20.3c-4.4,5.6-12.3,20.2-22.2,15c-1.7-0.9-3-1.5-4.3-1.7c9.5-15.4,20.3-29.8,32.2-43.4
			C379.6,672.9,382,675.9,384.5,679.2z M602,661.3c-20.6-9.8-41.3-19.4-62.1-28.5c0.9-1.1,1.8-2.3,2.6-3.8
			c8.3-14.9,15.2-30.6,22.3-46.1c12.7-28,27.7-58,34.9-88.1c20,7.3,40.3,13.8,60.4,20.6C646.9,566.3,627.4,615.3,602,661.3z
			 M263.6,496.9c3.8-15.4,8.7-30.5,13-45.8c4.2-14.9,7.2-31.4,15.4-44.8c8.2-13.4,27-15.8,41.1-16.8c29.5-2.1,58.6,0.9,88,3.3
			c-14.2,28.7-24.3,60.1-36.1,89.7c-6.5,16.5-13.1,33-19.7,49.4c-6.9,17.2-15.4,34.5-20.3,52.4c-19.5-8.7-37.1-17.6-53.3-30.8
			c0-0.3,0.1-0.6,0.1-0.9c0.2-1.7-2-2.4-3.2-1.6c-2.8-2.4-5.6-5-8.4-7.8C266.5,529.6,258.7,516.6,263.6,496.9z M222.9,709.7
			c12.8-14.7,24.2-30.3,33.9-47.2c17.6-30.5,29-65.1,33.7-100c16.7,13.8,36.6,25,56.3,29.4c2.6,0.6,4.6-2.5,3.5-4.5
			c7.7-13.9,13-29.6,18.9-44.3c6.6-16.5,13.1-32.9,19.5-49.5c12.8-33.2,28.2-67.1,37.1-101.6c13.4,5.6,27.2,10.1,40.4,16.3
			c15.4,7.3,30.1,15.7,44.6,24.6c28.1,17.3,53.8,37.7,80.2,57.4c0.2,0.9,0.8,1.7,1.9,2.1c0.9,0.3,1.8,0.6,2.7,1
			c-11.5,23.8-19.4,49.7-30.2,73.9c-5.7,12.7-11.7,25.3-17.9,37.8c-3.4,7-6.9,13.9-10.4,20.8c-4.5,8.9-16.1,5.8-24,5
			c-28.9-2.9-57.4-7.9-85.5-14.6c-0.6-0.5-1.5-0.8-2.3-0.6c-27.9-6.7-55.4-15.1-82.5-24.7c-1.2-0.4-2,1.5-0.9,2
			c25.4,10.7,51.5,19.4,78.1,26.4c-28.1,21.1-51.8,47.7-71.6,76.5c-11.3,16.5-20.8,34.1-29.2,52.2c-5.1,11-10.9,20.1-24.4,20.2
			c-11.7,0.1-24.7-4.6-35.3-9.3C244.2,752.4,205.5,729.6,222.9,709.7z"/>
		<path fill="#9CD3AA" d="M564.3,583.9c-6.9,15.2-13.7,30.6-21.8,45.1c-0.8,1.5-1.7,2.7-2.6,3.8c20.9,9.1,41.5,18.7,62.1,28.5
			c12.3-22.2,23.1-45.2,32.6-68.6C611,591,587.5,588.1,564.3,583.9z"/>
		<path fill="#9CD3AA" d="M280,438.2c-1.1,4.4-2.2,8.7-3.4,12.9c-4.3,15.2-9.1,30.4-13,45.8c-4.9,19.7,2.9,32.7,16.6,46.4
			c2.7,2.8,5.5,5.3,8.4,7.8c1.2-0.8,3.4-0.1,3.2,1.6c0,0.3-0.1,0.6-0.1,0.9c16.2,13.2,33.8,22.1,53.3,30.8
			c4.9-17.9,13.4-35.2,20.3-52.4c2.7-6.7,5.4-13.5,8.1-20.2C339.4,491,307.9,466.4,280,438.2z"/>
		<path fill="#BBE0C6" d="M560.2,578.5c-64.8-0.6-129.2-23.4-179.8-63.9c-3.7,9.5-7.4,19-11.2,28.4c-5.9,14.7-11.1,30.4-18.9,44.3
			c1.2,1.9-0.9,5-3.5,4.5c-19.8-4.4-39.6-15.6-56.3-29.4c-4.7,35-16,69.6-33.7,100c-9.8,16.9-21.1,32.5-33.9,47.2
			c-15.1,17.3,12,36.7,29.3,45.9c1.3-1.8,2.5-3.5,3.7-5.4c5.3-8.2,9.3-17.1,13.3-25.9c4.9-10.7,9.7-21.5,14.6-32.2
			c9.7-21.4,19.6-43.1,35.2-60.6c12.9-14.4,30.6-25.7,49.6-28.2c-9-3.3-18-6.7-26.8-10.4c-1.2-0.5-0.3-2.4,0.9-2
			c12,4.3,24.2,8.3,36.4,12c0.5,0,1.1,0,1.6,0.1c9.9,0.8,19,3.9,27.7,8.3c5.6,1.5,11.2,3,16.9,4.3c0.8-0.2,1.6,0,2.3,0.6
			c28.1,6.7,56.6,11.7,85.5,14.6c7.9,0.8,19.5,3.9,24-5c3.5-6.9,7-13.8,10.4-20.8C551.8,596.2,556.1,587.4,560.2,578.5z"/>
	</g>
	<g>
		<path fill="#CD92C1" d="M1826.3,890.6c3.2-4.1,6.4-8.3,9.4-12.6c40-56.6,59.9-123.5,89.2-185.7c9.1-19.3,19-39.3,25.7-60
			c0,0,0,0,0,0c-14.6,1.8-32.5-4.4-46.4-8.8c-14.6-4.7-28.9-10.3-42.4-17.7c-27-14.7-51.6-33.9-71.5-57.4
			c-18.5,18.9-35.5,39.5-51.1,60.8c-21,28.6-40,58.7-56.9,89.9c-16.1,29.8-36.4,62.8-39.6,97.3c0.7,3.5,0.6,6-0.6,9.4
			c-0.1,0.3-0.2,0.5-0.4,0.7c23.2,26.9,50,49.5,82.8,64c16.9,7.5,34.7,13.5,53,16.7c16.2,2.8,32.1,2.8,48.4,3.9
			C1826.2,890.9,1826.2,890.8,1826.3,890.6z M1747.1,745.1c-3.3-29.4,1.7-75.4,33.5-89c27.9-16.5,69.6-12.1,76.8,24.8
			c3.2,16.3,0.2,40.5-7,55.6c-7.5,15.6-21.9,29.7-37.4,37.6C1784.9,788.5,1751.1,779.9,1747.1,745.1z"/>
		<path fill="#F69A9C" d="M1843.7,737.2c6.2-13.1,8.1-27.8,8.3-42.2c0.3-18.3-6.4-36.1-25.8-41.5c-15.5-4.3-30.5-0.5-44.7,6.4
			c-8.4,6.8-16.1,13.6-21,23.9c-6.5,13.7-9.4,28.7-8.9,43.9c0.5,15.6,1.1,36.3,17.6,44c13.3,6.2,28.2,4.8,40.9-2.5
			C1822.9,761.8,1837.3,750.8,1843.7,737.2z"/>
		<path fill="#F69A9C" d="M1865,600.5c14.4,7.1,29.3,13.1,44.8,17.2c13.4,3.6,28.7,4,41.6,9c0.3,0.1,0.6,0.3,0.9,0.5
			c4-13.4,6.5-27.2,6.5-41.2c0-35.4-15.1-72.2-51-84.6c-36.1-12.5-69.6,2.9-96.7,27.2c-6.5,5.8-12.7,11.8-18.8,18
			C1814.1,567.8,1837.5,587.1,1865,600.5z"/>
		<path fill="#673E61" d="M1830,896.8c2.6-0.5,2.5-3.4,1-4.8c44.5-50,65.2-115.9,91.8-176.1c25-56.7,63.4-120.3,32.5-182.6
			c-11.9-24-37.6-41.2-64.1-44.3c-30.4-3.5-56.7,10-79.5,29c-25.6,21.2-47.8,48-68,74.3c-21.7,28.1-41.1,57.8-58.7,88.6
			c-11.3,19.7-21.6,40-31.4,60.5c-9.6,20.1-18.2,41-17.4,63.7c0.1,1.9,1.5,3,3,3c20.4,29.6,50.3,52.4,82.3,68.2
			C1753,891.7,1794.7,903,1830,896.8z M1811,528.6c27-24.3,60.6-39.7,96.7-27.2c35.9,12.4,51,49.2,51,84.6c0,14.1-2.5,27.8-6.5,41.2
			c-0.3-0.2-0.5-0.4-0.9-0.5c-12.8-4.9-28.2-5.4-41.6-9c-15.5-4.2-30.4-10.2-44.8-17.2c-27.5-13.5-50.9-32.7-72.8-53.9
			C1798.3,540.5,1804.6,534.4,1811,528.6z M1724.7,870.5c-32.8-14.5-59.6-37.1-82.8-64c0.1-0.2,0.3-0.4,0.4-0.7
			c1.2-3.4,1.2-5.9,0.6-9.4c3.2-34.5,23.5-67.5,39.6-97.3c16.9-31.2,35.9-61.3,56.9-89.9c15.6-21.3,32.6-41.8,51.1-60.8
			c19.9,23.4,44.5,42.7,71.5,57.4c13.5,7.3,27.8,13,42.4,17.7c13.9,4.4,31.7,10.6,46.4,8.8c0,0,0,0,0,0c-6.7,20.7-16.6,40.7-25.7,60
			c-29.3,62.2-49.2,129.1-89.2,185.7c-3,4.3-6.2,8.5-9.4,12.6c-0.1,0.1-0.1,0.3-0.2,0.4c-16.3-1-32.2-1-48.4-3.9
			C1759.4,883.9,1741.7,878,1724.7,870.5z"/>
		<path fill="#673E61" d="M1850.5,736.5c7.2-15.1,10.2-39.2,7-55.6c-7.2-37-48.9-41.4-76.8-24.8c-31.8,13.6-36.8,59.6-33.5,89
			c3.9,34.9,37.8,43.4,65.9,29.1C1828.6,766.2,1843,752.1,1850.5,736.5z M1769.2,771.6c-16.5-7.7-17-28.4-17.6-44
			c-0.5-15.2,2.4-30.2,8.9-43.9c4.9-10.3,12.5-17.2,21-23.9c14.1-6.8,29.2-10.7,44.7-6.4c19.3,5.4,26,23.2,25.8,41.5
			c-0.2,14.4-2.1,29.1-8.3,42.2c-6.4,13.6-20.9,24.6-33.6,31.9C1797.5,776.4,1782.5,777.8,1769.2,771.6z"/>
		<path fill="#F37B7F" d="M1865.8,595.6c-12.4-28.2-15.4-62.1-0.8-89.2c1.7-3.1,3.7-6.2,6.3-8.6c-22.1,3-42.5,15-60.2,30.9
			c-6.5,5.8-12.7,11.8-18.8,18c21.9,21.2,45.3,40.4,72.8,53.9c1.4,0.7,2.7,1.3,4.1,1.9C1868,600.2,1866.8,597.9,1865.8,595.6z"/>
		<path fill="#C17CB5" d="M1770.1,777.6c-12-4.9-21-15.6-22.9-32.5c-2.7-24,0.2-59,18.6-78.5c1.1-10.1,2.4-20.1,3.8-30.1
			c3.8-29,8.7-60.1,24.6-83.8c-1.2-1.4-2.5-2.8-3.7-4.2c-18.5,18.9-35.5,39.5-51.1,60.8c-21,28.6-40,58.7-56.9,89.9
			c-16.1,29.8-36.4,62.8-39.6,97.3c0.7,3.5,0.6,6-0.6,9.4c-0.1,0.3-0.2,0.5-0.4,0.7c23.2,26.9,50,49.5,82.8,64
			c16.9,7.5,34.7,13.5,53,16.7c12.5,2.2,24.9,2.7,37.3,3.3C1794.8,854.8,1778.8,816.9,1770.1,777.6z"/>
		<path fill="#F37B7F" d="M1778.4,731.4c-5.8-30.2,3.6-66.5,31.2-79.6c-9.6,0.6-19,3.7-28,8.1c-8.4,6.8-16.1,13.6-21,23.9
			c-6.5,13.7-9.4,28.7-8.9,43.9c0.5,15.6,1.1,36.3,17.6,44c7.8,3.6,16.1,4.6,24.2,3.4C1787,760.9,1781.3,746.6,1778.4,731.4z"/>
		<path fill="#F8B3B4" d="M1948.8,571.3c-3.6-12.5-8.3-24.9-15.6-35.7c-4.2-6.2-12.8-19.6-21.3-18.7c-1.6,0.2-2.6,0.9-3.2,2.4
			c-0.2,0.5-0.4,0.9-0.6,1.4c-0.8,1.9,1.4,3.3,3,3c0.5-0.1,7.3,9.3,6.9,8.8c4,5.3,7.2,11.1,9.7,17.2c3.6,8.9,4.1,20.5,12,26.8
			C1943.8,579.6,1950.5,576.9,1948.8,571.3z"/>
		<path fill="#F8B3B4" d="M1949.1,593.2c-0.8-5.4-9.9-5.4-10.8,0c-0.2,1.4-0.7,3-0.7,4.4c0,1.7,0.8,3.1,1.7,4.5c2,3.3,6.7,3.3,8.7,0
			c0.9-1.4,1.7-2.8,1.7-4.5C1949.7,596.2,1949.3,594.6,1949.1,593.2z"/>
		<path fill="#F8B3B4" d="M1835.5,680.4c-0.7-4.4-8.2-4.4-8.9,0c-0.9,6.1-0.6,12.3-1.5,18.4c-0.8,5.5-2,10.6-0.4,16.1
			c1.3,4.4,7.5,5.4,9.8,1.3C1840.9,704.9,1837.4,692.3,1835.5,680.4z"/>
		<path fill="#E2ADCF" d="M1918.6,648.5c-8,10.3-13.1,23.3-19.2,34.8c-6.4,12.1-13.1,24.7-16.2,38.1c-1.4,6.1,7,12.5,11.5,6.7
			c8.9-11.4,15.4-24.5,20.9-37.9c4.8-11.7,13-26.2,12.2-39.2C1927.5,645.8,1921.5,644.7,1918.6,648.5z"/>
		<path fill="#E2ADCF" d="M1872.8,744.9c-3.3,5-7.4,10.2-8.4,16.2c-0.8,4.7,4.3,8,8.1,4.7c4.6-4,7-10.1,10-15.3
			C1886,744.3,1876.7,738.9,1872.8,744.9z"/>
	</g>
	<g>
		<path fill="#AFDDCD" d="M1261.6,201.3c-14.3,0.1-28.5,0.4-42.8,0.6c-61.5,0.6-122.9,1.5-184.4,0.9c-6.9,4-6.5,18-7.2,24.1
			c-0.9,7.9-1.6,15.8-2.1,23.8c-0.9,15.9-1.1,31.8-0.2,47.7c1,17.7,0.9,39.3,21.7,45c14.3,3.9,29.7,4.5,44.5,5.2
			c31.5,1.6,63,1.4,94.5,0.6c15.2-0.4,30.5-0.7,45.7-1.3c11.1-0.5,28.8,1.4,38.3-5.6c8.4-6.3,6.4-19.3,6.9-28.5
			c0.4-7.9,0.7-15.7,1.1-23.6c0.7-15.7,1.5-31.4,2.2-47.2C1280.5,227.2,1285.1,201.2,1261.6,201.3z M1252,266.4
			c-2.7,15.3-4.5,34.3-13.6,47.3c-7.3,10.4-28.7,9.3-39.6,10.7c-17.3,2.3-34.8,4.5-52.3,5.1c-26,0.8-65.6,2.8-85.7-17.8
			c-11.3-11.6-14.8-27.6-17.5-43.1c-2.9-16.7-4.1-33.3-3.8-50.2c-0.5,0-1,0-1.4,0c-2.7,0-2.7-4.2,0-4.2c72-0.2,143.8-0.3,215.7-3.5
			c1.1,0,2,0.9,2,2C1256,230.6,1255.1,248.7,1252,266.4z"/>
		<path fill="#CDDE64" d="M1236.3,215.3c-21.9,1.2-43.8,2-65.7,2.5c-42.9,1-85.8,1.3-128.7,1c0.3,13.4,1.3,26.9,3.8,40
			c2.2,12.3,4.3,26.7,10.4,37.8c12.5,22.6,38.9,26.3,62.5,27.3c25.1,1,50.1-1,75-4.2c9.8-1.3,36.9-0.5,42.7-11.3
			c5.5-10.4,8.3-23,10.5-34.5c2.5-12.9,4.5-26.1,4.9-39.3c0.2-5.9,0.3-11.9,0.1-17.8C1251.6,212.6,1238.5,215.2,1236.3,215.3z"/>
		<path fill="#AFDDCD" d="M1145.1,118.9c7.2,0,16.6-0.9,25.7-0.5c0.6-9.8,0.2-19.7-2.5-29.2c-2.8-10-16.6-9.8-25.4-9.1
			c-12.6,1.1-18.4,6.4-18.6,19.5c-0.1,6.3,0.1,12.5,0.2,18.8C1132.3,118.2,1139.8,118.9,1145.1,118.9z M1156.4,93.9
			c0.2-1.1,1.7-1.4,2.4-0.6c1.3,1.5,2,3.4,2.8,5.3c0.8,1.6,0.9,2.7,0,4.3c-0.6,1-1.9,1.3-2.9,0.7c-1.9-1.1-2-2.6-2.2-4.6
			C1156.5,97.2,1156.1,95.6,1156.4,93.9z"/>
		<path fill="#CDDE64" d="M1203.3,196c-3.7-16.6,0.1-34.7-4.7-51.1c-3.7-12.6-11.1-18.6-24.3-19c-9.7-0.3-19.4-0.5-29.2-0.4
			c-9.7,0.1-19.5,0.2-29.2,1c-14.8,1.2-18.2,10.5-18.1,23.5c0,16.2,0.9,32.4,1.3,48.6c20.4-0.6,40.7-1.1,61.1-1.5
			C1174.6,196.7,1188.9,196.3,1203.3,196z"/>
		<path fill="#566520" d="M1273.2,196.7c-15.4-4.5-33.6-1.4-49.4-1.2c-5,0.1-10,0.2-15,0.3c1.2-11.6-0.8-24-1.6-35.6
			c-0.6-9.9-1.7-19.2-6.5-28c-4.7-8.7-13.7-12.2-23.7-13.4c0-0.1,0-0.1,0-0.2c0.7-11.5,0.9-28.1-5.1-38.4
			c-4.9-8.4-20.8-6.5-28.9-6.4c-9.4,0.1-18.7,3.1-23.5,11.7c-4.6,8.3-2.2,22.7,0.2,32.9c-11.8,0.7-23.1,3.7-26.6,14.2
			c-6.5,19.7-1.5,45.9,2.7,66c-19.3,0.5-38.5,1.2-57.8,1.9c-0.6,0-1.2,0.1-1.9,0.1c0.3-1.8-1.4-3.9-3.5-3.4
			c-9.4,2.5-10.5,11.7-11.6,20.1c-2.6,20.6-3.9,41.1-3.8,61.9c0.1,16.5,0,34.4,4.6,50.4c3.5,12.2,14.8,18.3,26.1,21.5
			c15.1,4.3,32.1,4.2,47.7,5.2c20.4,1.2,40.9,1.3,61.4,1c18.8-0.2,37.6-0.9,56.4-1.5c16.5-0.5,33.8-0.4,50-3.9
			c10.5-2.3,17-9.1,18.5-19.5c2.7-18.3,1.8-37.9,2.7-56.5c0.8-18,2.3-36,2.2-54C1286.9,212.6,1283.6,199.8,1273.2,196.7z
			 M1124.4,99.5c0.2-13.1,6.1-18.4,18.6-19.5c8.7-0.7,22.5-0.9,25.4,9.1c2.7,9.5,3.1,19.4,2.5,29.2c-9.1-0.4-18.5,0.5-25.7,0.5
			c-5.3,0-12.9-0.6-20.6-0.5C1124.5,112.1,1124.3,105.8,1124.4,99.5z M1097.8,149.9c0-12.9,3.3-22.3,18.1-23.5
			c9.7-0.8,19.4-0.9,29.2-1c9.7-0.1,19.4,0.1,29.2,0.4c13.2,0.4,20.7,6.5,24.3,19c4.8,16.4,1,34.5,4.7,51.1
			c-14.4,0.3-28.7,0.7-43.1,1c-20.4,0.5-40.7,1-61.1,1.5C1098.7,182.4,1097.9,166.2,1097.8,149.9z M1279.7,243.1
			c-0.7,15.7-1.5,31.4-2.2,47.2c-0.4,7.9-0.7,15.7-1.1,23.6c-0.4,9.1,1.5,22.2-6.9,28.5c-9.5,7.1-27.1,5.2-38.3,5.6
			c-15.2,0.6-30.5,0.9-45.7,1.3c-31.5,0.8-63,1-94.5-0.6c-14.8-0.8-30.1-1.3-44.5-5.2c-20.7-5.7-20.7-27.2-21.7-45
			c-0.9-15.9-0.6-31.8,0.2-47.7c0.4-7.9,1.2-15.9,2.1-23.8c0.7-6.1,0.3-20.1,7.2-24.1c61.5,0.5,122.9-0.3,184.4-0.9
			c14.3-0.1,28.5-0.5,42.8-0.6C1285.1,201.2,1280.5,227.2,1279.7,243.1z"/>
		<path fill="#617127" d="M1158.9,103.5c1,0.5,2.3,0.3,2.9-0.7c0.9-1.6,0.7-2.6,0-4.3c-0.8-1.8-1.5-3.8-2.8-5.3
			c-0.7-0.8-2.2-0.4-2.4,0.6c-0.3,1.7,0,3.3,0.2,5C1156.8,101,1156.9,102.5,1158.9,103.5z"/>
		<path fill="#566520" d="M1253.8,210.7c-71.9,3.2-143.7,3.3-215.7,3.5c-2.7,0-2.7,4.2,0,4.2c0.5,0,1,0,1.4,0
			c-0.4,16.9,0.9,33.5,3.8,50.2c2.7,15.5,6.2,31.5,17.5,43.1c20.1,20.6,59.7,18.6,85.7,17.8c17.5-0.6,34.9-2.7,52.3-5.1
			c10.9-1.5,32.3-0.3,39.6-10.7c9.1-13,11-32.1,13.6-47.3c3.1-17.7,4.1-35.8,3.8-53.8C1255.8,211.6,1254.9,210.6,1253.8,210.7z
			 M1251.7,234.9c-0.5,13.2-2.5,26.3-5.1,39.3c-2.2,11.5-5.1,24.1-10.6,34.5c-5.8,10.8-32.9,9.9-42.7,11.2c-24.9,3.2-49.9,5.1-75,4
			c-23.6-1.1-50-4.9-62.4-27.5c-6.1-11.1-8.1-25.5-10.3-37.8c-2.4-13.2-3.3-26.7-3.6-40.1c42.9,0.4,85.8,0.3,128.7-0.5
			c21.9-0.5,43.8-1.2,65.7-2.2c2.2-0.1,15.4-2.6,15.5,1.5C1252.1,223.1,1252,229,1251.7,234.9z"/>
		<path fill="#ADC14A" d="M1236.2,308.4c1.5-2.9,2.8-6,4-9.2c-27.3,0.1-54.5-1.9-80.7-9c-39.4-10.7-77.1-35.2-95.2-71.3
			c-7.4,0-14.9,0-22.3-0.1c0.3,13.4,1.3,26.9,3.8,40c2.2,12.3,4.3,26.7,10.4,37.8c12.5,22.6,38.9,26.3,62.5,27.3
			c25.1,1,50.1-1,75-4.2C1203.3,318.4,1230.5,319.2,1236.2,308.4z"/>
		<path fill="#ADC14A" d="M1111.9,127.1c-11.3,2.5-14.1,11.2-14,22.8c0,16.2,0.9,32.4,1.3,48.6c19.7-0.6,39.3-1,59-1.5
			C1138.8,176.7,1123,152.9,1111.9,127.1z"/>
		<path fill="#E9ED9A" d="M1229.4,228.4c-0.2,0-0.4,0.1-0.6,0.1c-5.1,1.2-5.1,9,0,10.2c0.2,0,0.4,0.1,0.6,0.1
			c3.4,0.8,6.9-1.6,6.9-5.2C1236.2,230,1232.8,227.6,1229.4,228.4z"/>
		<path fill="#E9ED9A" d="M1203.3,231.3c-5.3,0-9.7,4.4-9.7,9.7c0,5.3,4.4,9.7,9.7,9.7s9.7-4.4,9.7-9.7
			C1213,235.7,1208.6,231.3,1203.3,231.3z"/>
		<path fill="#E9ED9A" d="M1187.4,145.3c-1.8-4.2-3.5-8.2-7-11.2c-3.2-2.8-9,0.9-6.2,4.8c4.3,6.1,3.5,14.6,7,21
			c1.7,3.1,5.7,2.5,7.5,0C1192,155.4,1189.3,149.9,1187.4,145.3z"/>
		<path fill="#E9ED9A" d="M1191.4,181.7c-0.2-0.6-0.4-1.2-0.7-1.8c-0.1-0.2-0.2-0.3-0.2-0.3c-0.4-4.9-6.9-5.5-8.5-1
			c-1,2.6-0.6,5.8,1.6,7.7c1.6,1.4,3.8,1.9,5.7,0.7C1190.9,186,1192.1,183.7,1191.4,181.7z"/>
	</g>
	<path fill="#F1F7E4" d="M909,317c-17.4,0-32,14.6-32,32s14.6,32,32,32s32-14.6,32-32S926.4,317,909,317z"/>
	<path fill="#F1F7E4" d="M823.6,266.8c-2.2-3.7-6.3-6.1-10.6-6.1s-8.4,2.4-10.6,6.1c-2.2,3.8-2.2,8.6,0,12.4c0.6,1,1.1,2,1.7,3
		c1.8,3.2,5.3,5.1,8.9,5.1s7.1-2,8.9-5.1c0.6-1,1.1-2,1.7-3C825.8,275.4,825.9,270.6,823.6,266.8z"/>
	<path fill="#F1F7E4" d="M376.2,942.7c-7-1.9-14.7-0.9-21,2.7c-8.2,4.8-13.6,13.9-13.5,23.5l0,3.7c0,3.6,0.8,6.8,2.6,10
		c2.1,3.5,3.9,4.7,7.2,7.1c0.7,0.5,1.3,1,2,1.5c0.6,0.4,1.1,0.8,1.7,1.3c2.2,0.9,4.3,1.8,6.5,2.7c4.8,1.3,9.7,1.3,14.5,0
		c9.2-2.5,16.5-9.9,19-19C399.2,961.9,390.5,946.7,376.2,942.7z"/>
	<path fill="#F1F7E4" d="M247.5,843c-0.3-1-0.5-1.9-0.8-2.9c-1.6-6.2-6.7-11.2-12.8-12.8c-6.3-1.7-13.2,0.1-17.9,4.7
		s-6.5,11.6-4.7,17.9c1.7,6.1,6.7,11.2,12.8,12.8c1,0.3,1.9,0.5,2.9,0.8c5.8,1.5,11.9,0,16.2-4.3S249,848.8,247.5,843z"/>
	<path fill="#F1F7E4" d="M488.7,767.9c-0.2-0.7-0.3-1.4-0.6-2c-0.5-1.9-1.5-3.6-2.9-5c-2.1-2.1-5.1-3.4-8.1-3.4
		c-2.1,0-4,0.5-5.8,1.6c-2.6,1.5-4.4,3.9-5.3,6.8c-0.3,0.7-0.5,1.3-0.6,2c-0.3,1.2-0.6,2.4-0.4,3.6c0.1,1.1,0.3,2.1,0.4,3.2
		c0.6,2.1,1.6,3.8,3.1,5.3c2.3,2.3,5.4,3.5,8.6,3.5s6.3-1.3,8.6-3.5c0.6-0.8,1.3-1.6,1.9-2.5c1.1-1.9,1.6-3.9,1.7-6.1
		C489.3,770.3,489,769.1,488.7,767.9z"/>
	<path fill="#F1F7E4" d="M361,261.6c-14.9,0-27.4,12.5-27.4,27.4s12.5,27.4,27.4,27.4s27.4-12.5,27.4-27.4S375.9,261.6,361,261.6z"
		/>
	<path fill="#F1F7E4" d="M276.5,204.6c-2.1-3.5-6-4.8-9.8-4c-1.5,0.3-3,0.6-4.4,1c-0.4,0-0.8,0-1.3-0.1c-8.8-0.5-14.1,10.1-9.9,17.3
		c2,3.5,5.9,5.7,9.9,5.7c4.2,0,7.6-2.3,9.9-5.7c1.3-1.3,2.9-2.5,4.2-3.7C278.1,212.6,278.4,207.8,276.5,204.6z"/>
	<path fill="#F1F7E4" d="M706.7,98.6c-2.7-4.6-7.1-8-12.3-9.4c-5.3-1.5-11.1-0.7-15.8,2.1c-4.6,2.7-8,7.1-9.4,12.3
		c-1.5,5.3-0.7,11.1,2.1,15.8c2.7,4.6,7.1,8,12.3,9.4c1.8,0.2,3.6,0.5,5.5,0.7c2.8,0,5.5-0.6,8-1.6l0.1,0c2.6-0.7,4.9-2.1,6.8-4
		c0.8-1,1.6-2.1,2.4-3.1c0.7-1.3,1.3-2.6,1.6-3.9C710.4,111.1,709.9,104.1,706.7,98.6z"/>
	<path fill="#F1F7E4" d="M761,677c-15.4,0-15.4,24,0,24S776.4,677,761,677z"/>
	<path fill="#F1F7E4" d="M137,1265c-4.2-4.2-10-6.6-16-6.6s-11.8,2.4-16,6.6s-6.6,10-6.6,16s2.4,11.8,6.6,16s10,6.6,16,6.6
		s11.8-2.4,16-6.6s6.6-10,6.6-16S141.2,1269.2,137,1265z"/>
	<path fill="#F1F7E4" d="M287.8,1519.8c-0.9-3.3-2.6-6.2-5-8.6c-2.4-2.4-5.3-4.1-8.6-5l-1-0.2c-3.6-0.7-5-0.7-8.6,0
		c-0.2,0-0.4,0.1-0.6,0.1c-4.9,1-9.4,4.8-11.9,9c-2.6,4.5-3.4,10-2,15c1.3,4.9,4.6,9.1,9,11.7c4.5,2.6,10,3.4,15,2
		c4.9-1.3,9.1-4.6,11.7-9C288.5,1530.3,289.2,1524.8,287.8,1519.8z"/>
	<path fill="#F1F7E4" d="M664.5,1307c-1.8-3-4.1-5.3-7.1-7.1c-0.6-0.4-1.2-0.8-1.7-1.2c-3.3-1.9-6.9-2.9-10.7-2.9
		c-3.8,0-7.4,1-10.7,2.9c-6.4,3.8-10.5,10.8-10.5,18.3s4,14.5,10.5,18.3c3.3,1.9,6.9,2.9,10.7,2.9c3.8,0,7.4-1,10.7-2.9
		c0.6-0.4,1.2-0.8,1.7-1.2c3-1.8,5.3-4.1,7.1-7.1c1.8-3.1,2.7-6.4,2.7-10C667.2,1313.4,666.3,1310.1,664.5,1307z"/>
	<path fill="#F1F7E4" d="M545,1638.9c-7.7,0-14.1,6.4-14.1,14.1s6.4,14.1,14.1,14.1s14.1-6.4,14.1-14.1S552.7,1638.9,545,1638.9z"/>
	<path fill="#F1F7E4" d="M1679.8,986c-3.9-6.6-10.4-10-17.7-10.7c-0.4-0.1-0.8-0.2-1.3-0.4c-2.5-1.2-5.1-2.4-7.8-3.2
		c-19-5.7-38.4,9.9-38.4,29.3c0,20,19.3,34.1,38.4,29.3c11.3-2.9,21.3-12,26.8-22.3C1683.5,1001.1,1683.9,992.9,1679.8,986z"/>
	<path fill="#F1F7E4" d="M1962.2,951.8c-0.7-0.6-1.4-1.2-2.1-1.9c-1.9-1.9-4.2-3.3-6.9-4c-2.8-0.7-5.5-0.7-8.3,0
		c-6.7,1.8-11.4,8.1-11.4,15c0,5.5,3,10.7,7.7,13.5c2.4,1.4,5.1,2.1,7.9,2.1c1.4-0.2,2.8-0.4,4.1-0.6c2.6-0.7,4.9-2.1,6.9-4
		c0.7-0.6,1.4-1.2,2.1-1.9c2.5-2.2,3.8-5.9,3.8-9.2S1964.7,954,1962.2,951.8z"/>
	<path fill="#F1F7E4" d="M1624.7,525.3c-4.1-4.1-9.8-6.5-15.7-6.5s-11.5,2.4-15.7,6.5c-4.1,4.1-6.5,9.8-6.5,15.7s2.4,11.5,6.5,15.7
		c4.1,4.1,9.8,6.5,15.7,6.5s11.5-2.4,15.7-6.5c4.1-4.1,6.5-9.8,6.5-15.7S1628.8,529.5,1624.7,525.3z"/>
	<path fill="#F1F7E4" d="M1777.9,394.2c-1.1-1.4-2.2-2.9-3.3-4.3c-2.7-2.6-5.8-4.5-9.4-5.5c-0.7-0.3-1.5-0.6-2.2-0.9
		c-2-0.3-4-0.5-5.9-0.8c-4,0-7.8,1-11.3,3c-6.8,4-11.1,11.4-11.1,19.3c0,5.9,2.4,11.6,6.5,15.8c2.8,2.8,6.1,4.7,9.8,5.7
		c4,1.1,7.9,1.1,11.9,0c0.7-0.3,1.5-0.6,2.2-0.9c3.6-1,6.8-2.8,9.4-5.5c4-4,6.3-9.5,6.3-15.1
		C1780.8,401.1,1779.8,397.6,1777.9,394.2z"/>
	<path fill="#F1F7E4" d="M1494.2,255.8c-0.7-0.7-1.3-1.4-2-2c-3.8-3.9-10.6-3.9-14.4,0c-0.7,0.7-1.3,1.4-2,2
		c-3.2,3.3-4.6,8.1-3.3,12.6c1.5,5.6,6.7,9.5,12.5,9.5c4.6,0,8.9-2.5,11.2-6.4C1499.2,266.5,1498.2,260,1494.2,255.8z"/>
	<path fill="#F1F7E4" d="M1744.7,111c-1-3.7-2.9-6.8-5.6-9.5c-0.3-0.3-0.6-0.6-0.9-1c-2.8-2.8-6.1-4.7-9.9-5.8c-4-1.1-8-1.1-11.9,0
		c-7.6,2.1-13.6,8.1-15.7,15.7c-2.1,7.7,0.1,16.2,5.8,21.9c2.8,2.8,6.1,4.7,9.9,5.8c4,1.1,8,1.1,11.9,0c0.4-0.2,0.8-0.3,1.2-0.5
		c3.7-1,6.8-2.9,9.5-5.6c2.7-2.7,4.5-5.9,5.6-9.5C1745.7,118.6,1745.7,114.8,1744.7,111z"/>
	<path fill="#F1F7E4" d="M2089,300.9c-15.7,0-15.7,24.3,0,24.3S2104.7,300.9,2089,300.9z"/>
	<path fill="#F1F7E4" d="M2159,927.9c-6.1-3.6-13.9-3.6-20,0c-3,1.8-5.4,4.1-7.1,7.1c-0.7,1.6-1.3,3.2-2,4.7c-0.9,3.5-0.9,7,0,10.6
		c0.3,2.2,0.6,4.4,0.9,6.6c0.5,3.6,3.8,7.1,6.8,8.8c4.6,2.7,10.2,2.6,14.9,0c2.2-1.2,4.4-2.4,6.6-3.6c6.1-3.3,9.8-10.3,9.8-17.1
		C2168.9,938,2165.1,931.4,2159,927.9z"/>
	<path fill="#F1F7E4" d="M1695.5,1490.5c0.1-0.5,0.1-1,0.1-1.5c0-1.9-0.5-3.7-1.5-5.4c-0.9-1.6-2.2-2.9-3.8-3.8
		c-0.7-0.3-1.5-0.7-2.2-1c-2-1.2-4.1-1.7-6.4-1.7c-1.1,0.2-2.3,0.3-3.4,0.5c-2.2,0.6-4,1.7-5.6,3.3c-0.7,0.6-1.5,1.2-2.2,1.8
		c-1.8,1.8-3.1,4-3.8,6.5c-0.7,2.6-0.7,5.2,0,7.9c1.4,5,5.4,8.9,10.3,10.3c5.1,1.4,10.6-0.1,14.4-3.8c1.8-1.8,3.1-4,3.8-6.5
		c0.2-1.3,0.4-2.6,0.5-3.9C1695.8,1492.2,1695.7,1491.3,1695.5,1490.5z"/>
	<path fill="#F1F7E4" d="M1768.7,1651.8c-2.4-1.4-4.9-2.1-7.7-2.1c-3.6,0-6.3,1.2-8.9,3.1c0,0,0,0,0,0c0,0,0,0,0,0
		c-0.6,0.4-1.2,0.9-1.9,1.4c-0.1,0.1-0.2,0.2-0.3,0.2c-0.7,0.5-1.4,1-2.2,1.5c-2.5,0.1-5,0.7-7.5,2.2c-4.9,2.9-9,8.9-8.5,14.9
		c0.1,1,0.1,2,0.2,2.9c0.5,7.1,3.4,13.3,9.8,17c3.1,1.8,6.4,2.7,9.9,2.7c4.7,0,10.8-1.9,13.9-5.8c2.7-3.3,4.1-5.3,5.6-9.3
		c0.1-0.3,0.2-0.6,0.3-0.9c1.6-3.5,3-7,4.2-10.6C1777.8,1662.6,1774.4,1655.2,1768.7,1651.8z"/>
	<path fill="#F1F7E4" d="M2077,1462.7c-12.2,0-22.3,10.1-22.3,22.3s10.1,22.3,22.3,22.3s22.3-10.1,22.3-22.3
		S2089.2,1462.7,2077,1462.7z"/>
</g>
</svg>
